<svg width="200" height="200" viewBox="0 0 200 200" fill="none" xmlns="http://www.w3.org/2000/svg">
<rect width="200" height="200" fill="#8A39C5"/>
<path d="M45.0434 64.6C45.0434 65.24 44.6701 65.6533 43.9234 65.84C43.5501 65.9733 43.0834 66.0667 42.5234 66.12C41.9901 66.2 41.4701 66.2533 40.9634 66.28C40.4834 66.3067 40.1101 66.32 39.8434 66.32C36.6168 66.32 34.0301 65.16 32.0834 62.84C30.1368 60.52 29.1634 57.1067 29.1634 52.6C29.1634 48.0667 30.0968 44.64 31.9634 42.32C33.8568 39.9733 36.4834 38.8 39.8434 38.8C40.1101 38.8 40.4834 38.8267 40.9634 38.88C41.4701 38.9067 41.9901 38.96 42.5234 39.04C43.0834 39.0933 43.5501 39.1867 43.9234 39.32C44.2968 39.4 44.5768 39.5067 44.7634 39.64C44.9501 39.7733 45.0434 39.96 45.0434 40.2V43.68C45.0434 44.4 44.6568 44.4933 43.8834 43.96C43.3501 43.6133 42.7634 43.36 42.1234 43.2C41.4834 43.0133 40.8568 42.92 40.2434 42.92C39.1501 42.92 38.2301 43.16 37.4834 43.64C36.7634 44.0933 36.1901 44.7467 35.7634 45.6C35.3368 46.4267 35.0301 47.3867 34.8434 48.48C34.6568 49.5733 34.5634 50.7733 34.5634 52.08C34.5634 52.96 34.6034 53.8667 34.6834 54.8C34.7901 55.7333 34.9501 56.6533 35.1634 57.56C35.4034 58.44 35.7234 59.24 36.1234 59.96C36.5501 60.68 37.0968 61.2533 37.7634 61.68C38.4568 62.08 39.2834 62.28 40.2434 62.28C40.9368 62.28 41.6034 62.2 42.2434 62.04C42.8834 61.8533 43.3901 61.6533 43.7634 61.44C44.2701 61.12 44.6034 60.9733 44.7634 61C44.9501 61.0267 45.0434 61.24 45.0434 61.64V64.6ZM48.1925 65.52V38.16C48.1925 37.84 48.3658 37.68 48.7125 37.68H52.7525C53.1258 37.68 53.3125 37.84 53.3125 38.16V65.52C53.3125 65.84 53.1258 66 52.7525 66H48.7125C48.3658 66 48.1925 65.84 48.1925 65.52ZM62.2206 41.96C62.2206 42.76 62.0473 43.3733 61.7006 43.8C61.354 44.2 60.634 44.4 59.5406 44.4C58.5006 44.4 57.7806 44.2 57.3806 43.8C57.0073 43.3733 56.8206 42.76 56.8206 41.96C56.8206 41.2667 57.0073 40.7067 57.3806 40.28C57.7806 39.8267 58.5006 39.6 59.5406 39.6C60.6873 39.6 61.4206 39.8267 61.7406 40.28C62.0606 40.7067 62.2206 41.2667 62.2206 41.96ZM62.1006 65.52C62.1006 65.84 61.9273 66 61.5806 66H57.4606C57.1406 66 56.9806 65.84 56.9806 65.52V47.6C56.9806 47.28 57.1406 47.12 57.4606 47.12H61.5806C61.9273 47.12 62.1006 47.28 62.1006 47.6V65.52ZM65.8172 69.92C65.7105 68.96 65.6172 67.4667 65.5372 65.44C65.4839 63.4133 65.4705 60.8133 65.4972 57.64C65.4972 56.7333 65.5105 55.7333 65.5372 54.64C65.5639 53.52 65.6039 52.44 65.6572 51.4C65.7372 50.36 65.8439 49.5467 65.9772 48.96C66.0305 48.6667 66.1372 48.44 66.2972 48.28C66.4572 48.0933 66.8172 47.8933 67.3772 47.68C67.9372 47.4933 68.7639 47.2933 69.8572 47.08C70.9772 46.8667 72.2172 46.76 73.5772 46.76C76.1905 46.76 78.2172 47.52 79.6572 49.04C81.1239 50.5333 81.8572 52.8933 81.8572 56.12C81.8572 57.4533 81.7372 58.6533 81.4972 59.72C81.2839 60.76 80.9505 61.68 80.4972 62.48C80.0439 63.2533 79.5105 63.8933 78.8972 64.4C78.3105 64.9067 77.6439 65.2933 76.8972 65.56C76.4172 65.7733 75.8572 65.9333 75.2172 66.04C74.5772 66.1733 73.9372 66.24 73.2972 66.24C72.6572 66.2667 72.0839 66.24 71.5772 66.16C71.3372 66.1333 71.1505 66.1067 71.0172 66.08C70.8839 66.08 70.8172 66.1733 70.8172 66.36C70.8172 66.5467 70.8039 66.84 70.7772 67.24C70.7772 67.64 70.7905 68.04 70.8172 68.44C70.8439 68.84 70.8572 69.1467 70.8572 69.36C70.9105 69.7067 70.9239 69.9467 70.8972 70.08C70.8972 70.24 70.6972 70.32 70.2972 70.32H66.4972C66.2839 70.32 66.1105 70.2933 65.9772 70.24C65.8705 70.1867 65.8172 70.08 65.8172 69.92ZM70.7372 60.8C70.7372 60.9867 70.7639 61.12 70.8172 61.2C70.8705 61.2533 70.9639 61.2933 71.0972 61.32C71.4439 61.4533 71.8439 61.56 72.2972 61.64C72.7505 61.72 73.1372 61.76 73.4572 61.76C73.8039 61.76 74.1505 61.6933 74.4972 61.56C74.8705 61.4267 75.2172 61.1733 75.5372 60.8C75.8839 60.4 76.1505 59.8267 76.3372 59.08C76.5505 58.3333 76.6572 57.3333 76.6572 56.08C76.6572 54.0267 76.3639 52.6133 75.7772 51.84C75.1905 51.0667 74.4305 50.68 73.4972 50.68C73.0705 50.68 72.6439 50.72 72.2172 50.8C71.7905 50.88 71.4305 50.9733 71.1372 51.08C71.0839 51.1333 71.0305 51.2 70.9772 51.28C70.9239 51.36 70.8972 51.4667 70.8972 51.6C70.8705 52.16 70.8439 52.76 70.8172 53.4C70.8172 54.04 70.8039 54.6933 70.7772 55.36C70.7772 56 70.7639 56.6533 70.7372 57.32C70.7372 57.96 70.7372 58.5867 70.7372 59.2C70.7372 59.7867 70.7372 60.32 70.7372 60.8ZM92.4713 66.24C91.1113 66.24 89.8713 66.1333 88.7513 65.92C87.6579 65.68 86.9113 65.48 86.5113 65.32C86.0846 65.1867 85.7646 65.0667 85.5513 64.96C85.3646 64.8267 85.2313 64.68 85.1513 64.52C85.0713 64.3333 85.0046 64.1067 84.9513 63.84C84.8179 63.3333 84.7113 62.5733 84.6313 61.56C84.5779 60.5467 84.5379 59.48 84.5113 58.36C84.4846 57.2133 84.4579 56.2 84.4313 55.32C84.4313 52.04 84.5113 48.9067 84.6713 45.92C84.8579 42.9333 85.0979 40.32 85.3913 38.08C85.4179 37.8933 85.4846 37.7867 85.5913 37.76C85.7246 37.7067 85.8979 37.68 86.1113 37.68H89.8713C90.2713 37.68 90.4713 37.7467 90.4713 37.88C90.4979 37.9867 90.4846 38.24 90.4313 38.64C90.3779 39.0933 90.3113 39.6133 90.2313 40.2C90.1513 40.76 90.0846 41.3467 90.0313 41.96C89.9779 42.5733 89.9246 43.1867 89.8713 43.8C89.8179 44.4133 89.7779 44.9867 89.7513 45.52C89.7246 46.0533 89.7113 46.5333 89.7113 46.96C89.7113 47.1733 89.7646 47.3067 89.8713 47.36C90.0046 47.3867 90.1513 47.3867 90.3113 47.36C90.5779 47.28 90.9513 47.2 91.4313 47.12C91.9379 47.0133 92.3913 46.96 92.7913 46.96C93.7513 46.96 94.6979 47.1067 95.6313 47.4C96.5913 47.6667 97.4579 48.16 98.2313 48.88C99.0046 49.6 99.6313 50.6133 100.111 51.92C100.591 53.2 100.831 54.8533 100.831 56.88C100.831 60.1067 100.085 62.48 98.5913 64C97.1246 65.4933 95.0846 66.24 92.4713 66.24ZM92.4313 62.32C93.0446 62.32 93.5913 62.16 94.0713 61.84C94.5513 61.4933 94.9246 60.92 95.1913 60.12C95.4846 59.32 95.6313 58.24 95.6313 56.88C95.6313 55.6533 95.5246 54.6667 95.3113 53.92C95.1246 53.1733 94.8579 52.6133 94.5113 52.24C94.1913 51.84 93.8446 51.5733 93.4713 51.44C93.1246 51.3067 92.7779 51.24 92.4313 51.24C92.2179 51.24 91.9513 51.2667 91.6313 51.32C91.3379 51.3733 91.0446 51.44 90.7513 51.52C90.4846 51.6 90.2446 51.6667 90.0313 51.72C89.9246 51.7467 89.8446 51.8 89.7913 51.88C89.7646 51.9333 89.7379 52.0533 89.7113 52.24C89.7113 52.88 89.7113 53.56 89.7113 54.28C89.7113 55 89.7113 55.76 89.7113 56.56C89.7379 57.36 89.7646 58.1733 89.7913 59C89.8179 59.8 89.8446 60.5867 89.8713 61.36C89.8713 61.52 89.8846 61.64 89.9113 61.72C89.9646 61.8 90.0313 61.8667 90.1113 61.92C90.3779 62 90.7113 62.0933 91.1113 62.2C91.5379 62.28 91.9779 62.32 92.4313 62.32ZM112.524 66.32C110.204 66.32 108.404 65.8933 107.124 65.04C105.871 64.16 104.991 62.9867 104.484 61.52C104.004 60.0267 103.764 58.3333 103.764 56.44C103.764 54.6 104.044 52.96 104.604 51.52C105.164 50.0533 106.071 48.9067 107.324 48.08C108.604 47.2267 110.338 46.8 112.524 46.8C114.738 46.8 116.471 47.2267 117.724 48.08C119.004 48.9067 119.911 50.0533 120.444 51.52C121.004 52.96 121.284 54.6 121.284 56.44C121.284 58.3067 121.044 59.9867 120.564 61.48C120.084 62.9467 119.204 64.12 117.924 65C116.671 65.88 114.871 66.32 112.524 66.32ZM112.484 62.4C113.791 62.4 114.711 61.8933 115.244 60.88C115.778 59.8667 116.044 58.44 116.044 56.6C116.044 54.76 115.751 53.3733 115.164 52.44C114.604 51.48 113.711 51 112.484 51C111.284 51 110.391 51.48 109.804 52.44C109.244 53.3733 108.964 54.76 108.964 56.6C108.964 58.4667 109.218 59.9067 109.724 60.92C110.258 61.9067 111.178 62.4 112.484 62.4ZM131.802 66.28C130.442 66.28 129.162 66.1333 127.962 65.84C126.788 65.52 125.828 64.92 125.082 64.04C124.362 63.16 124.002 61.88 124.002 60.2C124.002 58.8133 124.255 57.68 124.762 56.8C125.295 55.8933 125.962 55.2 126.762 54.72C127.588 54.24 128.442 53.92 129.322 53.76C130.202 53.5733 130.988 53.48 131.682 53.48C132.242 53.48 132.775 53.5067 133.282 53.56C133.815 53.5867 134.308 53.64 134.762 53.72C135.002 53.8 135.122 53.6267 135.122 53.2C135.122 52.2133 134.815 51.52 134.202 51.12C133.615 50.72 132.788 50.52 131.722 50.52C130.708 50.52 129.735 50.7067 128.802 51.08C127.895 51.4533 127.122 51.8 126.482 52.12C126.188 52.28 125.988 52.3333 125.882 52.28C125.802 52.2267 125.735 52.0533 125.682 51.76L125.322 49.52C125.268 49.1733 125.268 48.9467 125.322 48.84C125.375 48.7333 125.522 48.6 125.762 48.44C126.455 47.9867 127.335 47.6267 128.402 47.36C129.468 47.0667 130.602 46.92 131.802 46.92C133.615 46.92 135.068 47.1333 136.162 47.56C137.255 47.96 138.068 48.5067 138.602 49.2C139.162 49.8933 139.522 50.6933 139.682 51.6C139.868 52.48 139.962 53.4 139.962 54.36C139.988 55.48 139.988 56.5867 139.962 57.68C139.962 58.7467 139.935 59.8133 139.882 60.88C139.828 61.9467 139.748 63.0267 139.642 64.12C139.588 64.4133 139.508 64.64 139.402 64.8C139.295 64.9333 139.082 65.08 138.762 65.24C138.388 65.4267 137.895 65.5867 137.282 65.72C136.668 65.8267 136.002 65.92 135.282 66C134.588 66.1067 133.935 66.1733 133.322 66.2C132.708 66.2533 132.202 66.28 131.802 66.28ZM132.122 63.2C132.335 63.2 132.575 63.1867 132.842 63.16C133.108 63.1067 133.375 63.04 133.642 62.96C133.908 62.88 134.122 62.7733 134.282 62.64C134.468 62.5067 134.575 62.3333 134.602 62.12C134.682 61.48 134.748 60.7733 134.802 60C134.855 59.2267 134.855 58.48 134.802 57.76C134.802 57.4133 134.668 57.1733 134.402 57.04C134.135 56.8533 133.748 56.7467 133.242 56.72C132.762 56.6667 132.362 56.64 132.042 56.64C131.802 56.64 131.495 56.6933 131.122 56.8C130.775 56.88 130.442 57.04 130.122 57.28C129.802 57.52 129.535 57.88 129.322 58.36C129.135 58.84 129.042 59.4533 129.042 60.2C129.042 60.7867 129.162 61.3067 129.402 61.76C129.642 62.2133 129.988 62.5733 130.442 62.84C130.895 63.08 131.455 63.2 132.122 63.2ZM149.631 46.96C151.657 46.96 153.324 47.2533 154.631 47.84C154.897 47.9467 155.044 48.0533 155.071 48.16C155.124 48.2667 155.137 48.4133 155.111 48.6L154.391 51.08C154.337 51.2933 154.271 51.4267 154.191 51.48C154.111 51.5067 153.951 51.48 153.711 51.4C153.257 51.2667 152.751 51.1733 152.191 51.12C151.631 51.04 151.204 51 150.911 51C150.484 51 150.124 51.0267 149.831 51.08C149.537 51.1067 149.311 51.1467 149.151 51.2C148.991 51.2533 148.857 51.3067 148.751 51.36C148.644 51.44 148.524 51.5333 148.391 51.64C148.284 51.7467 148.231 51.9867 148.231 52.36V65.16C148.231 65.5333 148.177 65.7733 148.071 65.88C147.964 65.96 147.777 66 147.511 66H143.631C143.497 66 143.377 65.96 143.271 65.88C143.164 65.8 143.111 65.6133 143.111 65.32V49.32C143.111 48.8933 143.151 48.6267 143.231 48.52C143.337 48.3867 143.537 48.2533 143.831 48.12C144.631 47.7467 145.577 47.4667 146.671 47.28C147.791 47.0667 148.777 46.96 149.631 46.96ZM156.386 56.84C156.44 54.8133 156.706 53.16 157.186 51.88C157.693 50.6 158.333 49.6 159.106 48.88C159.906 48.16 160.786 47.6667 161.746 47.4C162.706 47.1333 163.68 47 164.666 47C165.04 47 165.466 47.04 165.946 47.12C166.426 47.2 166.8 47.2667 167.066 47.32C167.253 47.3733 167.4 47.3867 167.506 47.36C167.64 47.3333 167.706 47.2133 167.706 47C167.706 46.52 167.693 46.0133 167.666 45.48C167.666 44.9467 167.64 44.4133 167.586 43.88C167.56 43.32 167.52 42.7733 167.466 42.24C167.413 41.68 167.36 41.16 167.306 40.68C167.28 40.1733 167.24 39.72 167.186 39.32C167.133 38.8667 167.146 38.6 167.226 38.52C167.333 38.44 167.506 38.4 167.746 38.4H171.586C171.773 38.4 171.92 38.4133 172.026 38.44C172.16 38.4667 172.24 38.5733 172.266 38.76C172.373 39.8533 172.466 41.1333 172.546 42.6C172.626 44.04 172.693 45.6 172.746 47.28C172.8 48.9333 172.826 50.6 172.826 52.28C172.853 53.96 172.84 55.5733 172.786 57.12C172.76 58.6667 172.693 60.04 172.586 61.24C172.506 62.44 172.386 63.36 172.226 64C172.146 64.32 172.026 64.56 171.866 64.72C171.733 64.88 171.373 65.0667 170.786 65.28C170.28 65.4933 169.466 65.72 168.346 65.96C167.226 66.1733 166 66.28 164.666 66.28C163.626 66.2533 162.653 66.1333 161.746 65.92C160.866 65.68 160.093 65.3067 159.426 64.8C158.413 64.08 157.653 63.0667 157.146 61.76C156.64 60.4267 156.386 58.7867 156.386 56.84ZM161.626 56.88C161.6 58.72 161.813 60.0267 162.266 60.8C162.746 61.5467 163.346 61.9733 164.066 62.08C164.386 62.1867 164.72 62.2533 165.066 62.28C165.44 62.28 165.8 62.2533 166.146 62.2C166.52 62.12 166.84 62.0267 167.106 61.92C167.186 61.8667 167.24 61.8133 167.266 61.76C167.32 61.68 167.346 61.5733 167.346 61.44C167.373 60.8533 167.4 60.24 167.426 59.6C167.48 58.96 167.506 58.32 167.506 57.68C167.533 57.04 167.56 56.4 167.586 55.76C167.613 55.12 167.626 54.5067 167.626 53.92C167.653 53.3333 167.653 52.7867 167.626 52.28C167.626 52.0933 167.6 51.9733 167.546 51.92C167.52 51.84 167.453 51.7867 167.346 51.76C167 51.6267 166.586 51.52 166.106 51.44C165.653 51.3333 165.266 51.28 164.946 51.28C164.626 51.28 164.266 51.3467 163.866 51.48C163.493 51.6133 163.133 51.8667 162.786 52.24C162.466 52.6133 162.2 53.1733 161.986 53.92C161.773 54.64 161.653 55.6267 161.626 56.88ZM43.6131 111C43.2398 111 43.0531 110.84 43.0531 110.52V84.6C43.0531 84.2533 43.2398 84.08 43.6131 84.08H47.6531C47.9198 84.08 48.0931 84.1333 48.1731 84.24C48.2798 84.32 48.3331 84.4933 48.3331 84.76V106.56C48.3331 106.72 48.3465 106.827 48.3731 106.88C48.3998 106.907 48.4931 106.92 48.6531 106.92H56.8131C57.1865 106.92 57.3998 106.96 57.4531 107.04C57.5331 107.12 57.5731 107.333 57.5731 107.68V110.24C57.5731 110.613 57.5331 110.84 57.4531 110.92C57.3731 110.973 57.1598 111 56.8131 111H43.6131ZM67.1922 111.28C65.8322 111.28 64.5522 111.133 63.3522 110.84C62.1789 110.52 61.2189 109.92 60.4722 109.04C59.7522 108.16 59.3922 106.88 59.3922 105.2C59.3922 103.813 59.6455 102.68 60.1522 101.8C60.6855 100.893 61.3522 100.2 62.1522 99.72C62.9789 99.24 63.8322 98.92 64.7122 98.76C65.5922 98.5733 66.3789 98.48 67.0722 98.48C67.6322 98.48 68.1655 98.5067 68.6722 98.56C69.2055 98.5867 69.6989 98.64 70.1522 98.72C70.3922 98.8 70.5122 98.6267 70.5122 98.2C70.5122 97.2133 70.2055 96.52 69.5922 96.12C69.0055 95.72 68.1789 95.52 67.1122 95.52C66.0989 95.52 65.1255 95.7067 64.1922 96.08C63.2855 96.4533 62.5122 96.8 61.8722 97.12C61.5789 97.28 61.3789 97.3333 61.2722 97.28C61.1922 97.2267 61.1255 97.0533 61.0722 96.76L60.7122 94.52C60.6589 94.1733 60.6589 93.9467 60.7122 93.84C60.7655 93.7333 60.9122 93.6 61.1522 93.44C61.8455 92.9867 62.7255 92.6267 63.7922 92.36C64.8589 92.0667 65.9922 91.92 67.1922 91.92C69.0055 91.92 70.4589 92.1333 71.5522 92.56C72.6455 92.96 73.4589 93.5067 73.9922 94.2C74.5522 94.8933 74.9122 95.6933 75.0722 96.6C75.2589 97.48 75.3522 98.4 75.3522 99.36C75.3789 100.48 75.3789 101.587 75.3522 102.68C75.3522 103.747 75.3255 104.813 75.2722 105.88C75.2189 106.947 75.1389 108.027 75.0322 109.12C74.9789 109.413 74.8989 109.64 74.7922 109.8C74.6855 109.933 74.4722 110.08 74.1522 110.24C73.7789 110.427 73.2855 110.587 72.6722 110.72C72.0589 110.827 71.3922 110.92 70.6722 111C69.9789 111.107 69.3255 111.173 68.7122 111.2C68.0989 111.253 67.5922 111.28 67.1922 111.28ZM67.5122 108.2C67.7255 108.2 67.9655 108.187 68.2322 108.16C68.4989 108.107 68.7655 108.04 69.0322 107.96C69.2989 107.88 69.5122 107.773 69.6722 107.64C69.8589 107.507 69.9655 107.333 69.9922 107.12C70.0722 106.48 70.1389 105.773 70.1922 105C70.2455 104.227 70.2455 103.48 70.1922 102.76C70.1922 102.413 70.0589 102.173 69.7922 102.04C69.5255 101.853 69.1389 101.747 68.6322 101.72C68.1522 101.667 67.7522 101.64 67.4322 101.64C67.1922 101.64 66.8855 101.693 66.5122 101.8C66.1655 101.88 65.8322 102.04 65.5122 102.28C65.1922 102.52 64.9255 102.88 64.7122 103.36C64.5255 103.84 64.4322 104.453 64.4322 105.2C64.4322 105.787 64.5522 106.307 64.7922 106.76C65.0322 107.213 65.3789 107.573 65.8322 107.84C66.2855 108.08 66.8455 108.2 67.5122 108.2ZM79.2213 111C78.8479 111 78.6613 110.827 78.6613 110.48C78.6613 107.707 78.6613 104.947 78.6613 102.2C78.6613 99.4267 78.6613 96.6533 78.6613 93.88C78.6613 93.6133 78.7546 93.4133 78.9413 93.28C79.1279 93.1467 79.4879 92.9867 80.0213 92.8C80.3679 92.6933 80.8746 92.5733 81.5413 92.44C82.2346 92.28 82.9813 92.1333 83.7813 92C84.5813 91.8667 85.3013 91.8 85.9413 91.8C88.1546 91.8 89.8479 92.2267 91.0213 93.08C92.2213 93.9067 93.0346 95.0133 93.4613 96.4C93.9146 97.76 94.1413 99.2667 94.1413 100.92C94.1413 101.907 94.1146 102.947 94.0613 104.04C94.0346 105.107 93.9813 106.16 93.9013 107.2C93.8213 108.24 93.7413 109.187 93.6613 110.04C93.6079 110.52 93.5279 110.8 93.4213 110.88C93.3146 110.96 93.0746 111 92.7013 111H89.4213C89.0479 111 88.7946 110.96 88.6613 110.88C88.5546 110.773 88.5146 110.56 88.5412 110.24C88.5412 110.133 88.5546 109.72 88.5813 109C88.6346 108.253 88.6879 107.373 88.7413 106.36C88.7946 105.347 88.8346 104.347 88.8613 103.36C88.9146 102.373 88.9413 101.573 88.9413 100.96C88.9413 99.5733 88.8213 98.52 88.5813 97.8C88.3413 97.0533 87.9946 96.5467 87.5413 96.28C87.0879 96.0133 86.5146 95.88 85.8213 95.88C85.5546 95.88 85.3013 95.8933 85.0613 95.92C84.8213 95.9467 84.6079 95.9867 84.4213 96.04C84.1813 96.0667 84.0079 96.1733 83.9013 96.36C83.7946 96.5467 83.7413 96.8533 83.7413 97.28C83.7413 98.4 83.7413 99.6933 83.7413 101.16C83.7413 102.627 83.7413 104.147 83.7413 105.72C83.7413 107.293 83.7413 108.88 83.7413 110.48C83.7413 110.827 83.5946 111 83.3013 111H79.2213ZM97.0113 101.84C97.0646 99.8133 97.3313 98.16 97.8113 96.88C98.3179 95.6 98.9579 94.6 99.7313 93.88C100.531 93.16 101.411 92.6667 102.371 92.4C103.331 92.1333 104.305 92 105.291 92C105.665 92 106.091 92.04 106.571 92.12C107.051 92.2 107.425 92.2667 107.691 92.32C107.878 92.3733 108.025 92.3867 108.131 92.36C108.265 92.3333 108.331 92.2133 108.331 92C108.331 91.52 108.318 91.0133 108.291 90.48C108.291 89.9467 108.265 89.4133 108.211 88.88C108.185 88.32 108.145 87.7733 108.091 87.24C108.038 86.68 107.985 86.16 107.931 85.68C107.905 85.1733 107.865 84.72 107.811 84.32C107.758 83.8667 107.771 83.6 107.851 83.52C107.958 83.44 108.131 83.4 108.371 83.4H112.211C112.398 83.4 112.545 83.4133 112.651 83.44C112.785 83.4667 112.865 83.5733 112.891 83.76C112.998 84.8533 113.091 86.1333 113.171 87.6C113.251 89.04 113.318 90.6 113.371 92.28C113.425 93.9333 113.451 95.6 113.451 97.28C113.478 98.96 113.465 100.573 113.411 102.12C113.385 103.667 113.318 105.04 113.211 106.24C113.131 107.44 113.011 108.36 112.851 109C112.771 109.32 112.651 109.56 112.491 109.72C112.358 109.88 111.998 110.067 111.411 110.28C110.905 110.493 110.091 110.72 108.971 110.96C107.851 111.173 106.625 111.28 105.291 111.28C104.251 111.253 103.278 111.133 102.371 110.92C101.491 110.68 100.718 110.307 100.051 109.8C99.0379 109.08 98.2779 108.067 97.7713 106.76C97.2646 105.427 97.0113 103.787 97.0113 101.84ZM102.251 101.88C102.225 103.72 102.438 105.027 102.891 105.8C103.371 106.547 103.971 106.973 104.691 107.08C105.011 107.187 105.345 107.253 105.691 107.28C106.065 107.28 106.425 107.253 106.771 107.2C107.145 107.12 107.465 107.027 107.731 106.92C107.811 106.867 107.865 106.813 107.891 106.76C107.945 106.68 107.971 106.573 107.971 106.44C107.998 105.853 108.025 105.24 108.051 104.6C108.105 103.96 108.131 103.32 108.131 102.68C108.158 102.04 108.185 101.4 108.211 100.76C108.238 100.12 108.251 99.5067 108.251 98.92C108.278 98.3333 108.278 97.7867 108.251 97.28C108.251 97.0933 108.225 96.9733 108.171 96.92C108.145 96.84 108.078 96.7867 107.971 96.76C107.625 96.6267 107.211 96.52 106.731 96.44C106.278 96.3333 105.891 96.28 105.571 96.28C105.251 96.28 104.891 96.3467 104.491 96.48C104.118 96.6133 103.758 96.8667 103.411 97.24C103.091 97.6133 102.825 98.1733 102.611 98.92C102.398 99.64 102.278 100.627 102.251 101.88ZM122.182 86.96C122.182 87.76 122.008 88.3733 121.662 88.8C121.315 89.2 120.595 89.4 119.502 89.4C118.462 89.4 117.742 89.2 117.342 88.8C116.968 88.3733 116.782 87.76 116.782 86.96C116.782 86.2667 116.968 85.7067 117.342 85.28C117.742 84.8267 118.462 84.6 119.502 84.6C120.648 84.6 121.382 84.8267 121.702 85.28C122.022 85.7067 122.182 86.2667 122.182 86.96ZM122.062 110.52C122.062 110.84 121.888 111 121.542 111H117.422C117.102 111 116.942 110.84 116.942 110.52V92.6C116.942 92.28 117.102 92.12 117.422 92.12H121.542C121.888 92.12 122.062 92.28 122.062 92.6V110.52ZM126.018 111C125.645 111 125.458 110.827 125.458 110.48C125.458 107.707 125.458 104.947 125.458 102.2C125.458 99.4267 125.458 96.6533 125.458 93.88C125.458 93.6133 125.551 93.4133 125.738 93.28C125.925 93.1467 126.285 92.9867 126.818 92.8C127.165 92.6933 127.671 92.5733 128.338 92.44C129.031 92.28 129.778 92.1333 130.578 92C131.378 91.8667 132.098 91.8 132.738 91.8C134.951 91.8 136.645 92.2267 137.818 93.08C139.018 93.9067 139.831 95.0133 140.258 96.4C140.711 97.76 140.938 99.2667 140.938 100.92C140.938 101.907 140.911 102.947 140.858 104.04C140.831 105.107 140.778 106.16 140.698 107.2C140.618 108.24 140.538 109.187 140.458 110.04C140.405 110.52 140.325 110.8 140.218 110.88C140.111 110.96 139.871 111 139.498 111H136.218C135.845 111 135.591 110.96 135.458 110.88C135.351 110.773 135.311 110.56 135.338 110.24C135.338 110.133 135.351 109.72 135.378 109C135.431 108.253 135.485 107.373 135.538 106.36C135.591 105.347 135.631 104.347 135.658 103.36C135.711 102.373 135.738 101.573 135.738 100.96C135.738 99.5733 135.618 98.52 135.378 97.8C135.138 97.0533 134.791 96.5467 134.338 96.28C133.885 96.0133 133.311 95.88 132.618 95.88C132.351 95.88 132.098 95.8933 131.858 95.92C131.618 95.9467 131.405 95.9867 131.218 96.04C130.978 96.0667 130.805 96.1733 130.698 96.36C130.591 96.5467 130.538 96.8533 130.538 97.28C130.538 98.4 130.538 99.6933 130.538 101.16C130.538 102.627 130.538 104.147 130.538 105.72C130.538 107.293 130.538 108.88 130.538 110.48C130.538 110.827 130.391 111 130.098 111H126.018ZM143.608 101.32C143.635 99.5067 143.888 97.8933 144.368 96.48C144.875 95.04 145.755 93.92 147.008 93.12C148.288 92.2933 150.075 91.88 152.368 91.88C153.435 91.88 154.475 91.9733 155.488 92.16C156.528 92.32 157.448 92.5467 158.248 92.84C158.888 93.08 159.275 93.3467 159.408 93.64C159.541 93.9333 159.648 94.4267 159.728 95.12C159.995 97.28 160.128 99.6133 160.128 102.12C160.155 104.627 160.008 107.067 159.688 109.44C159.395 111.76 158.528 113.453 157.088 114.52C155.648 115.613 153.675 116.16 151.168 116.16C150.181 116.16 149.088 116.013 147.888 115.72C146.715 115.453 145.608 114.933 144.568 114.16C144.461 114.08 144.368 113.947 144.288 113.76C144.208 113.573 144.221 113.387 144.328 113.2C144.461 113.013 144.648 112.693 144.888 112.24C145.155 111.787 145.341 111.467 145.448 111.28C145.635 110.96 145.781 110.787 145.888 110.76C146.021 110.733 146.221 110.813 146.488 111C146.781 111.213 147.181 111.427 147.688 111.64C148.221 111.853 148.768 112.04 149.328 112.2C149.915 112.36 150.395 112.44 150.768 112.44C151.195 112.44 151.661 112.373 152.168 112.24C152.675 112.107 153.141 111.867 153.568 111.52C153.995 111.173 154.261 110.653 154.368 109.96C154.368 109.933 154.368 109.907 154.368 109.88C154.395 109.853 154.408 109.827 154.408 109.8C154.435 109.613 154.408 109.467 154.328 109.36C154.248 109.227 154.075 109.187 153.808 109.24C153.568 109.293 153.248 109.347 152.848 109.4C152.475 109.427 152.101 109.44 151.728 109.44C150.288 109.44 148.955 109.147 147.728 108.56C146.501 107.973 145.501 107.08 144.728 105.88C143.981 104.653 143.608 103.133 143.608 101.32ZM148.968 100.48C148.968 101.467 149.061 102.36 149.248 103.16C149.435 103.96 149.755 104.587 150.208 105.04C150.661 105.467 151.301 105.68 152.128 105.68C152.501 105.68 152.861 105.667 153.208 105.64C153.581 105.587 153.901 105.493 154.168 105.36C154.515 105.227 154.701 104.96 154.728 104.56C154.781 104.027 154.808 103.387 154.808 102.64C154.808 101.867 154.795 101.08 154.768 100.28C154.768 99.4533 154.755 98.72 154.728 98.08C154.701 97.4133 154.675 96.9067 154.648 96.56C154.648 96.4 154.608 96.2267 154.528 96.04C154.475 95.8267 154.381 95.6933 154.248 95.64C154.008 95.5067 153.715 95.4133 153.368 95.36C153.048 95.28 152.648 95.24 152.168 95.24C151.368 95.24 150.728 95.4667 150.248 95.92C149.795 96.3733 149.475 97 149.288 97.8C149.101 98.5733 148.995 99.4667 148.968 100.48ZM81.3411 137.8C81.3411 139.507 81.0211 141.08 80.3811 142.52C79.7678 143.96 78.8478 145.12 77.6211 146C76.3944 146.853 74.8478 147.28 72.9811 147.28H70.8211C70.7144 147.28 70.6344 147.32 70.5811 147.4C70.5278 147.453 70.5011 147.533 70.5011 147.64V155.52C70.5011 155.84 70.3144 156 69.9411 156H65.7411C65.3944 156 65.2211 155.84 65.2211 155.52V129.6C65.2211 129.253 65.3944 129.08 65.7411 129.08H72.5411C75.6611 129.08 77.9011 129.8 79.2611 131.24C80.6478 132.653 81.3411 134.84 81.3411 137.8ZM70.5011 143.08C70.5011 143.32 70.6078 143.44 70.8211 143.44H72.4611C73.6344 143.44 74.5544 142.947 75.2211 141.96C75.8878 140.973 76.2211 139.6 76.2211 137.84C76.1944 135.973 75.8478 134.667 75.1811 133.92C74.5144 133.147 73.5811 132.76 72.3811 132.76H70.8211C70.6878 132.76 70.5944 132.773 70.5411 132.8C70.5144 132.827 70.5011 132.933 70.5011 133.12V143.08ZM91.743 156.28C90.383 156.28 89.103 156.133 87.903 155.84C86.7296 155.52 85.7696 154.92 85.023 154.04C84.303 153.16 83.943 151.88 83.943 150.2C83.943 148.813 84.1963 147.68 84.703 146.8C85.2363 145.893 85.903 145.2 86.703 144.72C87.5296 144.24 88.383 143.92 89.263 143.76C90.143 143.573 90.9296 143.48 91.623 143.48C92.183 143.48 92.7163 143.507 93.223 143.56C93.7563 143.587 94.2496 143.64 94.703 143.72C94.943 143.8 95.063 143.627 95.063 143.2C95.063 142.213 94.7563 141.52 94.143 141.12C93.5563 140.72 92.7296 140.52 91.663 140.52C90.6496 140.52 89.6763 140.707 88.743 141.08C87.8363 141.453 87.063 141.8 86.423 142.12C86.1296 142.28 85.9296 142.333 85.823 142.28C85.743 142.227 85.6763 142.053 85.623 141.76L85.263 139.52C85.2096 139.173 85.2096 138.947 85.263 138.84C85.3163 138.733 85.463 138.6 85.703 138.44C86.3963 137.987 87.2763 137.627 88.343 137.36C89.4096 137.067 90.543 136.92 91.743 136.92C93.5563 136.92 95.0096 137.133 96.103 137.56C97.1963 137.96 98.0096 138.507 98.543 139.2C99.103 139.893 99.463 140.693 99.623 141.6C99.8096 142.48 99.903 143.4 99.903 144.36C99.9296 145.48 99.9296 146.587 99.903 147.68C99.903 148.747 99.8763 149.813 99.823 150.88C99.7696 151.947 99.6896 153.027 99.583 154.12C99.5296 154.413 99.4496 154.64 99.343 154.8C99.2363 154.933 99.023 155.08 98.703 155.24C98.3296 155.427 97.8363 155.587 97.223 155.72C96.6096 155.827 95.943 155.92 95.223 156C94.5296 156.107 93.8763 156.173 93.263 156.2C92.6496 156.253 92.143 156.28 91.743 156.28ZM92.063 153.2C92.2763 153.2 92.5163 153.187 92.783 153.16C93.0496 153.107 93.3163 153.04 93.583 152.96C93.8496 152.88 94.063 152.773 94.223 152.64C94.4096 152.507 94.5163 152.333 94.543 152.12C94.623 151.48 94.6896 150.773 94.743 150C94.7963 149.227 94.7963 148.48 94.743 147.76C94.743 147.413 94.6096 147.173 94.343 147.04C94.0763 146.853 93.6896 146.747 93.183 146.72C92.703 146.667 92.303 146.64 91.983 146.64C91.743 146.64 91.4363 146.693 91.063 146.8C90.7163 146.88 90.383 147.04 90.063 147.28C89.743 147.52 89.4763 147.88 89.263 148.36C89.0763 148.84 88.983 149.453 88.983 150.2C88.983 150.787 89.103 151.307 89.343 151.76C89.583 152.213 89.9296 152.573 90.383 152.84C90.8363 153.08 91.3963 153.2 92.063 153.2ZM102.612 146.32C102.639 144.507 102.892 142.893 103.372 141.48C103.879 140.04 104.759 138.92 106.012 138.12C107.292 137.293 109.079 136.88 111.372 136.88C112.439 136.88 113.479 136.973 114.492 137.16C115.532 137.32 116.452 137.547 117.252 137.84C117.892 138.08 118.279 138.347 118.412 138.64C118.545 138.933 118.652 139.427 118.732 140.12C118.999 142.28 119.132 144.613 119.132 147.12C119.159 149.627 119.012 152.067 118.692 154.44C118.399 156.76 117.532 158.453 116.092 159.52C114.652 160.613 112.679 161.16 110.172 161.16C109.185 161.16 108.092 161.013 106.892 160.72C105.719 160.453 104.612 159.933 103.572 159.16C103.465 159.08 103.372 158.947 103.292 158.76C103.212 158.573 103.225 158.387 103.332 158.2C103.465 158.013 103.652 157.693 103.892 157.24C104.159 156.787 104.345 156.467 104.452 156.28C104.639 155.96 104.785 155.787 104.892 155.76C105.025 155.733 105.225 155.813 105.492 156C105.785 156.213 106.185 156.427 106.692 156.64C107.225 156.853 107.772 157.04 108.332 157.2C108.919 157.36 109.399 157.44 109.772 157.44C110.199 157.44 110.665 157.373 111.172 157.24C111.679 157.107 112.145 156.867 112.572 156.52C112.999 156.173 113.265 155.653 113.372 154.96C113.372 154.933 113.372 154.907 113.372 154.88C113.399 154.853 113.412 154.827 113.412 154.8C113.439 154.613 113.412 154.467 113.332 154.36C113.252 154.227 113.079 154.187 112.812 154.24C112.572 154.293 112.252 154.347 111.852 154.4C111.479 154.427 111.105 154.44 110.732 154.44C109.292 154.44 107.959 154.147 106.732 153.56C105.505 152.973 104.505 152.08 103.732 150.88C102.985 149.653 102.612 148.133 102.612 146.32ZM107.972 145.48C107.972 146.467 108.065 147.36 108.252 148.16C108.439 148.96 108.759 149.587 109.212 150.04C109.665 150.467 110.305 150.68 111.132 150.68C111.505 150.68 111.865 150.667 112.212 150.64C112.585 150.587 112.905 150.493 113.172 150.36C113.519 150.227 113.705 149.96 113.732 149.56C113.785 149.027 113.812 148.387 113.812 147.64C113.812 146.867 113.799 146.08 113.772 145.28C113.772 144.453 113.759 143.72 113.732 143.08C113.705 142.413 113.679 141.907 113.652 141.56C113.652 141.4 113.612 141.227 113.532 141.04C113.479 140.827 113.385 140.693 113.252 140.64C113.012 140.507 112.719 140.413 112.372 140.36C112.052 140.28 111.652 140.24 111.172 140.24C110.372 140.24 109.732 140.467 109.252 140.92C108.799 141.373 108.479 142 108.292 142.8C108.105 143.573 107.999 144.467 107.972 145.48ZM121.831 146.52C121.831 145.267 121.964 144.067 122.231 142.92C122.497 141.773 122.937 140.733 123.551 139.8C124.191 138.867 125.057 138.133 126.151 137.6C127.271 137.067 128.671 136.8 130.351 136.8C132.111 136.8 133.511 137.053 134.551 137.56C135.591 138.04 136.377 138.693 136.911 139.52C137.444 140.347 137.791 141.253 137.951 142.24C138.137 143.2 138.231 144.16 138.231 145.12C138.231 146.24 138.097 146.987 137.831 147.36C137.591 147.707 137.204 147.88 136.671 147.88H127.391C127.231 147.88 127.124 147.92 127.071 148C127.044 148.053 127.031 148.173 127.031 148.36C127.031 149.16 127.204 149.893 127.551 150.56C127.924 151.2 128.457 151.707 129.151 152.08C129.844 152.453 130.657 152.64 131.591 152.64C132.471 152.64 133.311 152.507 134.111 152.24C134.911 151.947 135.497 151.693 135.871 151.48C136.191 151.293 136.444 151.187 136.631 151.16C136.817 151.107 137.017 151.293 137.231 151.72L138.071 153.4C138.231 153.693 138.271 153.907 138.191 154.04C138.111 154.147 137.937 154.293 137.671 154.48C136.737 155.12 135.617 155.587 134.311 155.88C133.004 156.173 131.697 156.32 130.391 156.32C128.657 156.32 127.231 156.067 126.111 155.56C124.991 155.053 124.124 154.347 123.511 153.44C122.897 152.533 122.457 151.493 122.191 150.32C121.951 149.12 121.831 147.853 121.831 146.52ZM133.071 144.28C133.071 143.533 132.977 142.893 132.791 142.36C132.604 141.827 132.297 141.413 131.871 141.12C131.471 140.827 130.924 140.68 130.231 140.68C129.671 140.68 129.191 140.787 128.791 141C128.417 141.213 128.111 141.493 127.871 141.84C127.631 142.187 127.444 142.573 127.311 143C127.177 143.4 127.084 143.787 127.031 144.16C127.004 144.587 127.004 144.853 127.031 144.96C127.057 145.04 127.164 145.08 127.351 145.08H132.591C132.831 145.08 132.977 145.04 133.031 144.96C133.084 144.88 133.097 144.653 133.071 144.28Z" fill="white"/>
</svg>
