<svg width="200" height="200" viewBox="0 0 200 200" fill="none" xmlns="http://www.w3.org/2000/svg">
<rect width="200" height="200" fill="#BC77D9"/>
<path d="M60.4034 65.52C60.4034 65.84 60.2168 66 59.8434 66H55.6834C55.3101 66 55.1234 65.84 55.1234 65.52V39.6C55.1234 39.2533 55.3101 39.08 55.6834 39.08H59.8434C60.2168 39.08 60.4034 39.2533 60.4034 39.6V65.52ZM65.4322 66C65.0589 66 64.8722 65.8267 64.8722 65.48C64.8722 62.7067 64.8722 59.9467 64.8722 57.2C64.8722 54.4267 64.8722 51.6533 64.8722 48.88C64.8722 48.6133 64.9655 48.4133 65.1522 48.28C65.3389 48.1467 65.6989 47.9867 66.2322 47.8C66.5789 47.6933 67.0855 47.5733 67.7522 47.44C68.4455 47.28 69.1922 47.1333 69.9922 47C70.7922 46.8667 71.5122 46.8 72.1522 46.8C74.3655 46.8 76.0589 47.2267 77.2322 48.08C78.4322 48.9067 79.2455 50.0133 79.6722 51.4C80.1255 52.76 80.3522 54.2667 80.3522 55.92C80.3522 56.9067 80.3255 57.9467 80.2722 59.04C80.2455 60.1067 80.1922 61.16 80.1122 62.2C80.0322 63.24 79.9522 64.1867 79.8722 65.04C79.8189 65.52 79.7389 65.8 79.6322 65.88C79.5255 65.96 79.2855 66 78.9122 66H75.6322C75.2589 66 75.0055 65.96 74.8722 65.88C74.7655 65.7733 74.7255 65.56 74.7522 65.24C74.7522 65.1333 74.7655 64.72 74.7922 64C74.8455 63.2533 74.8989 62.3733 74.9522 61.36C75.0055 60.3467 75.0455 59.3467 75.0722 58.36C75.1255 57.3733 75.1522 56.5733 75.1522 55.96C75.1522 54.5733 75.0322 53.52 74.7922 52.8C74.5522 52.0533 74.2055 51.5467 73.7522 51.28C73.2989 51.0133 72.7255 50.88 72.0322 50.88C71.7655 50.88 71.5122 50.8933 71.2722 50.92C71.0322 50.9467 70.8189 50.9867 70.6322 51.04C70.3922 51.0667 70.2189 51.1733 70.1122 51.36C70.0055 51.5467 69.9522 51.8533 69.9522 52.28C69.9522 53.4 69.9522 54.6933 69.9522 56.16C69.9522 57.6267 69.9522 59.1467 69.9522 60.72C69.9522 62.2933 69.9522 63.88 69.9522 65.48C69.9522 65.8267 69.8055 66 69.5122 66H65.4322ZM83.3822 61.36C83.4622 61.0667 83.5822 60.9467 83.7422 61C83.9289 61.0267 84.1022 61.0933 84.2622 61.2C84.7155 61.4133 85.2355 61.6133 85.8222 61.8C86.4355 61.96 87.0622 62.0933 87.7022 62.2C88.3422 62.28 88.9155 62.32 89.4222 62.32C89.9555 62.32 90.4355 62.2667 90.8622 62.16C91.3155 62.0267 91.6755 61.8267 91.9422 61.56C92.2089 61.2933 92.3422 60.9467 92.3422 60.52C92.3689 59.9333 92.1022 59.4933 91.5422 59.2C91.0089 58.88 90.0622 58.5733 88.7022 58.28C87.8489 58.0933 86.9689 57.8267 86.0622 57.48C85.1822 57.1067 84.4489 56.56 83.8622 55.84C83.2755 55.0933 82.9822 54.12 82.9822 52.92C82.9822 51.56 83.3289 50.4533 84.0222 49.6C84.7155 48.72 85.6089 48.0533 86.7022 47.6C87.8222 47.1467 89.0089 46.92 90.2622 46.92C91.2489 46.92 92.3289 47.0667 93.5022 47.36C94.6755 47.6533 95.6489 48.0267 96.4222 48.48C96.6622 48.6133 96.7822 48.7333 96.7822 48.84C96.8089 48.9467 96.7955 49.0933 96.7422 49.28L95.7822 51.88C95.7022 52.2 95.4489 52.28 95.0222 52.12C94.4355 51.7733 93.7155 51.4533 92.8622 51.16C92.0089 50.8667 91.1422 50.72 90.2622 50.72C89.6489 50.72 89.1022 50.88 88.6222 51.2C88.1689 51.4933 87.9422 51.88 87.9422 52.36C87.9422 52.9467 88.2089 53.3733 88.7422 53.64C89.2755 53.9067 90.0489 54.1467 91.0622 54.36C91.8089 54.52 92.5289 54.7067 93.2222 54.92C93.9155 55.1067 94.5555 55.4 95.1422 55.8C95.7289 56.1733 96.1955 56.6933 96.5422 57.36C96.8889 58 97.0622 58.84 97.0622 59.88C97.0622 61.08 96.8355 62.0933 96.3822 62.92C95.9289 63.72 95.3155 64.36 94.5422 64.84C93.7955 65.32 92.9689 65.6667 92.0622 65.88C91.1822 66.0933 90.3022 66.2 89.4222 66.2C88.9422 66.2 88.3155 66.1467 87.5422 66.04C86.7689 65.9333 85.9822 65.76 85.1822 65.52C84.3822 65.28 83.7022 64.96 83.1422 64.56C83.0355 64.5067 82.9422 64.44 82.8622 64.36C82.8089 64.2533 82.7955 64.12 82.8222 63.96L83.3822 61.36ZM107.988 66.16C105.802 66.16 104.108 65.7467 102.908 64.92C101.735 64.0933 100.922 63 100.468 61.64C100.015 60.28 99.7884 58.7733 99.7884 57.12C99.7884 56.1333 99.8018 55.1067 99.8284 54.04C99.8818 52.9733 99.9484 51.9333 100.028 50.92C100.108 49.88 100.202 48.9333 100.308 48.08C100.362 47.6 100.442 47.32 100.548 47.24C100.655 47.16 100.895 47.12 101.268 47.12H104.508C104.882 47.12 105.148 47.1333 105.308 47.16C105.468 47.16 105.508 47.4 105.428 47.88C105.428 47.9867 105.402 48.3733 105.348 49.04C105.322 49.7067 105.282 50.5333 105.228 51.52C105.175 52.48 105.135 53.48 105.108 54.52C105.082 55.5333 105.068 56.4533 105.068 57.28C105.068 58.96 105.295 60.2 105.748 61C106.228 61.7733 107.015 62.16 108.108 62.16C108.242 62.16 108.428 62.16 108.668 62.16C108.908 62.1333 109.148 62.0933 109.388 62.04C109.628 61.9867 109.828 61.9067 109.988 61.8C110.148 61.6933 110.228 61.5467 110.228 61.36V47.8C110.228 47.6667 110.242 47.52 110.268 47.36C110.295 47.2 110.388 47.12 110.548 47.12H114.708C114.815 47.12 114.935 47.1467 115.068 47.2C115.202 47.2533 115.268 47.4 115.268 47.64V64C115.268 64.32 115.175 64.5467 114.988 64.68C114.802 64.8133 114.415 64.9867 113.828 65.2C113.535 65.3067 113.042 65.44 112.348 65.6C111.682 65.7333 110.948 65.8667 110.148 66C109.375 66.1067 108.655 66.16 107.988 66.16ZM125.373 46.96C127.399 46.96 129.066 47.2533 130.373 47.84C130.639 47.9467 130.786 48.0533 130.813 48.16C130.866 48.2667 130.879 48.4133 130.853 48.6L130.133 51.08C130.079 51.2933 130.013 51.4267 129.933 51.48C129.853 51.5067 129.693 51.48 129.453 51.4C128.999 51.2667 128.493 51.1733 127.933 51.12C127.373 51.04 126.946 51 126.653 51C126.226 51 125.866 51.0267 125.573 51.08C125.279 51.1067 125.053 51.1467 124.893 51.2C124.733 51.2533 124.599 51.3067 124.493 51.36C124.386 51.44 124.266 51.5333 124.133 51.64C124.026 51.7467 123.973 51.9867 123.973 52.36V65.16C123.973 65.5333 123.919 65.7733 123.813 65.88C123.706 65.96 123.519 66 123.253 66H119.373C119.239 66 119.119 65.96 119.013 65.88C118.906 65.8 118.853 65.6133 118.853 65.32V49.32C118.853 48.8933 118.893 48.6267 118.973 48.52C119.079 48.3867 119.279 48.2533 119.573 48.12C120.373 47.7467 121.319 47.4667 122.413 47.28C123.533 47.0667 124.519 46.96 125.373 46.96ZM131.928 56.52C131.928 55.2667 132.062 54.0667 132.328 52.92C132.595 51.7733 133.035 50.7333 133.648 49.8C134.288 48.8667 135.155 48.1333 136.248 47.6C137.368 47.0667 138.768 46.8 140.448 46.8C142.208 46.8 143.608 47.0533 144.648 47.56C145.688 48.04 146.475 48.6933 147.008 49.52C147.542 50.3467 147.888 51.2533 148.048 52.24C148.235 53.2 148.328 54.16 148.328 55.12C148.328 56.24 148.195 56.9867 147.928 57.36C147.688 57.7067 147.302 57.88 146.768 57.88H137.488C137.328 57.88 137.222 57.92 137.168 58C137.142 58.0533 137.128 58.1733 137.128 58.36C137.128 59.16 137.302 59.8933 137.648 60.56C138.022 61.2 138.555 61.7067 139.248 62.08C139.942 62.4533 140.755 62.64 141.688 62.64C142.568 62.64 143.408 62.5067 144.208 62.24C145.008 61.9467 145.595 61.6933 145.968 61.48C146.288 61.2933 146.542 61.1867 146.728 61.16C146.915 61.1067 147.115 61.2933 147.328 61.72L148.168 63.4C148.328 63.6933 148.368 63.9067 148.288 64.04C148.208 64.1467 148.035 64.2933 147.768 64.48C146.835 65.12 145.715 65.5867 144.408 65.88C143.102 66.1733 141.795 66.32 140.488 66.32C138.755 66.32 137.328 66.0667 136.208 65.56C135.088 65.0533 134.222 64.3467 133.608 63.44C132.995 62.5333 132.555 61.4933 132.288 60.32C132.048 59.12 131.928 57.8533 131.928 56.52ZM143.168 54.28C143.168 53.5333 143.075 52.8933 142.888 52.36C142.702 51.8267 142.395 51.4133 141.968 51.12C141.568 50.8267 141.022 50.68 140.328 50.68C139.768 50.68 139.288 50.7867 138.888 51C138.515 51.2133 138.208 51.4933 137.968 51.84C137.728 52.1867 137.542 52.5733 137.408 53C137.275 53.4 137.182 53.7867 137.128 54.16C137.102 54.5867 137.102 54.8533 137.128 54.96C137.155 55.04 137.262 55.08 137.448 55.08H142.688C142.928 55.08 143.075 55.04 143.128 54.96C143.182 54.88 143.195 54.6533 143.168 54.28ZM43.6131 111C43.2398 111 43.0531 110.84 43.0531 110.52V84.6C43.0531 84.2533 43.2398 84.08 43.6131 84.08H47.6531C47.9198 84.08 48.0931 84.1333 48.1731 84.24C48.2798 84.32 48.3331 84.4933 48.3331 84.76V106.56C48.3331 106.72 48.3465 106.827 48.3731 106.88C48.3998 106.907 48.4931 106.92 48.6531 106.92H56.8131C57.1865 106.92 57.3998 106.96 57.4531 107.04C57.5331 107.12 57.5731 107.333 57.5731 107.68V110.24C57.5731 110.613 57.5331 110.84 57.4531 110.92C57.3731 110.973 57.1598 111 56.8131 111H43.6131ZM67.1922 111.28C65.8322 111.28 64.5522 111.133 63.3522 110.84C62.1789 110.52 61.2189 109.92 60.4722 109.04C59.7522 108.16 59.3922 106.88 59.3922 105.2C59.3922 103.813 59.6455 102.68 60.1522 101.8C60.6855 100.893 61.3522 100.2 62.1522 99.72C62.9789 99.24 63.8322 98.92 64.7122 98.76C65.5922 98.5733 66.3789 98.48 67.0722 98.48C67.6322 98.48 68.1655 98.5067 68.6722 98.56C69.2055 98.5867 69.6989 98.64 70.1522 98.72C70.3922 98.8 70.5122 98.6267 70.5122 98.2C70.5122 97.2133 70.2055 96.52 69.5922 96.12C69.0055 95.72 68.1789 95.52 67.1122 95.52C66.0989 95.52 65.1255 95.7067 64.1922 96.08C63.2855 96.4533 62.5122 96.8 61.8722 97.12C61.5789 97.28 61.3789 97.3333 61.2722 97.28C61.1922 97.2267 61.1255 97.0533 61.0722 96.76L60.7122 94.52C60.6589 94.1733 60.6589 93.9467 60.7122 93.84C60.7655 93.7333 60.9122 93.6 61.1522 93.44C61.8455 92.9867 62.7255 92.6267 63.7922 92.36C64.8589 92.0667 65.9922 91.92 67.1922 91.92C69.0055 91.92 70.4589 92.1333 71.5522 92.56C72.6455 92.96 73.4589 93.5067 73.9922 94.2C74.5522 94.8933 74.9122 95.6933 75.0722 96.6C75.2589 97.48 75.3522 98.4 75.3522 99.36C75.3789 100.48 75.3789 101.587 75.3522 102.68C75.3522 103.747 75.3255 104.813 75.2722 105.88C75.2189 106.947 75.1389 108.027 75.0322 109.12C74.9789 109.413 74.8989 109.64 74.7922 109.8C74.6855 109.933 74.4722 110.08 74.1522 110.24C73.7789 110.427 73.2855 110.587 72.6722 110.72C72.0589 110.827 71.3922 110.92 70.6722 111C69.9789 111.107 69.3255 111.173 68.7122 111.2C68.0989 111.253 67.5922 111.28 67.1922 111.28ZM67.5122 108.2C67.7255 108.2 67.9655 108.187 68.2322 108.16C68.4989 108.107 68.7655 108.04 69.0322 107.96C69.2989 107.88 69.5122 107.773 69.6722 107.64C69.8589 107.507 69.9655 107.333 69.9922 107.12C70.0722 106.48 70.1389 105.773 70.1922 105C70.2455 104.227 70.2455 103.48 70.1922 102.76C70.1922 102.413 70.0589 102.173 69.7922 102.04C69.5255 101.853 69.1389 101.747 68.6322 101.72C68.1522 101.667 67.7522 101.64 67.4322 101.64C67.1922 101.64 66.8855 101.693 66.5122 101.8C66.1655 101.88 65.8322 102.04 65.5122 102.28C65.1922 102.52 64.9255 102.88 64.7122 103.36C64.5255 103.84 64.4322 104.453 64.4322 105.2C64.4322 105.787 64.5522 106.307 64.7922 106.76C65.0322 107.213 65.3789 107.573 65.8322 107.84C66.2855 108.08 66.8455 108.2 67.5122 108.2ZM79.2213 111C78.8479 111 78.6613 110.827 78.6613 110.48C78.6613 107.707 78.6613 104.947 78.6613 102.2C78.6613 99.4267 78.6613 96.6533 78.6613 93.88C78.6613 93.6133 78.7546 93.4133 78.9413 93.28C79.1279 93.1467 79.4879 92.9867 80.0213 92.8C80.3679 92.6933 80.8746 92.5733 81.5413 92.44C82.2346 92.28 82.9813 92.1333 83.7813 92C84.5813 91.8667 85.3013 91.8 85.9413 91.8C88.1546 91.8 89.8479 92.2267 91.0213 93.08C92.2213 93.9067 93.0346 95.0133 93.4613 96.4C93.9146 97.76 94.1413 99.2667 94.1413 100.92C94.1413 101.907 94.1146 102.947 94.0613 104.04C94.0346 105.107 93.9813 106.16 93.9013 107.2C93.8213 108.24 93.7413 109.187 93.6613 110.04C93.6079 110.52 93.5279 110.8 93.4213 110.88C93.3146 110.96 93.0746 111 92.7013 111H89.4213C89.0479 111 88.7946 110.96 88.6613 110.88C88.5546 110.773 88.5146 110.56 88.5412 110.24C88.5412 110.133 88.5546 109.72 88.5813 109C88.6346 108.253 88.6879 107.373 88.7413 106.36C88.7946 105.347 88.8346 104.347 88.8613 103.36C88.9146 102.373 88.9413 101.573 88.9413 100.96C88.9413 99.5733 88.8213 98.52 88.5813 97.8C88.3413 97.0533 87.9946 96.5467 87.5413 96.28C87.0879 96.0133 86.5146 95.88 85.8213 95.88C85.5546 95.88 85.3013 95.8933 85.0613 95.92C84.8213 95.9467 84.6079 95.9867 84.4213 96.04C84.1813 96.0667 84.0079 96.1733 83.9013 96.36C83.7946 96.5467 83.7413 96.8533 83.7413 97.28C83.7413 98.4 83.7413 99.6933 83.7413 101.16C83.7413 102.627 83.7413 104.147 83.7413 105.72C83.7413 107.293 83.7413 108.88 83.7413 110.48C83.7413 110.827 83.5946 111 83.3013 111H79.2213ZM97.0113 101.84C97.0646 99.8133 97.3313 98.16 97.8113 96.88C98.3179 95.6 98.9579 94.6 99.7313 93.88C100.531 93.16 101.411 92.6667 102.371 92.4C103.331 92.1333 104.305 92 105.291 92C105.665 92 106.091 92.04 106.571 92.12C107.051 92.2 107.425 92.2667 107.691 92.32C107.878 92.3733 108.025 92.3867 108.131 92.36C108.265 92.3333 108.331 92.2133 108.331 92C108.331 91.52 108.318 91.0133 108.291 90.48C108.291 89.9467 108.265 89.4133 108.211 88.88C108.185 88.32 108.145 87.7733 108.091 87.24C108.038 86.68 107.985 86.16 107.931 85.68C107.905 85.1733 107.865 84.72 107.811 84.32C107.758 83.8667 107.771 83.6 107.851 83.52C107.958 83.44 108.131 83.4 108.371 83.4H112.211C112.398 83.4 112.545 83.4133 112.651 83.44C112.785 83.4667 112.865 83.5733 112.891 83.76C112.998 84.8533 113.091 86.1333 113.171 87.6C113.251 89.04 113.318 90.6 113.371 92.28C113.425 93.9333 113.451 95.6 113.451 97.28C113.478 98.96 113.465 100.573 113.411 102.12C113.385 103.667 113.318 105.04 113.211 106.24C113.131 107.44 113.011 108.36 112.851 109C112.771 109.32 112.651 109.56 112.491 109.72C112.358 109.88 111.998 110.067 111.411 110.28C110.905 110.493 110.091 110.72 108.971 110.96C107.851 111.173 106.625 111.28 105.291 111.28C104.251 111.253 103.278 111.133 102.371 110.92C101.491 110.68 100.718 110.307 100.051 109.8C99.0379 109.08 98.2779 108.067 97.7713 106.76C97.2646 105.427 97.0113 103.787 97.0113 101.84ZM102.251 101.88C102.225 103.72 102.438 105.027 102.891 105.8C103.371 106.547 103.971 106.973 104.691 107.08C105.011 107.187 105.345 107.253 105.691 107.28C106.065 107.28 106.425 107.253 106.771 107.2C107.145 107.12 107.465 107.027 107.731 106.92C107.811 106.867 107.865 106.813 107.891 106.76C107.945 106.68 107.971 106.573 107.971 106.44C107.998 105.853 108.025 105.24 108.051 104.6C108.105 103.96 108.131 103.32 108.131 102.68C108.158 102.04 108.185 101.4 108.211 100.76C108.238 100.12 108.251 99.5067 108.251 98.92C108.278 98.3333 108.278 97.7867 108.251 97.28C108.251 97.0933 108.225 96.9733 108.171 96.92C108.145 96.84 108.078 96.7867 107.971 96.76C107.625 96.6267 107.211 96.52 106.731 96.44C106.278 96.3333 105.891 96.28 105.571 96.28C105.251 96.28 104.891 96.3467 104.491 96.48C104.118 96.6133 103.758 96.8667 103.411 97.24C103.091 97.6133 102.825 98.1733 102.611 98.92C102.398 99.64 102.278 100.627 102.251 101.88ZM122.182 86.96C122.182 87.76 122.008 88.3733 121.662 88.8C121.315 89.2 120.595 89.4 119.502 89.4C118.462 89.4 117.742 89.2 117.342 88.8C116.968 88.3733 116.782 87.76 116.782 86.96C116.782 86.2667 116.968 85.7067 117.342 85.28C117.742 84.8267 118.462 84.6 119.502 84.6C120.648 84.6 121.382 84.8267 121.702 85.28C122.022 85.7067 122.182 86.2667 122.182 86.96ZM122.062 110.52C122.062 110.84 121.888 111 121.542 111H117.422C117.102 111 116.942 110.84 116.942 110.52V92.6C116.942 92.28 117.102 92.12 117.422 92.12H121.542C121.888 92.12 122.062 92.28 122.062 92.6V110.52ZM126.018 111C125.645 111 125.458 110.827 125.458 110.48C125.458 107.707 125.458 104.947 125.458 102.2C125.458 99.4267 125.458 96.6533 125.458 93.88C125.458 93.6133 125.551 93.4133 125.738 93.28C125.925 93.1467 126.285 92.9867 126.818 92.8C127.165 92.6933 127.671 92.5733 128.338 92.44C129.031 92.28 129.778 92.1333 130.578 92C131.378 91.8667 132.098 91.8 132.738 91.8C134.951 91.8 136.645 92.2267 137.818 93.08C139.018 93.9067 139.831 95.0133 140.258 96.4C140.711 97.76 140.938 99.2667 140.938 100.92C140.938 101.907 140.911 102.947 140.858 104.04C140.831 105.107 140.778 106.16 140.698 107.2C140.618 108.24 140.538 109.187 140.458 110.04C140.405 110.52 140.325 110.8 140.218 110.88C140.111 110.96 139.871 111 139.498 111H136.218C135.845 111 135.591 110.96 135.458 110.88C135.351 110.773 135.311 110.56 135.338 110.24C135.338 110.133 135.351 109.72 135.378 109C135.431 108.253 135.485 107.373 135.538 106.36C135.591 105.347 135.631 104.347 135.658 103.36C135.711 102.373 135.738 101.573 135.738 100.96C135.738 99.5733 135.618 98.52 135.378 97.8C135.138 97.0533 134.791 96.5467 134.338 96.28C133.885 96.0133 133.311 95.88 132.618 95.88C132.351 95.88 132.098 95.8933 131.858 95.92C131.618 95.9467 131.405 95.9867 131.218 96.04C130.978 96.0667 130.805 96.1733 130.698 96.36C130.591 96.5467 130.538 96.8533 130.538 97.28C130.538 98.4 130.538 99.6933 130.538 101.16C130.538 102.627 130.538 104.147 130.538 105.72C130.538 107.293 130.538 108.88 130.538 110.48C130.538 110.827 130.391 111 130.098 111H126.018ZM143.608 101.32C143.635 99.5067 143.888 97.8933 144.368 96.48C144.875 95.04 145.755 93.92 147.008 93.12C148.288 92.2933 150.075 91.88 152.368 91.88C153.435 91.88 154.475 91.9733 155.488 92.16C156.528 92.32 157.448 92.5467 158.248 92.84C158.888 93.08 159.275 93.3467 159.408 93.64C159.541 93.9333 159.648 94.4267 159.728 95.12C159.995 97.28 160.128 99.6133 160.128 102.12C160.155 104.627 160.008 107.067 159.688 109.44C159.395 111.76 158.528 113.453 157.088 114.52C155.648 115.613 153.675 116.16 151.168 116.16C150.181 116.16 149.088 116.013 147.888 115.72C146.715 115.453 145.608 114.933 144.568 114.16C144.461 114.08 144.368 113.947 144.288 113.76C144.208 113.573 144.221 113.387 144.328 113.2C144.461 113.013 144.648 112.693 144.888 112.24C145.155 111.787 145.341 111.467 145.448 111.28C145.635 110.96 145.781 110.787 145.888 110.76C146.021 110.733 146.221 110.813 146.488 111C146.781 111.213 147.181 111.427 147.688 111.64C148.221 111.853 148.768 112.04 149.328 112.2C149.915 112.36 150.395 112.44 150.768 112.44C151.195 112.44 151.661 112.373 152.168 112.24C152.675 112.107 153.141 111.867 153.568 111.52C153.995 111.173 154.261 110.653 154.368 109.96C154.368 109.933 154.368 109.907 154.368 109.88C154.395 109.853 154.408 109.827 154.408 109.8C154.435 109.613 154.408 109.467 154.328 109.36C154.248 109.227 154.075 109.187 153.808 109.24C153.568 109.293 153.248 109.347 152.848 109.4C152.475 109.427 152.101 109.44 151.728 109.44C150.288 109.44 148.955 109.147 147.728 108.56C146.501 107.973 145.501 107.08 144.728 105.88C143.981 104.653 143.608 103.133 143.608 101.32ZM148.968 100.48C148.968 101.467 149.061 102.36 149.248 103.16C149.435 103.96 149.755 104.587 150.208 105.04C150.661 105.467 151.301 105.68 152.128 105.68C152.501 105.68 152.861 105.667 153.208 105.64C153.581 105.587 153.901 105.493 154.168 105.36C154.515 105.227 154.701 104.96 154.728 104.56C154.781 104.027 154.808 103.387 154.808 102.64C154.808 101.867 154.795 101.08 154.768 100.28C154.768 99.4533 154.755 98.72 154.728 98.08C154.701 97.4133 154.675 96.9067 154.648 96.56C154.648 96.4 154.608 96.2267 154.528 96.04C154.475 95.8267 154.381 95.6933 154.248 95.64C154.008 95.5067 153.715 95.4133 153.368 95.36C153.048 95.28 152.648 95.24 152.168 95.24C151.368 95.24 150.728 95.4667 150.248 95.92C149.795 96.3733 149.475 97 149.288 97.8C149.101 98.5733 148.995 99.4667 148.968 100.48ZM65.075 159.92C64.9683 158.96 64.875 157.467 64.795 155.44C64.7417 153.413 64.7283 150.813 64.755 147.64C64.755 146.733 64.7683 145.733 64.795 144.64C64.8217 143.52 64.8617 142.44 64.915 141.4C64.995 140.36 65.1017 139.547 65.235 138.96C65.2883 138.667 65.395 138.44 65.555 138.28C65.715 138.093 66.075 137.893 66.635 137.68C67.195 137.493 68.0217 137.293 69.115 137.08C70.235 136.867 71.475 136.76 72.835 136.76C75.4483 136.76 77.475 137.52 78.915 139.04C80.3817 140.533 81.115 142.893 81.115 146.12C81.115 147.453 80.995 148.653 80.755 149.72C80.5417 150.76 80.2083 151.68 79.755 152.48C79.3017 153.253 78.7683 153.893 78.155 154.4C77.5683 154.907 76.9017 155.293 76.155 155.56C75.675 155.773 75.115 155.933 74.475 156.04C73.835 156.173 73.195 156.24 72.555 156.24C71.915 156.267 71.3417 156.24 70.835 156.16C70.595 156.133 70.4083 156.107 70.275 156.08C70.1417 156.08 70.075 156.173 70.075 156.36C70.075 156.547 70.0617 156.84 70.035 157.24C70.035 157.64 70.0483 158.04 70.075 158.44C70.1017 158.84 70.115 159.147 70.115 159.36C70.1683 159.707 70.1817 159.947 70.155 160.08C70.155 160.24 69.955 160.32 69.555 160.32H65.755C65.5417 160.32 65.3683 160.293 65.235 160.24C65.1283 160.187 65.075 160.08 65.075 159.92ZM69.995 150.8C69.995 150.987 70.0217 151.12 70.075 151.2C70.1283 151.253 70.2217 151.293 70.355 151.32C70.7017 151.453 71.1017 151.56 71.555 151.64C72.0083 151.72 72.395 151.76 72.715 151.76C73.0617 151.76 73.4083 151.693 73.755 151.56C74.1283 151.427 74.475 151.173 74.795 150.8C75.1417 150.4 75.4083 149.827 75.595 149.08C75.8083 148.333 75.915 147.333 75.915 146.08C75.915 144.027 75.6217 142.613 75.035 141.84C74.4483 141.067 73.6883 140.68 72.755 140.68C72.3283 140.68 71.9017 140.72 71.475 140.8C71.0483 140.88 70.6883 140.973 70.395 141.08C70.3417 141.133 70.2883 141.2 70.235 141.28C70.1817 141.36 70.155 141.467 70.155 141.6C70.1283 142.16 70.1017 142.76 70.075 143.4C70.075 144.04 70.0617 144.693 70.035 145.36C70.035 146 70.0217 146.653 69.995 147.32C69.995 147.96 69.995 148.587 69.995 149.2C69.995 149.787 69.995 150.32 69.995 150.8ZM91.4891 156.28C90.1291 156.28 88.8491 156.133 87.6491 155.84C86.4757 155.52 85.5157 154.92 84.7691 154.04C84.0491 153.16 83.6891 151.88 83.6891 150.2C83.6891 148.813 83.9424 147.68 84.4491 146.8C84.9824 145.893 85.6491 145.2 86.4491 144.72C87.2757 144.24 88.1291 143.92 89.0091 143.76C89.8891 143.573 90.6757 143.48 91.3691 143.48C91.9291 143.48 92.4624 143.507 92.9691 143.56C93.5024 143.587 93.9957 143.64 94.4491 143.72C94.6891 143.8 94.8091 143.627 94.8091 143.2C94.8091 142.213 94.5024 141.52 93.8891 141.12C93.3024 140.72 92.4757 140.52 91.4091 140.52C90.3957 140.52 89.4224 140.707 88.4891 141.08C87.5824 141.453 86.8091 141.8 86.1691 142.12C85.8757 142.28 85.6757 142.333 85.5691 142.28C85.4891 142.227 85.4224 142.053 85.3691 141.76L85.0091 139.52C84.9557 139.173 84.9557 138.947 85.0091 138.84C85.0624 138.733 85.2091 138.6 85.4491 138.44C86.1424 137.987 87.0224 137.627 88.0891 137.36C89.1557 137.067 90.2891 136.92 91.4891 136.92C93.3024 136.92 94.7557 137.133 95.8491 137.56C96.9424 137.96 97.7557 138.507 98.2891 139.2C98.8491 139.893 99.2091 140.693 99.3691 141.6C99.5557 142.48 99.6491 143.4 99.6491 144.36C99.6757 145.48 99.6757 146.587 99.6491 147.68C99.6491 148.747 99.6224 149.813 99.5691 150.88C99.5157 151.947 99.4357 153.027 99.3291 154.12C99.2757 154.413 99.1957 154.64 99.0891 154.8C98.9824 154.933 98.7691 155.08 98.4491 155.24C98.0757 155.427 97.5824 155.587 96.9691 155.72C96.3557 155.827 95.6891 155.92 94.9691 156C94.2757 156.107 93.6224 156.173 93.0091 156.2C92.3957 156.253 91.8891 156.28 91.4891 156.28ZM91.8091 153.2C92.0224 153.2 92.2624 153.187 92.5291 153.16C92.7957 153.107 93.0624 153.04 93.3291 152.96C93.5957 152.88 93.8091 152.773 93.9691 152.64C94.1557 152.507 94.2624 152.333 94.2891 152.12C94.3691 151.48 94.4357 150.773 94.4891 150C94.5424 149.227 94.5424 148.48 94.4891 147.76C94.4891 147.413 94.3557 147.173 94.0891 147.04C93.8224 146.853 93.4357 146.747 92.9291 146.72C92.4491 146.667 92.0491 146.64 91.7291 146.64C91.4891 146.64 91.1824 146.693 90.8091 146.8C90.4624 146.88 90.1291 147.04 89.8091 147.28C89.4891 147.52 89.2224 147.88 89.0091 148.36C88.8224 148.84 88.7291 149.453 88.7291 150.2C88.7291 150.787 88.8491 151.307 89.0891 151.76C89.3291 152.213 89.6757 152.573 90.1291 152.84C90.5824 153.08 91.1424 153.2 91.8091 153.2ZM102.358 146.32C102.385 144.507 102.638 142.893 103.118 141.48C103.625 140.04 104.505 138.92 105.758 138.12C107.038 137.293 108.825 136.88 111.118 136.88C112.185 136.88 113.225 136.973 114.238 137.16C115.278 137.32 116.198 137.547 116.998 137.84C117.638 138.08 118.025 138.347 118.158 138.64C118.291 138.933 118.398 139.427 118.478 140.12C118.745 142.28 118.878 144.613 118.878 147.12C118.905 149.627 118.758 152.067 118.438 154.44C118.145 156.76 117.278 158.453 115.838 159.52C114.398 160.613 112.425 161.16 109.918 161.16C108.931 161.16 107.838 161.013 106.638 160.72C105.465 160.453 104.358 159.933 103.318 159.16C103.211 159.08 103.118 158.947 103.038 158.76C102.958 158.573 102.971 158.387 103.078 158.2C103.211 158.013 103.398 157.693 103.638 157.24C103.905 156.787 104.091 156.467 104.198 156.28C104.385 155.96 104.531 155.787 104.638 155.76C104.771 155.733 104.971 155.813 105.238 156C105.531 156.213 105.931 156.427 106.438 156.64C106.971 156.853 107.518 157.04 108.078 157.2C108.665 157.36 109.145 157.44 109.518 157.44C109.945 157.44 110.411 157.373 110.918 157.24C111.425 157.107 111.891 156.867 112.318 156.52C112.745 156.173 113.011 155.653 113.118 154.96C113.118 154.933 113.118 154.907 113.118 154.88C113.145 154.853 113.158 154.827 113.158 154.8C113.185 154.613 113.158 154.467 113.078 154.36C112.998 154.227 112.825 154.187 112.558 154.24C112.318 154.293 111.998 154.347 111.598 154.4C111.225 154.427 110.851 154.44 110.478 154.44C109.038 154.44 107.705 154.147 106.478 153.56C105.251 152.973 104.251 152.08 103.478 150.88C102.731 149.653 102.358 148.133 102.358 146.32ZM107.718 145.48C107.718 146.467 107.811 147.36 107.998 148.16C108.185 148.96 108.505 149.587 108.958 150.04C109.411 150.467 110.051 150.68 110.878 150.68C111.251 150.68 111.611 150.667 111.958 150.64C112.331 150.587 112.651 150.493 112.918 150.36C113.265 150.227 113.451 149.96 113.478 149.56C113.531 149.027 113.558 148.387 113.558 147.64C113.558 146.867 113.545 146.08 113.518 145.28C113.518 144.453 113.505 143.72 113.478 143.08C113.451 142.413 113.425 141.907 113.398 141.56C113.398 141.4 113.358 141.227 113.278 141.04C113.225 140.827 113.131 140.693 112.998 140.64C112.758 140.507 112.465 140.413 112.118 140.36C111.798 140.28 111.398 140.24 110.918 140.24C110.118 140.24 109.478 140.467 108.998 140.92C108.545 141.373 108.225 142 108.038 142.8C107.851 143.573 107.745 144.467 107.718 145.48ZM121.577 146.52C121.577 145.267 121.71 144.067 121.977 142.92C122.244 141.773 122.684 140.733 123.297 139.8C123.937 138.867 124.804 138.133 125.897 137.6C127.017 137.067 128.417 136.8 130.097 136.8C131.857 136.8 133.257 137.053 134.297 137.56C135.337 138.04 136.124 138.693 136.657 139.52C137.19 140.347 137.537 141.253 137.697 142.24C137.884 143.2 137.977 144.16 137.977 145.12C137.977 146.24 137.844 146.987 137.577 147.36C137.337 147.707 136.95 147.88 136.417 147.88H127.137C126.977 147.88 126.87 147.92 126.817 148C126.79 148.053 126.777 148.173 126.777 148.36C126.777 149.16 126.95 149.893 127.297 150.56C127.67 151.2 128.204 151.707 128.897 152.08C129.59 152.453 130.404 152.64 131.337 152.64C132.217 152.64 133.057 152.507 133.857 152.24C134.657 151.947 135.244 151.693 135.617 151.48C135.937 151.293 136.19 151.187 136.377 151.16C136.564 151.107 136.764 151.293 136.977 151.72L137.817 153.4C137.977 153.693 138.017 153.907 137.937 154.04C137.857 154.147 137.684 154.293 137.417 154.48C136.484 155.12 135.364 155.587 134.057 155.88C132.75 156.173 131.444 156.32 130.137 156.32C128.404 156.32 126.977 156.067 125.857 155.56C124.737 155.053 123.87 154.347 123.257 153.44C122.644 152.533 122.204 151.493 121.937 150.32C121.697 149.12 121.577 147.853 121.577 146.52ZM132.817 144.28C132.817 143.533 132.724 142.893 132.537 142.36C132.35 141.827 132.044 141.413 131.617 141.12C131.217 140.827 130.67 140.68 129.977 140.68C129.417 140.68 128.937 140.787 128.537 141C128.164 141.213 127.857 141.493 127.617 141.84C127.377 142.187 127.19 142.573 127.057 143C126.924 143.4 126.83 143.787 126.777 144.16C126.75 144.587 126.75 144.853 126.777 144.96C126.804 145.04 126.91 145.08 127.097 145.08H132.337C132.577 145.08 132.724 145.04 132.777 144.96C132.83 144.88 132.844 144.653 132.817 144.28Z" fill="white"/>
</svg>
