<svg width="200" height="200" viewBox="0 0 200 200" fill="none" xmlns="http://www.w3.org/2000/svg">
<rect width="200" height="200" fill="#6FCD6F"/>
<path d="M24.3683 65.52C24.3683 65.84 24.1816 66 23.8083 66H19.6483C19.2749 66 19.0883 65.84 19.0883 65.52V39.6C19.0883 39.2533 19.2749 39.08 19.6483 39.08H23.8083C24.1816 39.08 24.3683 39.2533 24.3683 39.6V65.52ZM29.397 66C29.0237 66 28.837 65.8267 28.837 65.48C28.837 62.7067 28.837 59.9467 28.837 57.2C28.837 54.4267 28.837 51.6533 28.837 48.88C28.837 48.6133 28.9304 48.4133 29.117 48.28C29.3037 48.1467 29.6637 47.9867 30.197 47.8C30.5437 47.6933 31.0504 47.5733 31.717 47.44C32.4104 47.28 33.157 47.1333 33.957 47C34.757 46.8667 35.477 46.8 36.117 46.8C38.3304 46.8 40.0237 47.2267 41.197 48.08C42.397 48.9067 43.2104 50.0133 43.637 51.4C44.0904 52.76 44.317 54.2667 44.317 55.92C44.317 56.9067 44.2904 57.9467 44.237 59.04C44.2104 60.1067 44.157 61.16 44.077 62.2C43.997 63.24 43.917 64.1867 43.837 65.04C43.7837 65.52 43.7037 65.8 43.597 65.88C43.4904 65.96 43.2504 66 42.877 66H39.597C39.2237 66 38.9704 65.96 38.837 65.88C38.7304 65.7733 38.6904 65.56 38.717 65.24C38.717 65.1333 38.7304 64.72 38.757 64C38.8104 63.2533 38.8637 62.3733 38.917 61.36C38.9704 60.3467 39.0104 59.3467 39.037 58.36C39.0904 57.3733 39.117 56.5733 39.117 55.96C39.117 54.5733 38.997 53.52 38.757 52.8C38.517 52.0533 38.1704 51.5467 37.717 51.28C37.2637 51.0133 36.6904 50.88 35.997 50.88C35.7304 50.88 35.477 50.8933 35.237 50.92C34.997 50.9467 34.7837 50.9867 34.597 51.04C34.357 51.0667 34.1837 51.1733 34.077 51.36C33.9704 51.5467 33.917 51.8533 33.917 52.28C33.917 53.4 33.917 54.6933 33.917 56.16C33.917 57.6267 33.917 59.1467 33.917 60.72C33.917 62.2933 33.917 63.88 33.917 65.48C33.917 65.8267 33.7704 66 33.477 66H29.397ZM54.987 66C53.1737 66 51.8137 65.6267 50.907 64.88C50.027 64.1067 49.4404 63.04 49.147 61.68C48.9337 60.56 48.8137 59.4133 48.787 58.24C48.787 57.0667 48.787 55.88 48.787 54.68C48.787 53.9067 48.787 53.2267 48.787 52.64C48.8137 52.0533 48.8404 51.4 48.867 50.68C48.867 50.4133 48.747 50.28 48.507 50.28H46.867C46.6537 50.28 46.507 50.2533 46.427 50.2C46.3737 50.1467 46.347 49.9867 46.347 49.72V47.72C46.347 47.4 46.3737 47.2267 46.427 47.2C46.507 47.1467 46.6937 47.12 46.987 47.12H48.627C48.8404 47.12 48.9604 47.0667 48.987 46.96C49.0137 46.8533 49.0404 46.68 49.067 46.44L49.227 43.44C49.227 43.12 49.387 42.96 49.707 42.96H53.707C53.8404 42.96 53.9737 43.0133 54.107 43.12C54.2404 43.2 54.2937 43.3067 54.267 43.44L54.067 46.44C54.0404 46.76 54.0404 46.96 54.067 47.04C54.1204 47.0933 54.227 47.12 54.387 47.12H57.747C58.0137 47.12 58.1737 47.16 58.227 47.24C58.2804 47.2933 58.307 47.48 58.307 47.8V49.68C58.307 49.9467 58.267 50.12 58.187 50.2C58.107 50.2533 57.9337 50.28 57.667 50.28H54.347C54.187 50.28 54.067 50.3333 53.987 50.44C53.9337 50.52 53.907 50.6533 53.907 50.84C53.8804 51.5333 53.8537 52.24 53.827 52.96C53.8004 53.6533 53.787 54.3733 53.787 55.12C53.787 56.0533 53.8004 57 53.827 57.96C53.8804 58.8933 54.0004 59.8 54.187 60.68C54.347 61.1867 54.5737 61.5467 54.867 61.76C55.1604 61.9733 55.547 62.08 56.027 62.08C56.347 62.08 56.6537 62.04 56.947 61.96C57.2404 61.8533 57.4937 61.7733 57.707 61.72C58.027 61.5333 58.227 61.48 58.307 61.56C58.387 61.6133 58.4804 61.7733 58.587 62.04L59.267 64.44C59.3737 64.6267 59.347 64.8 59.187 64.96C59.027 65.0933 58.707 65.2533 58.227 65.44C57.907 65.5467 57.5604 65.6533 57.187 65.76C56.8137 65.84 56.4404 65.9067 56.067 65.96C55.6937 65.9867 55.3337 66 54.987 66ZM60.6589 56.52C60.6589 55.2667 60.7922 54.0667 61.0589 52.92C61.3256 51.7733 61.7656 50.7333 62.3789 49.8C63.0189 48.8667 63.8856 48.1333 64.9789 47.6C66.0989 47.0667 67.4989 46.8 69.1789 46.8C70.9389 46.8 72.3389 47.0533 73.3789 47.56C74.4189 48.04 75.2056 48.6933 75.7389 49.52C76.2722 50.3467 76.6189 51.2533 76.7789 52.24C76.9656 53.2 77.0589 54.16 77.0589 55.12C77.0589 56.24 76.9256 56.9867 76.6589 57.36C76.4189 57.7067 76.0322 57.88 75.4989 57.88H66.2189C66.0589 57.88 65.9522 57.92 65.8989 58C65.8722 58.0533 65.8589 58.1733 65.8589 58.36C65.8589 59.16 66.0322 59.8933 66.3789 60.56C66.7522 61.2 67.2856 61.7067 67.9789 62.08C68.6722 62.4533 69.4856 62.64 70.4189 62.64C71.2989 62.64 72.1389 62.5067 72.9389 62.24C73.7389 61.9467 74.3256 61.6933 74.6989 61.48C75.0189 61.2933 75.2722 61.1867 75.4589 61.16C75.6456 61.1067 75.8456 61.2933 76.0589 61.72L76.8989 63.4C77.0589 63.6933 77.0989 63.9067 77.0189 64.04C76.9389 64.1467 76.7656 64.2933 76.4989 64.48C75.5656 65.12 74.4456 65.5867 73.1389 65.88C71.8322 66.1733 70.5256 66.32 69.2189 66.32C67.4856 66.32 66.0589 66.0667 64.9389 65.56C63.8189 65.0533 62.9522 64.3467 62.3389 63.44C61.7256 62.5333 61.2856 61.4933 61.0189 60.32C60.7789 59.12 60.6589 57.8533 60.6589 56.52ZM71.8989 54.28C71.8989 53.5333 71.8056 52.8933 71.6189 52.36C71.4322 51.8267 71.1256 51.4133 70.6989 51.12C70.2989 50.8267 69.7522 50.68 69.0589 50.68C68.4989 50.68 68.0189 50.7867 67.6189 51C67.2456 51.2133 66.9389 51.4933 66.6989 51.84C66.4589 52.1867 66.2722 52.5733 66.1389 53C66.0056 53.4 65.9122 53.7867 65.8589 54.16C65.8322 54.5867 65.8322 54.8533 65.8589 54.96C65.8856 55.04 65.9922 55.08 66.1789 55.08H71.4189C71.6589 55.08 71.8056 55.04 71.8589 54.96C71.9122 54.88 71.9256 54.6533 71.8989 54.28ZM86.447 46.96C88.4737 46.96 90.1404 47.2533 91.447 47.84C91.7137 47.9467 91.8604 48.0533 91.887 48.16C91.9404 48.2667 91.9537 48.4133 91.927 48.6L91.207 51.08C91.1537 51.2933 91.087 51.4267 91.007 51.48C90.927 51.5067 90.767 51.48 90.527 51.4C90.0737 51.2667 89.567 51.1733 89.007 51.12C88.447 51.04 88.0204 51 87.727 51C87.3004 51 86.9404 51.0267 86.647 51.08C86.3537 51.1067 86.127 51.1467 85.967 51.2C85.807 51.2533 85.6737 51.3067 85.567 51.36C85.4604 51.44 85.3404 51.5333 85.207 51.64C85.1004 51.7467 85.047 51.9867 85.047 52.36V65.16C85.047 65.5333 84.9937 65.7733 84.887 65.88C84.7804 65.96 84.5937 66 84.327 66H80.447C80.3137 66 80.1937 65.96 80.087 65.88C79.9804 65.8 79.927 65.6133 79.927 65.32V49.32C79.927 48.8933 79.967 48.6267 80.047 48.52C80.1537 48.3867 80.3537 48.2533 80.647 48.12C81.447 47.7467 82.3937 47.4667 83.487 47.28C84.607 47.0667 85.5937 46.96 86.447 46.96ZM100.923 66.28C99.5627 66.28 98.2827 66.1333 97.0827 65.84C95.9093 65.52 94.9493 64.92 94.2027 64.04C93.4827 63.16 93.1227 61.88 93.1227 60.2C93.1227 58.8133 93.376 57.68 93.8827 56.8C94.416 55.8933 95.0827 55.2 95.8827 54.72C96.7093 54.24 97.5627 53.92 98.4427 53.76C99.3227 53.5733 100.109 53.48 100.803 53.48C101.363 53.48 101.896 53.5067 102.403 53.56C102.936 53.5867 103.429 53.64 103.883 53.72C104.123 53.8 104.243 53.6267 104.243 53.2C104.243 52.2133 103.936 51.52 103.323 51.12C102.736 50.72 101.909 50.52 100.843 50.52C99.8293 50.52 98.856 50.7067 97.9227 51.08C97.016 51.4533 96.2427 51.8 95.6027 52.12C95.3093 52.28 95.1093 52.3333 95.0027 52.28C94.9227 52.2267 94.856 52.0533 94.8027 51.76L94.4427 49.52C94.3893 49.1733 94.3893 48.9467 94.4427 48.84C94.496 48.7333 94.6427 48.6 94.8827 48.44C95.576 47.9867 96.456 47.6267 97.5227 47.36C98.5893 47.0667 99.7227 46.92 100.923 46.92C102.736 46.92 104.189 47.1333 105.283 47.56C106.376 47.96 107.189 48.5067 107.723 49.2C108.283 49.8933 108.643 50.6933 108.803 51.6C108.989 52.48 109.083 53.4 109.083 54.36C109.109 55.48 109.109 56.5867 109.083 57.68C109.083 58.7467 109.056 59.8133 109.003 60.88C108.949 61.9467 108.869 63.0267 108.763 64.12C108.709 64.4133 108.629 64.64 108.523 64.8C108.416 64.9333 108.203 65.08 107.883 65.24C107.509 65.4267 107.016 65.5867 106.403 65.72C105.789 65.8267 105.123 65.92 104.403 66C103.709 66.1067 103.056 66.1733 102.443 66.2C101.829 66.2533 101.323 66.28 100.923 66.28ZM101.243 63.2C101.456 63.2 101.696 63.1867 101.963 63.16C102.229 63.1067 102.496 63.04 102.763 62.96C103.029 62.88 103.243 62.7733 103.403 62.64C103.589 62.5067 103.696 62.3333 103.723 62.12C103.803 61.48 103.869 60.7733 103.923 60C103.976 59.2267 103.976 58.48 103.923 57.76C103.923 57.4133 103.789 57.1733 103.523 57.04C103.256 56.8533 102.869 56.7467 102.363 56.72C101.883 56.6667 101.483 56.64 101.163 56.64C100.923 56.64 100.616 56.6933 100.243 56.8C99.896 56.88 99.5627 57.04 99.2427 57.28C98.9227 57.52 98.656 57.88 98.4427 58.36C98.256 58.84 98.1627 59.4533 98.1627 60.2C98.1627 60.7867 98.2827 61.3067 98.5227 61.76C98.7627 62.2133 99.1093 62.5733 99.5627 62.84C100.016 63.08 100.576 63.2 101.243 63.2ZM120.312 66.32C118.605 66.32 117.178 66.0667 116.032 65.56C114.912 65.0533 114.045 64.3467 113.432 63.44C112.818 62.5333 112.392 61.4933 112.152 60.32C111.912 59.1467 111.792 57.88 111.792 56.52C111.792 55.2667 111.912 54.0667 112.152 52.92C112.418 51.7733 112.858 50.7333 113.472 49.8C114.112 48.8667 114.978 48.1333 116.072 47.6C117.192 47.0667 118.592 46.8 120.272 46.8C121.445 46.8 122.458 46.92 123.312 47.16C124.192 47.4 124.965 47.8 125.632 48.36C125.818 48.5467 125.938 48.6933 125.992 48.8C126.072 48.88 126.112 49.0267 126.112 49.24V52.2C126.112 52.44 126.032 52.5733 125.872 52.6C125.738 52.6 125.605 52.5467 125.472 52.44C124.778 51.8267 124.045 51.4267 123.272 51.24C122.525 51.0533 121.752 50.96 120.952 50.96C120.258 50.96 119.645 51.12 119.112 51.44C118.605 51.7333 118.192 52.1467 117.872 52.68C117.552 53.2133 117.298 53.8267 117.112 54.52C116.952 55.1867 116.872 55.8667 116.872 56.56C116.872 57.7867 117.018 58.84 117.312 59.72C117.605 60.5733 118.032 61.24 118.592 61.72C119.152 62.1733 119.845 62.4 120.672 62.4C121.285 62.4 121.885 62.32 122.472 62.16C123.085 62 123.752 61.7467 124.472 61.4C124.925 61.1867 125.245 61.2933 125.432 61.72L126.392 63.96C126.498 64.1733 126.525 64.3467 126.472 64.48C126.445 64.5867 126.338 64.6933 126.152 64.8C125.458 65.3067 124.578 65.6933 123.512 65.96C122.445 66.2 121.378 66.32 120.312 66.32ZM136.276 66C134.463 66 133.103 65.6267 132.196 64.88C131.316 64.1067 130.729 63.04 130.436 61.68C130.223 60.56 130.103 59.4133 130.076 58.24C130.076 57.0667 130.076 55.88 130.076 54.68C130.076 53.9067 130.076 53.2267 130.076 52.64C130.103 52.0533 130.129 51.4 130.156 50.68C130.156 50.4133 130.036 50.28 129.796 50.28H128.156C127.943 50.28 127.796 50.2533 127.716 50.2C127.663 50.1467 127.636 49.9867 127.636 49.72V47.72C127.636 47.4 127.663 47.2267 127.716 47.2C127.796 47.1467 127.983 47.12 128.276 47.12H129.916C130.129 47.12 130.249 47.0667 130.276 46.96C130.303 46.8533 130.329 46.68 130.356 46.44L130.516 43.44C130.516 43.12 130.676 42.96 130.996 42.96H134.996C135.129 42.96 135.263 43.0133 135.396 43.12C135.529 43.2 135.583 43.3067 135.556 43.44L135.356 46.44C135.329 46.76 135.329 46.96 135.356 47.04C135.409 47.0933 135.516 47.12 135.676 47.12H139.036C139.303 47.12 139.463 47.16 139.516 47.24C139.569 47.2933 139.596 47.48 139.596 47.8V49.68C139.596 49.9467 139.556 50.12 139.476 50.2C139.396 50.2533 139.223 50.28 138.956 50.28H135.636C135.476 50.28 135.356 50.3333 135.276 50.44C135.223 50.52 135.196 50.6533 135.196 50.84C135.169 51.5333 135.143 52.24 135.116 52.96C135.089 53.6533 135.076 54.3733 135.076 55.12C135.076 56.0533 135.089 57 135.116 57.96C135.169 58.8933 135.289 59.8 135.476 60.68C135.636 61.1867 135.863 61.5467 136.156 61.76C136.449 61.9733 136.836 62.08 137.316 62.08C137.636 62.08 137.943 62.04 138.236 61.96C138.529 61.8533 138.783 61.7733 138.996 61.72C139.316 61.5333 139.516 61.48 139.596 61.56C139.676 61.6133 139.769 61.7733 139.876 62.04L140.556 64.44C140.663 64.6267 140.636 64.8 140.476 64.96C140.316 65.0933 139.996 65.2533 139.516 65.44C139.196 65.5467 138.849 65.6533 138.476 65.76C138.103 65.84 137.729 65.9067 137.356 65.96C136.983 65.9867 136.623 66 136.276 66ZM148.412 41.96C148.412 42.76 148.239 43.3733 147.892 43.8C147.545 44.2 146.825 44.4 145.732 44.4C144.692 44.4 143.972 44.2 143.572 43.8C143.199 43.3733 143.012 42.76 143.012 41.96C143.012 41.2667 143.199 40.7067 143.572 40.28C143.972 39.8267 144.692 39.6 145.732 39.6C146.879 39.6 147.612 39.8267 147.932 40.28C148.252 40.7067 148.412 41.2667 148.412 41.96ZM148.292 65.52C148.292 65.84 148.119 66 147.772 66H143.652C143.332 66 143.172 65.84 143.172 65.52V47.6C143.172 47.28 143.332 47.12 143.652 47.12H147.772C148.119 47.12 148.292 47.28 148.292 47.6V65.52ZM156.969 66C156.755 66 156.595 65.92 156.489 65.76C155.769 64.6667 155.142 63.48 154.609 62.2C154.102 60.92 153.622 59.6533 153.169 58.4C152.369 56.2667 151.755 54.3867 151.329 52.76C150.929 51.1333 150.609 49.64 150.369 48.28C150.235 47.5067 150.355 47.12 150.729 47.12H155.009C155.195 47.12 155.342 47.1867 155.449 47.32C155.555 47.4267 155.622 47.5467 155.649 47.68C155.729 48.4533 155.849 49.28 156.009 50.16C156.195 51.04 156.422 52.0533 156.689 53.2C156.982 54.5067 157.249 55.6 157.489 56.48C157.755 57.3333 157.995 58.12 158.209 58.84C158.289 59.08 158.382 59.1867 158.489 59.16C158.622 59.1333 158.729 59.0267 158.809 58.84C158.995 58.3333 159.182 57.72 159.369 57C159.555 56.28 159.782 55.3467 160.049 54.2C160.315 52.92 160.555 51.6667 160.769 50.44C161.009 49.1867 161.155 48.16 161.209 47.36C161.235 47.2267 161.315 47.16 161.449 47.16H166.009C166.169 47.16 166.235 47.2533 166.209 47.44C165.942 49.1467 165.582 50.9333 165.129 52.8C164.702 54.64 164.142 56.52 163.449 58.44C163.049 59.6133 162.582 60.8133 162.049 62.04C161.515 63.24 160.889 64.4933 160.169 65.8C160.089 65.96 159.969 66.04 159.809 66.04L156.969 66ZM167.964 56.52C167.964 55.2667 168.097 54.0667 168.364 52.92C168.63 51.7733 169.07 50.7333 169.684 49.8C170.324 48.8667 171.19 48.1333 172.284 47.6C173.404 47.0667 174.804 46.8 176.484 46.8C178.244 46.8 179.644 47.0533 180.684 47.56C181.724 48.04 182.51 48.6933 183.044 49.52C183.577 50.3467 183.924 51.2533 184.084 52.24C184.27 53.2 184.364 54.16 184.364 55.12C184.364 56.24 184.23 56.9867 183.964 57.36C183.724 57.7067 183.337 57.88 182.804 57.88H173.524C173.364 57.88 173.257 57.92 173.204 58C173.177 58.0533 173.164 58.1733 173.164 58.36C173.164 59.16 173.337 59.8933 173.684 60.56C174.057 61.2 174.59 61.7067 175.284 62.08C175.977 62.4533 176.79 62.64 177.724 62.64C178.604 62.64 179.444 62.5067 180.244 62.24C181.044 61.9467 181.63 61.6933 182.004 61.48C182.324 61.2933 182.577 61.1867 182.764 61.16C182.95 61.1067 183.15 61.2933 183.364 61.72L184.204 63.4C184.364 63.6933 184.404 63.9067 184.324 64.04C184.244 64.1467 184.07 64.2933 183.804 64.48C182.87 65.12 181.75 65.5867 180.444 65.88C179.137 66.1733 177.83 66.32 176.524 66.32C174.79 66.32 173.364 66.0667 172.244 65.56C171.124 65.0533 170.257 64.3467 169.644 63.44C169.03 62.5333 168.59 61.4933 168.324 60.32C168.084 59.12 167.964 57.8533 167.964 56.52ZM179.204 54.28C179.204 53.5333 179.11 52.8933 178.924 52.36C178.737 51.8267 178.43 51.4133 178.004 51.12C177.604 50.8267 177.057 50.68 176.364 50.68C175.804 50.68 175.324 50.7867 174.924 51C174.55 51.2133 174.244 51.4933 174.004 51.84C173.764 52.1867 173.577 52.5733 173.444 53C173.31 53.4 173.217 53.7867 173.164 54.16C173.137 54.5867 173.137 54.8533 173.164 54.96C173.19 55.04 173.297 55.08 173.484 55.08H178.724C178.964 55.08 179.11 55.04 179.164 54.96C179.217 54.88 179.23 54.6533 179.204 54.28ZM83.188 109.6C83.188 110.24 82.8146 110.653 82.068 110.84C81.6946 110.973 81.228 111.067 80.668 111.12C80.1346 111.2 79.6146 111.253 79.108 111.28C78.628 111.307 78.2546 111.32 77.988 111.32C74.7613 111.32 72.1746 110.16 70.228 107.84C68.2813 105.52 67.308 102.107 67.308 97.6C67.308 93.0667 68.2413 89.64 70.108 87.32C72.0013 84.9733 74.628 83.8 77.988 83.8C78.2546 83.8 78.628 83.8267 79.108 83.88C79.6146 83.9067 80.1346 83.96 80.668 84.04C81.228 84.0933 81.6946 84.1867 82.068 84.32C82.4413 84.4 82.7213 84.5067 82.908 84.64C83.0946 84.7733 83.188 84.96 83.188 85.2V88.68C83.188 89.4 82.8013 89.4933 82.028 88.96C81.4946 88.6133 80.908 88.36 80.268 88.2C79.628 88.0133 79.0013 87.92 78.388 87.92C77.2946 87.92 76.3746 88.16 75.628 88.64C74.908 89.0933 74.3346 89.7467 73.908 90.6C73.4813 91.4267 73.1746 92.3867 72.988 93.48C72.8013 94.5733 72.708 95.7733 72.708 97.08C72.708 97.96 72.748 98.8667 72.828 99.8C72.9346 100.733 73.0946 101.653 73.308 102.56C73.548 103.44 73.868 104.24 74.268 104.96C74.6946 105.68 75.2413 106.253 75.908 106.68C76.6013 107.08 77.428 107.28 78.388 107.28C79.0813 107.28 79.748 107.2 80.388 107.04C81.028 106.853 81.5346 106.653 81.908 106.44C82.4146 106.12 82.748 105.973 82.908 106C83.0946 106.027 83.188 106.24 83.188 106.64V109.6ZM93.657 111.28C92.297 111.28 91.017 111.133 89.817 110.84C88.6437 110.52 87.6837 109.92 86.937 109.04C86.217 108.16 85.857 106.88 85.857 105.2C85.857 103.813 86.1104 102.68 86.617 101.8C87.1504 100.893 87.817 100.2 88.617 99.72C89.4437 99.24 90.297 98.92 91.177 98.76C92.057 98.5733 92.8437 98.48 93.537 98.48C94.097 98.48 94.6304 98.5067 95.137 98.56C95.6704 98.5867 96.1637 98.64 96.617 98.72C96.857 98.8 96.977 98.6267 96.977 98.2C96.977 97.2133 96.6704 96.52 96.057 96.12C95.4704 95.72 94.6437 95.52 93.577 95.52C92.5637 95.52 91.5904 95.7067 90.657 96.08C89.7504 96.4533 88.977 96.8 88.337 97.12C88.0437 97.28 87.8437 97.3333 87.737 97.28C87.657 97.2267 87.5904 97.0533 87.537 96.76L87.177 94.52C87.1237 94.1733 87.1237 93.9467 87.177 93.84C87.2304 93.7333 87.377 93.6 87.617 93.44C88.3104 92.9867 89.1904 92.6267 90.257 92.36C91.3237 92.0667 92.457 91.92 93.657 91.92C95.4704 91.92 96.9237 92.1333 98.017 92.56C99.1104 92.96 99.9237 93.5067 100.457 94.2C101.017 94.8933 101.377 95.6933 101.537 96.6C101.724 97.48 101.817 98.4 101.817 99.36C101.844 100.48 101.844 101.587 101.817 102.68C101.817 103.747 101.79 104.813 101.737 105.88C101.684 106.947 101.604 108.027 101.497 109.12C101.444 109.413 101.364 109.64 101.257 109.8C101.15 109.933 100.937 110.08 100.617 110.24C100.244 110.427 99.7504 110.587 99.137 110.72C98.5237 110.827 97.857 110.92 97.137 111C96.4437 111.107 95.7904 111.173 95.177 111.2C94.5637 111.253 94.057 111.28 93.657 111.28ZM93.977 108.2C94.1904 108.2 94.4304 108.187 94.697 108.16C94.9637 108.107 95.2304 108.04 95.497 107.96C95.7637 107.88 95.977 107.773 96.137 107.64C96.3237 107.507 96.4304 107.333 96.457 107.12C96.537 106.48 96.6037 105.773 96.657 105C96.7104 104.227 96.7104 103.48 96.657 102.76C96.657 102.413 96.5237 102.173 96.257 102.04C95.9904 101.853 95.6037 101.747 95.097 101.72C94.617 101.667 94.217 101.64 93.897 101.64C93.657 101.64 93.3504 101.693 92.977 101.8C92.6304 101.88 92.297 102.04 91.977 102.28C91.657 102.52 91.3904 102.88 91.177 103.36C90.9904 103.84 90.897 104.453 90.897 105.2C90.897 105.787 91.017 106.307 91.257 106.76C91.497 107.213 91.8437 107.573 92.297 107.84C92.7504 108.08 93.3104 108.2 93.977 108.2ZM111.486 91.96C113.513 91.96 115.179 92.2533 116.486 92.84C116.753 92.9467 116.899 93.0533 116.926 93.16C116.979 93.2667 116.993 93.4133 116.966 93.6L116.246 96.08C116.193 96.2933 116.126 96.4267 116.046 96.48C115.966 96.5067 115.806 96.48 115.566 96.4C115.113 96.2667 114.606 96.1733 114.046 96.12C113.486 96.04 113.059 96 112.766 96C112.339 96 111.979 96.0267 111.686 96.08C111.393 96.1067 111.166 96.1467 111.006 96.2C110.846 96.2533 110.713 96.3067 110.606 96.36C110.499 96.44 110.379 96.5333 110.246 96.64C110.139 96.7467 110.086 96.9867 110.086 97.36V110.16C110.086 110.533 110.033 110.773 109.926 110.88C109.819 110.96 109.633 111 109.366 111H105.486C105.353 111 105.233 110.96 105.126 110.88C105.019 110.8 104.966 110.613 104.966 110.32V94.32C104.966 93.8933 105.006 93.6267 105.086 93.52C105.193 93.3867 105.393 93.2533 105.686 93.12C106.486 92.7467 107.433 92.4667 108.526 92.28C109.646 92.0667 110.633 91.96 111.486 91.96ZM118.242 101.84C118.295 99.8133 118.562 98.16 119.042 96.88C119.548 95.6 120.188 94.6 120.962 93.88C121.762 93.16 122.642 92.6667 123.602 92.4C124.562 92.1333 125.535 92 126.522 92C126.895 92 127.322 92.04 127.802 92.12C128.282 92.2 128.655 92.2667 128.922 92.32C129.108 92.3733 129.255 92.3867 129.362 92.36C129.495 92.3333 129.562 92.2133 129.562 92C129.562 91.52 129.548 91.0133 129.522 90.48C129.522 89.9467 129.495 89.4133 129.442 88.88C129.415 88.32 129.375 87.7733 129.322 87.24C129.268 86.68 129.215 86.16 129.162 85.68C129.135 85.1733 129.095 84.72 129.042 84.32C128.988 83.8667 129.002 83.6 129.082 83.52C129.188 83.44 129.362 83.4 129.602 83.4H133.442C133.628 83.4 133.775 83.4133 133.882 83.44C134.015 83.4667 134.095 83.5733 134.122 83.76C134.228 84.8533 134.322 86.1333 134.402 87.6C134.482 89.04 134.548 90.6 134.602 92.28C134.655 93.9333 134.682 95.6 134.682 97.28C134.708 98.96 134.695 100.573 134.642 102.12C134.615 103.667 134.548 105.04 134.442 106.24C134.362 107.44 134.242 108.36 134.082 109C134.002 109.32 133.882 109.56 133.722 109.72C133.588 109.88 133.228 110.067 132.642 110.28C132.135 110.493 131.322 110.72 130.202 110.96C129.082 111.173 127.855 111.28 126.522 111.28C125.482 111.253 124.508 111.133 123.602 110.92C122.722 110.68 121.948 110.307 121.282 109.8C120.268 109.08 119.508 108.067 119.002 106.76C118.495 105.427 118.242 103.787 118.242 101.84ZM123.482 101.88C123.455 103.72 123.668 105.027 124.122 105.8C124.602 106.547 125.202 106.973 125.922 107.08C126.242 107.187 126.575 107.253 126.922 107.28C127.295 107.28 127.655 107.253 128.002 107.2C128.375 107.12 128.695 107.027 128.962 106.92C129.042 106.867 129.095 106.813 129.122 106.76C129.175 106.68 129.202 106.573 129.202 106.44C129.228 105.853 129.255 105.24 129.282 104.6C129.335 103.96 129.362 103.32 129.362 102.68C129.388 102.04 129.415 101.4 129.442 100.76C129.468 100.12 129.482 99.5067 129.482 98.92C129.508 98.3333 129.508 97.7867 129.482 97.28C129.482 97.0933 129.455 96.9733 129.402 96.92C129.375 96.84 129.308 96.7867 129.202 96.76C128.855 96.6267 128.442 96.52 127.962 96.44C127.508 96.3333 127.122 96.28 126.802 96.28C126.482 96.28 126.122 96.3467 125.722 96.48C125.348 96.6133 124.988 96.8667 124.642 97.24C124.322 97.6133 124.055 98.1733 123.842 98.92C123.628 99.64 123.508 100.627 123.482 101.88ZM68.2083 142.16C68.2083 144.48 67.9549 146.453 67.4483 148.08C66.9416 149.68 66.2749 151 65.4483 152.04C64.6483 153.08 63.7549 153.893 62.7683 154.48C61.7816 155.04 60.7949 155.44 59.8083 155.68C58.8483 155.893 57.9683 156 57.1683 156H49.6083C49.2616 156 49.0883 155.84 49.0883 155.52V129.6C49.0883 129.253 49.2616 129.08 49.6083 129.08H57.1683C58.1283 129.08 59.1149 129.173 60.1283 129.36C61.1683 129.52 62.1683 129.853 63.1283 130.36C64.0883 130.84 64.9416 131.56 65.6883 132.52C66.4616 133.48 67.0749 134.747 67.5283 136.32C67.9816 137.867 68.2083 139.813 68.2083 142.16ZM62.9683 142.16C62.9683 139.947 62.7683 138.227 62.3683 137C61.9949 135.747 61.4883 134.853 60.8483 134.32C60.2349 133.787 59.5816 133.467 58.8883 133.36C58.1949 133.227 57.5549 133.16 56.9683 133.16H54.8083C54.5949 133.16 54.4616 133.173 54.4083 133.2C54.3816 133.227 54.3683 133.32 54.3683 133.48V151.56C54.3683 151.72 54.3816 151.827 54.4083 151.88C54.4616 151.907 54.5683 151.92 54.7283 151.92H56.3283C56.9683 151.92 57.6616 151.827 58.4083 151.64C59.1549 151.453 59.8749 151.04 60.5683 150.4C61.2883 149.76 61.8616 148.787 62.2883 147.48C62.7416 146.173 62.9683 144.4 62.9683 142.16ZM71.1277 146.52C71.1277 145.267 71.261 144.067 71.5277 142.92C71.7943 141.773 72.2343 140.733 72.8477 139.8C73.4877 138.867 74.3543 138.133 75.4477 137.6C76.5677 137.067 77.9677 136.8 79.6477 136.8C81.4077 136.8 82.8077 137.053 83.8477 137.56C84.8877 138.04 85.6743 138.693 86.2077 139.52C86.741 140.347 87.0877 141.253 87.2477 142.24C87.4343 143.2 87.5277 144.16 87.5277 145.12C87.5277 146.24 87.3943 146.987 87.1277 147.36C86.8877 147.707 86.501 147.88 85.9677 147.88H76.6877C76.5277 147.88 76.421 147.92 76.3677 148C76.341 148.053 76.3277 148.173 76.3277 148.36C76.3277 149.16 76.501 149.893 76.8477 150.56C77.221 151.2 77.7543 151.707 78.4477 152.08C79.141 152.453 79.9543 152.64 80.8877 152.64C81.7677 152.64 82.6077 152.507 83.4077 152.24C84.2077 151.947 84.7943 151.693 85.1677 151.48C85.4877 151.293 85.741 151.187 85.9277 151.16C86.1143 151.107 86.3143 151.293 86.5277 151.72L87.3677 153.4C87.5277 153.693 87.5677 153.907 87.4877 154.04C87.4077 154.147 87.2343 154.293 86.9677 154.48C86.0343 155.12 84.9143 155.587 83.6077 155.88C82.301 156.173 80.9943 156.32 79.6877 156.32C77.9543 156.32 76.5277 156.067 75.4077 155.56C74.2877 155.053 73.421 154.347 72.8077 153.44C72.1943 152.533 71.7543 151.493 71.4877 150.32C71.2477 149.12 71.1277 147.853 71.1277 146.52ZM82.3677 144.28C82.3677 143.533 82.2743 142.893 82.0877 142.36C81.901 141.827 81.5943 141.413 81.1677 141.12C80.7677 140.827 80.221 140.68 79.5277 140.68C78.9677 140.68 78.4877 140.787 78.0877 141C77.7143 141.213 77.4077 141.493 77.1677 141.84C76.9277 142.187 76.741 142.573 76.6077 143C76.4743 143.4 76.381 143.787 76.3277 144.16C76.301 144.587 76.301 144.853 76.3277 144.96C76.3543 145.04 76.461 145.08 76.6477 145.08H81.8877C82.1277 145.08 82.2743 145.04 82.3277 144.96C82.381 144.88 82.3943 144.653 82.3677 144.28ZM97.9558 156C96.1424 156 94.7824 155.627 93.8758 154.88C92.9958 154.107 92.4091 153.04 92.1158 151.68C91.9024 150.56 91.7824 149.413 91.7558 148.24C91.7558 147.067 91.7558 145.88 91.7558 144.68C91.7558 143.907 91.7558 143.227 91.7558 142.64C91.7824 142.053 91.8091 141.4 91.8358 140.68C91.8358 140.413 91.7158 140.28 91.4758 140.28H89.8358C89.6224 140.28 89.4758 140.253 89.3958 140.2C89.3424 140.147 89.3158 139.987 89.3158 139.72V137.72C89.3158 137.4 89.3424 137.227 89.3958 137.2C89.4758 137.147 89.6624 137.12 89.9558 137.12H91.5958C91.8091 137.12 91.9291 137.067 91.9558 136.96C91.9824 136.853 92.0091 136.68 92.0358 136.44L92.1958 133.44C92.1958 133.12 92.3558 132.96 92.6758 132.96H96.6758C96.8091 132.96 96.9424 133.013 97.0758 133.12C97.2091 133.2 97.2624 133.307 97.2358 133.44L97.0358 136.44C97.0091 136.76 97.0091 136.96 97.0358 137.04C97.0891 137.093 97.1958 137.12 97.3558 137.12H100.716C100.982 137.12 101.142 137.16 101.196 137.24C101.249 137.293 101.276 137.48 101.276 137.8V139.68C101.276 139.947 101.236 140.12 101.156 140.2C101.076 140.253 100.902 140.28 100.636 140.28H97.3158C97.1558 140.28 97.0358 140.333 96.9558 140.44C96.9024 140.52 96.8758 140.653 96.8758 140.84C96.8491 141.533 96.8224 142.24 96.7958 142.96C96.7691 143.653 96.7558 144.373 96.7558 145.12C96.7558 146.053 96.7691 147 96.7958 147.96C96.8491 148.893 96.9691 149.8 97.1558 150.68C97.3158 151.187 97.5424 151.547 97.8358 151.76C98.1291 151.973 98.5158 152.08 98.9958 152.08C99.3158 152.08 99.6224 152.04 99.9158 151.96C100.209 151.853 100.462 151.773 100.676 151.72C100.996 151.533 101.196 151.48 101.276 151.56C101.356 151.613 101.449 151.773 101.556 152.04L102.236 154.44C102.342 154.627 102.316 154.8 102.156 154.96C101.996 155.093 101.676 155.253 101.196 155.44C100.876 155.547 100.529 155.653 100.156 155.76C99.7824 155.84 99.4091 155.907 99.0358 155.96C98.6624 155.987 98.3024 156 97.9558 156ZM112.212 156.28C110.852 156.28 109.572 156.133 108.372 155.84C107.198 155.52 106.238 154.92 105.492 154.04C104.772 153.16 104.412 151.88 104.412 150.2C104.412 148.813 104.665 147.68 105.172 146.8C105.705 145.893 106.372 145.2 107.172 144.72C107.998 144.24 108.852 143.92 109.732 143.76C110.612 143.573 111.398 143.48 112.092 143.48C112.652 143.48 113.185 143.507 113.692 143.56C114.225 143.587 114.718 143.64 115.172 143.72C115.412 143.8 115.532 143.627 115.532 143.2C115.532 142.213 115.225 141.52 114.612 141.12C114.025 140.72 113.198 140.52 112.132 140.52C111.118 140.52 110.145 140.707 109.212 141.08C108.305 141.453 107.532 141.8 106.892 142.12C106.598 142.28 106.398 142.333 106.292 142.28C106.212 142.227 106.145 142.053 106.092 141.76L105.732 139.52C105.678 139.173 105.678 138.947 105.732 138.84C105.785 138.733 105.932 138.6 106.172 138.44C106.865 137.987 107.745 137.627 108.812 137.36C109.878 137.067 111.012 136.92 112.212 136.92C114.025 136.92 115.478 137.133 116.572 137.56C117.665 137.96 118.478 138.507 119.012 139.2C119.572 139.893 119.932 140.693 120.092 141.6C120.278 142.48 120.372 143.4 120.372 144.36C120.398 145.48 120.398 146.587 120.372 147.68C120.372 148.747 120.345 149.813 120.292 150.88C120.238 151.947 120.158 153.027 120.052 154.12C119.998 154.413 119.918 154.64 119.812 154.8C119.705 154.933 119.492 155.08 119.172 155.24C118.798 155.427 118.305 155.587 117.692 155.72C117.078 155.827 116.412 155.92 115.692 156C114.998 156.107 114.345 156.173 113.732 156.2C113.118 156.253 112.612 156.28 112.212 156.28ZM112.532 153.2C112.745 153.2 112.985 153.187 113.252 153.16C113.518 153.107 113.785 153.04 114.052 152.96C114.318 152.88 114.532 152.773 114.692 152.64C114.878 152.507 114.985 152.333 115.012 152.12C115.092 151.48 115.158 150.773 115.212 150C115.265 149.227 115.265 148.48 115.212 147.76C115.212 147.413 115.078 147.173 114.812 147.04C114.545 146.853 114.158 146.747 113.652 146.72C113.172 146.667 112.772 146.64 112.452 146.64C112.212 146.64 111.905 146.693 111.532 146.8C111.185 146.88 110.852 147.04 110.532 147.28C110.212 147.52 109.945 147.88 109.732 148.36C109.545 148.84 109.452 149.453 109.452 150.2C109.452 150.787 109.572 151.307 109.812 151.76C110.052 152.213 110.398 152.573 110.852 152.84C111.305 153.08 111.865 153.2 112.532 153.2ZM128.881 131.96C128.881 132.76 128.707 133.373 128.361 133.8C128.014 134.2 127.294 134.4 126.201 134.4C125.161 134.4 124.441 134.2 124.041 133.8C123.667 133.373 123.481 132.76 123.481 131.96C123.481 131.267 123.667 130.707 124.041 130.28C124.441 129.827 125.161 129.6 126.201 129.6C127.347 129.6 128.081 129.827 128.401 130.28C128.721 130.707 128.881 131.267 128.881 131.96ZM128.761 155.52C128.761 155.84 128.587 156 128.241 156H124.121C123.801 156 123.641 155.84 123.641 155.52V137.6C123.641 137.28 123.801 137.12 124.121 137.12H128.241C128.587 137.12 128.761 137.28 128.761 137.6V155.52ZM132.157 155.52V128.16C132.157 127.84 132.331 127.68 132.677 127.68H136.717C137.091 127.68 137.277 127.84 137.277 128.16V155.52C137.277 155.84 137.091 156 136.717 156H132.677C132.331 156 132.157 155.84 132.157 155.52ZM140.745 151.36C140.825 151.067 140.945 150.947 141.105 151C141.292 151.027 141.465 151.093 141.625 151.2C142.079 151.413 142.599 151.613 143.185 151.8C143.799 151.96 144.425 152.093 145.065 152.2C145.705 152.28 146.279 152.32 146.785 152.32C147.319 152.32 147.799 152.267 148.225 152.16C148.679 152.027 149.039 151.827 149.305 151.56C149.572 151.293 149.705 150.947 149.705 150.52C149.732 149.933 149.465 149.493 148.905 149.2C148.372 148.88 147.425 148.573 146.065 148.28C145.212 148.093 144.332 147.827 143.425 147.48C142.545 147.107 141.812 146.56 141.225 145.84C140.639 145.093 140.345 144.12 140.345 142.92C140.345 141.56 140.692 140.453 141.385 139.6C142.079 138.72 142.972 138.053 144.065 137.6C145.185 137.147 146.372 136.92 147.625 136.92C148.612 136.92 149.692 137.067 150.865 137.36C152.039 137.653 153.012 138.027 153.785 138.48C154.025 138.613 154.145 138.733 154.145 138.84C154.172 138.947 154.159 139.093 154.105 139.28L153.145 141.88C153.065 142.2 152.812 142.28 152.385 142.12C151.799 141.773 151.079 141.453 150.225 141.16C149.372 140.867 148.505 140.72 147.625 140.72C147.012 140.72 146.465 140.88 145.985 141.2C145.532 141.493 145.305 141.88 145.305 142.36C145.305 142.947 145.572 143.373 146.105 143.64C146.639 143.907 147.412 144.147 148.425 144.36C149.172 144.52 149.892 144.707 150.585 144.92C151.279 145.107 151.919 145.4 152.505 145.8C153.092 146.173 153.559 146.693 153.905 147.36C154.252 148 154.425 148.84 154.425 149.88C154.425 151.08 154.199 152.093 153.745 152.92C153.292 153.72 152.679 154.36 151.905 154.84C151.159 155.32 150.332 155.667 149.425 155.88C148.545 156.093 147.665 156.2 146.785 156.2C146.305 156.2 145.679 156.147 144.905 156.04C144.132 155.933 143.345 155.76 142.545 155.52C141.745 155.28 141.065 154.96 140.505 154.56C140.399 154.507 140.305 154.44 140.225 154.36C140.172 154.253 140.159 154.12 140.185 153.96L140.745 151.36Z" fill="white"/>
</svg>
