<svg width="218" height="200" viewBox="0 0 218 200" fill="none" xmlns="http://www.w3.org/2000/svg">
<rect x="8" width="200" height="200" fill="#7171DA"/>
<path d="M78.5402 85.52C78.5402 85.84 78.3535 86 77.9802 86H73.8202C73.4468 86 73.2602 85.84 73.2602 85.52V59.6C73.2602 59.2533 73.4468 59.08 73.8202 59.08H77.9802C78.3535 59.08 78.5402 59.2533 78.5402 59.6V85.52ZM83.5689 86C83.1956 86 83.0089 85.8267 83.0089 85.48C83.0089 82.7067 83.0089 79.9467 83.0089 77.2C83.0089 74.4267 83.0089 71.6533 83.0089 68.88C83.0089 68.6133 83.1022 68.4133 83.2889 68.28C83.4756 68.1467 83.8356 67.9867 84.3689 67.8C84.7156 67.6933 85.2222 67.5733 85.8889 67.44C86.5822 67.28 87.3289 67.1333 88.1289 67C88.9289 66.8667 89.6489 66.8 90.2889 66.8C92.5022 66.8 94.1956 67.2267 95.3689 68.08C96.5689 68.9067 97.3822 70.0133 97.8089 71.4C98.2622 72.76 98.4889 74.2667 98.4889 75.92C98.4889 76.9067 98.4622 77.9467 98.4089 79.04C98.3822 80.1067 98.3289 81.16 98.2489 82.2C98.1689 83.24 98.0889 84.1867 98.0089 85.04C97.9556 85.52 97.8756 85.8 97.7689 85.88C97.6622 85.96 97.4222 86 97.0489 86H93.7689C93.3956 86 93.1422 85.96 93.0089 85.88C92.9022 85.7733 92.8622 85.56 92.8889 85.24C92.8889 85.1333 92.9022 84.72 92.9289 84C92.9822 83.2533 93.0356 82.3733 93.0889 81.36C93.1422 80.3467 93.1822 79.3467 93.2089 78.36C93.2622 77.3733 93.2889 76.5733 93.2889 75.96C93.2889 74.5733 93.1689 73.52 92.9289 72.8C92.6889 72.0533 92.3422 71.5467 91.8889 71.28C91.4356 71.0133 90.8622 70.88 90.1689 70.88C89.9022 70.88 89.6489 70.8933 89.4089 70.92C89.1689 70.9467 88.9556 70.9867 88.7689 71.04C88.5289 71.0667 88.3556 71.1733 88.2489 71.36C88.1422 71.5467 88.0889 71.8533 88.0889 72.28C88.0889 73.4 88.0889 74.6933 88.0889 76.16C88.0889 77.6267 88.0889 79.1467 88.0889 80.72C88.0889 82.2933 88.0889 83.88 88.0889 85.48C88.0889 85.8267 87.9422 86 87.6489 86H83.5689ZM109.159 86C107.346 86 105.986 85.6267 105.079 84.88C104.199 84.1067 103.612 83.04 103.319 81.68C103.106 80.56 102.986 79.4133 102.959 78.24C102.959 77.0667 102.959 75.88 102.959 74.68C102.959 73.9067 102.959 73.2267 102.959 72.64C102.986 72.0533 103.012 71.4 103.039 70.68C103.039 70.4133 102.919 70.28 102.679 70.28H101.039C100.826 70.28 100.679 70.2533 100.599 70.2C100.546 70.1467 100.519 69.9867 100.519 69.72V67.72C100.519 67.4 100.546 67.2267 100.599 67.2C100.679 67.1467 100.866 67.12 101.159 67.12H102.799C103.012 67.12 103.132 67.0667 103.159 66.96C103.186 66.8533 103.212 66.68 103.239 66.44L103.399 63.44C103.399 63.12 103.559 62.96 103.879 62.96H107.879C108.012 62.96 108.146 63.0133 108.279 63.12C108.412 63.2 108.466 63.3067 108.439 63.44L108.239 66.44C108.212 66.76 108.212 66.96 108.239 67.04C108.292 67.0933 108.399 67.12 108.559 67.12H111.919C112.186 67.12 112.346 67.16 112.399 67.24C112.452 67.2933 112.479 67.48 112.479 67.8V69.68C112.479 69.9467 112.439 70.12 112.359 70.2C112.279 70.2533 112.106 70.28 111.839 70.28H108.519C108.359 70.28 108.239 70.3333 108.159 70.44C108.106 70.52 108.079 70.6533 108.079 70.84C108.052 71.5333 108.026 72.24 107.999 72.96C107.972 73.6533 107.959 74.3733 107.959 75.12C107.959 76.0533 107.972 77 107.999 77.96C108.052 78.8933 108.172 79.8 108.359 80.68C108.519 81.1867 108.746 81.5467 109.039 81.76C109.332 81.9733 109.719 82.08 110.199 82.08C110.519 82.08 110.826 82.04 111.119 81.96C111.412 81.8533 111.666 81.7733 111.879 81.72C112.199 81.5333 112.399 81.48 112.479 81.56C112.559 81.6133 112.652 81.7733 112.759 82.04L113.439 84.44C113.546 84.6267 113.519 84.8 113.359 84.96C113.199 85.0933 112.879 85.2533 112.399 85.44C112.079 85.5467 111.732 85.6533 111.359 85.76C110.986 85.84 110.612 85.9067 110.239 85.96C109.866 85.9867 109.506 86 109.159 86ZM122.455 66.96C124.482 66.96 126.148 67.2533 127.455 67.84C127.722 67.9467 127.868 68.0533 127.895 68.16C127.948 68.2667 127.962 68.4133 127.935 68.6L127.215 71.08C127.162 71.2933 127.095 71.4267 127.015 71.48C126.935 71.5067 126.775 71.48 126.535 71.4C126.082 71.2667 125.575 71.1733 125.015 71.12C124.455 71.04 124.028 71 123.735 71C123.308 71 122.948 71.0267 122.655 71.08C122.362 71.1067 122.135 71.1467 121.975 71.2C121.815 71.2533 121.682 71.3067 121.575 71.36C121.468 71.44 121.348 71.5333 121.215 71.64C121.108 71.7467 121.055 71.9867 121.055 72.36V85.16C121.055 85.5333 121.002 85.7733 120.895 85.88C120.788 85.96 120.602 86 120.335 86H116.455C116.322 86 116.202 85.96 116.095 85.88C115.988 85.8 115.935 85.6133 115.935 85.32V69.32C115.935 68.8933 115.975 68.6267 116.055 68.52C116.162 68.3867 116.362 68.2533 116.655 68.12C117.455 67.7467 118.402 67.4667 119.495 67.28C120.615 67.0667 121.602 66.96 122.455 66.96ZM137.263 86.32C134.943 86.32 133.143 85.8933 131.863 85.04C130.609 84.16 129.729 82.9867 129.223 81.52C128.743 80.0267 128.503 78.3333 128.503 76.44C128.503 74.6 128.783 72.96 129.343 71.52C129.903 70.0533 130.809 68.9067 132.063 68.08C133.343 67.2267 135.076 66.8 137.263 66.8C139.476 66.8 141.209 67.2267 142.463 68.08C143.743 68.9067 144.649 70.0533 145.183 71.52C145.743 72.96 146.023 74.6 146.023 76.44C146.023 78.3067 145.783 79.9867 145.303 81.48C144.823 82.9467 143.943 84.12 142.663 85C141.409 85.88 139.609 86.32 137.263 86.32ZM137.223 82.4C138.529 82.4 139.449 81.8933 139.983 80.88C140.516 79.8667 140.783 78.44 140.783 76.6C140.783 74.76 140.489 73.3733 139.903 72.44C139.343 71.48 138.449 71 137.223 71C136.023 71 135.129 71.48 134.543 72.44C133.983 73.3733 133.703 74.76 133.703 76.6C133.703 78.4667 133.956 79.9067 134.463 80.92C134.996 81.9067 135.916 82.4 137.223 82.4ZM37.5356 129.6C37.5356 130.24 37.1623 130.653 36.4156 130.84C36.0423 130.973 35.5756 131.067 35.0156 131.12C34.4823 131.2 33.9623 131.253 33.4556 131.28C32.9756 131.307 32.6023 131.32 32.3356 131.32C29.109 131.32 26.5223 130.16 24.5756 127.84C22.629 125.52 21.6556 122.107 21.6556 117.6C21.6556 113.067 22.589 109.64 24.4556 107.32C26.349 104.973 28.9756 103.8 32.3356 103.8C32.6023 103.8 32.9756 103.827 33.4556 103.88C33.9623 103.907 34.4823 103.96 35.0156 104.04C35.5756 104.093 36.0423 104.187 36.4156 104.32C36.789 104.4 37.069 104.507 37.2556 104.64C37.4423 104.773 37.5356 104.96 37.5356 105.2V108.68C37.5356 109.4 37.149 109.493 36.3756 108.96C35.8423 108.613 35.2556 108.36 34.6156 108.2C33.9756 108.013 33.349 107.92 32.7356 107.92C31.6423 107.92 30.7223 108.16 29.9756 108.64C29.2556 109.093 28.6823 109.747 28.2556 110.6C27.829 111.427 27.5223 112.387 27.3356 113.48C27.149 114.573 27.0556 115.773 27.0556 117.08C27.0556 117.96 27.0956 118.867 27.1756 119.8C27.2823 120.733 27.4423 121.653 27.6556 122.56C27.8956 123.44 28.2156 124.24 28.6156 124.96C29.0423 125.68 29.589 126.253 30.2556 126.68C30.949 127.08 31.7756 127.28 32.7356 127.28C33.429 127.28 34.0956 127.2 34.7356 127.04C35.3756 126.853 35.8823 126.653 36.2556 126.44C36.7623 126.12 37.0956 125.973 37.2556 126C37.4423 126.027 37.5356 126.24 37.5356 126.64V129.6ZM48.8447 131.32C46.5247 131.32 44.7247 130.893 43.4447 130.04C42.1914 129.16 41.3114 127.987 40.8047 126.52C40.3247 125.027 40.0847 123.333 40.0847 121.44C40.0847 119.6 40.3647 117.96 40.9247 116.52C41.4847 115.053 42.3914 113.907 43.6447 113.08C44.9247 112.227 46.658 111.8 48.8447 111.8C51.058 111.8 52.7914 112.227 54.0447 113.08C55.3247 113.907 56.2314 115.053 56.7647 116.52C57.3247 117.96 57.6047 119.6 57.6047 121.44C57.6047 123.307 57.3647 124.987 56.8847 126.48C56.4047 127.947 55.5247 129.12 54.2447 130C52.9914 130.88 51.1914 131.32 48.8447 131.32ZM48.8047 127.4C50.1114 127.4 51.0314 126.893 51.5647 125.88C52.098 124.867 52.3647 123.44 52.3647 121.6C52.3647 119.76 52.0714 118.373 51.4847 117.44C50.9247 116.48 50.0314 116 48.8047 116C47.6047 116 46.7114 116.48 46.1247 117.44C45.5647 118.373 45.2847 119.76 45.2847 121.6C45.2847 123.467 45.538 124.907 46.0447 125.92C46.578 126.907 47.498 127.4 48.8047 127.4ZM61.3619 131C60.9885 131 60.8019 130.827 60.8019 130.48V114.12C60.8019 113.853 60.8685 113.64 61.0019 113.48C61.1352 113.32 61.3619 113.187 61.6819 113.08C62.1619 112.92 62.7619 112.76 63.4819 112.6C64.2285 112.413 64.9752 112.267 65.7219 112.16C66.4952 112.027 67.1485 111.96 67.6819 111.96C69.0952 111.96 70.2419 112.12 71.1219 112.44C72.0285 112.733 72.8419 113.173 73.5619 113.76C74.0952 113.36 74.6152 113.04 75.1219 112.8C75.6552 112.533 76.1885 112.333 76.7219 112.2C77.2819 112.04 77.8819 111.96 78.5219 111.96C80.6285 111.96 82.2419 112.373 83.3619 113.2C84.4819 114 85.2685 115.08 85.7219 116.44C86.1752 117.8 86.4019 119.32 86.4019 121C86.4019 122.36 86.3752 123.573 86.3219 124.64C86.2685 125.707 86.1885 126.707 86.0819 127.64C86.0019 128.573 85.8819 129.56 85.7219 130.6C85.7219 130.787 85.6952 130.907 85.6419 130.96C85.5885 130.987 85.4952 131 85.3619 131H81.0819C80.9219 131 80.8152 130.96 80.7619 130.88C80.7352 130.773 80.7219 130.56 80.7219 130.24C80.8019 129.467 80.8685 128.573 80.9219 127.56C80.9752 126.52 81.0152 125.413 81.0419 124.24C81.0685 123.067 81.0819 121.933 81.0819 120.84C81.0819 120.413 81.0419 119.933 80.9619 119.4C80.9085 118.84 80.7752 118.307 80.5619 117.8C80.3752 117.267 80.0819 116.827 79.6819 116.48C79.2819 116.133 78.7485 115.96 78.0819 115.96C77.3085 115.96 76.7752 116.08 76.4819 116.32C76.1885 116.56 76.0419 116.947 76.0419 117.48C76.0419 118.627 76.0419 119.747 76.0419 120.84C76.0685 121.933 76.0819 123.013 76.0819 124.08C76.0819 125.12 76.0685 126.173 76.0419 127.24C76.0419 128.28 76.0419 129.347 76.0419 130.44C76.0419 130.813 75.8685 131 75.5219 131H71.2819C71.0419 131 70.9219 130.867 70.9219 130.6V120.88C70.9219 119.92 70.8285 119.08 70.6419 118.36C70.4552 117.613 70.1219 117.027 69.6419 116.6C69.1885 116.173 68.5352 115.96 67.6819 115.96C67.4419 115.96 67.2019 115.987 66.9619 116.04C66.7485 116.067 66.5485 116.12 66.3619 116.2C66.0419 116.307 65.8819 116.533 65.8819 116.88V130.36C65.8819 130.787 65.7085 131 65.3619 131H61.3619ZM89.9891 134.92C89.8824 133.96 89.7891 132.467 89.7091 130.44C89.6557 128.413 89.6424 125.813 89.6691 122.64C89.6691 121.733 89.6824 120.733 89.7091 119.64C89.7357 118.52 89.7757 117.44 89.8291 116.4C89.9091 115.36 90.0157 114.547 90.1491 113.96C90.2024 113.667 90.3091 113.44 90.4691 113.28C90.6291 113.093 90.9891 112.893 91.5491 112.68C92.1091 112.493 92.9357 112.293 94.0291 112.08C95.1491 111.867 96.3891 111.76 97.7491 111.76C100.362 111.76 102.389 112.52 103.829 114.04C105.296 115.533 106.029 117.893 106.029 121.12C106.029 122.453 105.909 123.653 105.669 124.72C105.456 125.76 105.122 126.68 104.669 127.48C104.216 128.253 103.682 128.893 103.069 129.4C102.482 129.907 101.816 130.293 101.069 130.56C100.589 130.773 100.029 130.933 99.3891 131.04C98.7491 131.173 98.1091 131.24 97.4691 131.24C96.8291 131.267 96.2557 131.24 95.7491 131.16C95.5091 131.133 95.3224 131.107 95.1891 131.08C95.0557 131.08 94.9891 131.173 94.9891 131.36C94.9891 131.547 94.9757 131.84 94.9491 132.24C94.9491 132.64 94.9624 133.04 94.9891 133.44C95.0157 133.84 95.0291 134.147 95.0291 134.36C95.0824 134.707 95.0957 134.947 95.0691 135.08C95.0691 135.24 94.8691 135.32 94.4691 135.32H90.6691C90.4557 135.32 90.2824 135.293 90.1491 135.24C90.0424 135.187 89.9891 135.08 89.9891 134.92ZM94.9091 125.8C94.9091 125.987 94.9357 126.12 94.9891 126.2C95.0424 126.253 95.1357 126.293 95.2691 126.32C95.6157 126.453 96.0157 126.56 96.4691 126.64C96.9224 126.72 97.3091 126.76 97.6291 126.76C97.9757 126.76 98.3224 126.693 98.6691 126.56C99.0424 126.427 99.3891 126.173 99.7091 125.8C100.056 125.4 100.322 124.827 100.509 124.08C100.722 123.333 100.829 122.333 100.829 121.08C100.829 119.027 100.536 117.613 99.9491 116.84C99.3624 116.067 98.6024 115.68 97.6691 115.68C97.2424 115.68 96.8157 115.72 96.3891 115.8C95.9624 115.88 95.6024 115.973 95.3091 116.08C95.2557 116.133 95.2024 116.2 95.1491 116.28C95.0957 116.36 95.0691 116.467 95.0691 116.6C95.0424 117.16 95.0157 117.76 94.9891 118.4C94.9891 119.04 94.9757 119.693 94.9491 120.36C94.9491 121 94.9357 121.653 94.9091 122.32C94.9091 122.96 94.9091 123.587 94.9091 124.2C94.9091 124.787 94.9091 125.32 94.9091 125.8ZM117.243 131.32C114.923 131.32 113.123 130.893 111.843 130.04C110.59 129.16 109.71 127.987 109.203 126.52C108.723 125.027 108.483 123.333 108.483 121.44C108.483 119.6 108.763 117.96 109.323 116.52C109.883 115.053 110.79 113.907 112.043 113.08C113.323 112.227 115.056 111.8 117.243 111.8C119.456 111.8 121.19 112.227 122.443 113.08C123.723 113.907 124.63 115.053 125.163 116.52C125.723 117.96 126.003 119.6 126.003 121.44C126.003 123.307 125.763 124.987 125.283 126.48C124.803 127.947 123.923 129.12 122.643 130C121.39 130.88 119.59 131.32 117.243 131.32ZM117.203 127.4C118.51 127.4 119.43 126.893 119.963 125.88C120.496 124.867 120.763 123.44 120.763 121.6C120.763 119.76 120.47 118.373 119.883 117.44C119.323 116.48 118.43 116 117.203 116C116.003 116 115.11 116.48 114.523 117.44C113.963 118.373 113.683 119.76 113.683 121.6C113.683 123.467 113.936 124.907 114.443 125.92C114.976 126.907 115.896 127.4 117.203 127.4ZM129.76 131C129.387 131 129.2 130.827 129.2 130.48C129.2 127.707 129.2 124.947 129.2 122.2C129.2 119.427 129.2 116.653 129.2 113.88C129.2 113.613 129.294 113.413 129.48 113.28C129.667 113.147 130.027 112.987 130.56 112.8C130.907 112.693 131.414 112.573 132.08 112.44C132.774 112.28 133.52 112.133 134.32 112C135.12 111.867 135.84 111.8 136.48 111.8C138.694 111.8 140.387 112.227 141.56 113.08C142.76 113.907 143.574 115.013 144 116.4C144.454 117.76 144.68 119.267 144.68 120.92C144.68 121.907 144.654 122.947 144.6 124.04C144.574 125.107 144.52 126.16 144.44 127.2C144.36 128.24 144.28 129.187 144.2 130.04C144.147 130.52 144.067 130.8 143.96 130.88C143.854 130.96 143.614 131 143.24 131H139.96C139.587 131 139.334 130.96 139.2 130.88C139.094 130.773 139.054 130.56 139.08 130.24C139.08 130.133 139.094 129.72 139.12 129C139.174 128.253 139.227 127.373 139.28 126.36C139.334 125.347 139.374 124.347 139.4 123.36C139.454 122.373 139.48 121.573 139.48 120.96C139.48 119.573 139.36 118.52 139.12 117.8C138.88 117.053 138.534 116.547 138.08 116.28C137.627 116.013 137.054 115.88 136.36 115.88C136.094 115.88 135.84 115.893 135.6 115.92C135.36 115.947 135.147 115.987 134.96 116.04C134.72 116.067 134.547 116.173 134.44 116.36C134.334 116.547 134.28 116.853 134.28 117.28C134.28 118.4 134.28 119.693 134.28 121.16C134.28 122.627 134.28 124.147 134.28 125.72C134.28 127.293 134.28 128.88 134.28 130.48C134.28 130.827 134.134 131 133.84 131H129.76ZM147.35 121.52C147.35 120.267 147.484 119.067 147.75 117.92C148.017 116.773 148.457 115.733 149.07 114.8C149.71 113.867 150.577 113.133 151.67 112.6C152.79 112.067 154.19 111.8 155.87 111.8C157.63 111.8 159.03 112.053 160.07 112.56C161.11 113.04 161.897 113.693 162.43 114.52C162.964 115.347 163.31 116.253 163.47 117.24C163.657 118.2 163.75 119.16 163.75 120.12C163.75 121.24 163.617 121.987 163.35 122.36C163.11 122.707 162.724 122.88 162.19 122.88H152.91C152.75 122.88 152.644 122.92 152.59 123C152.564 123.053 152.55 123.173 152.55 123.36C152.55 124.16 152.724 124.893 153.07 125.56C153.444 126.2 153.977 126.707 154.67 127.08C155.364 127.453 156.177 127.64 157.11 127.64C157.99 127.64 158.83 127.507 159.63 127.24C160.43 126.947 161.017 126.693 161.39 126.48C161.71 126.293 161.964 126.187 162.15 126.16C162.337 126.107 162.537 126.293 162.75 126.72L163.59 128.4C163.75 128.693 163.79 128.907 163.71 129.04C163.63 129.147 163.457 129.293 163.19 129.48C162.257 130.12 161.137 130.587 159.83 130.88C158.524 131.173 157.217 131.32 155.91 131.32C154.177 131.32 152.75 131.067 151.63 130.56C150.51 130.053 149.644 129.347 149.03 128.44C148.417 127.533 147.977 126.493 147.71 125.32C147.47 124.12 147.35 122.853 147.35 121.52ZM158.59 119.28C158.59 118.533 158.497 117.893 158.31 117.36C158.124 116.827 157.817 116.413 157.39 116.12C156.99 115.827 156.444 115.68 155.75 115.68C155.19 115.68 154.71 115.787 154.31 116C153.937 116.213 153.63 116.493 153.39 116.84C153.15 117.187 152.964 117.573 152.83 118C152.697 118.4 152.604 118.787 152.55 119.16C152.524 119.587 152.524 119.853 152.55 119.96C152.577 120.04 152.684 120.08 152.87 120.08H158.11C158.35 120.08 158.497 120.04 158.55 119.96C158.604 119.88 158.617 119.653 158.59 119.28ZM167.338 131C166.965 131 166.778 130.827 166.778 130.48C166.778 127.707 166.778 124.947 166.778 122.2C166.778 119.427 166.778 116.653 166.778 113.88C166.778 113.613 166.872 113.413 167.058 113.28C167.245 113.147 167.605 112.987 168.138 112.8C168.485 112.693 168.992 112.573 169.658 112.44C170.352 112.28 171.098 112.133 171.898 112C172.698 111.867 173.418 111.8 174.058 111.8C176.272 111.8 177.965 112.227 179.138 113.08C180.338 113.907 181.152 115.013 181.578 116.4C182.032 117.76 182.258 119.267 182.258 120.92C182.258 121.907 182.232 122.947 182.178 124.04C182.152 125.107 182.098 126.16 182.018 127.2C181.938 128.24 181.858 129.187 181.778 130.04C181.725 130.52 181.645 130.8 181.538 130.88C181.432 130.96 181.192 131 180.818 131H177.538C177.165 131 176.912 130.96 176.778 130.88C176.672 130.773 176.632 130.56 176.658 130.24C176.658 130.133 176.672 129.72 176.698 129C176.752 128.253 176.805 127.373 176.858 126.36C176.912 125.347 176.952 124.347 176.978 123.36C177.032 122.373 177.058 121.573 177.058 120.96C177.058 119.573 176.938 118.52 176.698 117.8C176.458 117.053 176.112 116.547 175.658 116.28C175.205 116.013 174.632 115.88 173.938 115.88C173.672 115.88 173.418 115.893 173.178 115.92C172.938 115.947 172.725 115.987 172.538 116.04C172.298 116.067 172.125 116.173 172.018 116.36C171.912 116.547 171.858 116.853 171.858 117.28C171.858 118.4 171.858 119.693 171.858 121.16C171.858 122.627 171.858 124.147 171.858 125.72C171.858 127.293 171.858 128.88 171.858 130.48C171.858 130.827 171.712 131 171.418 131H167.338ZM192.928 131C191.115 131 189.755 130.627 188.848 129.88C187.968 129.107 187.382 128.04 187.088 126.68C186.875 125.56 186.755 124.413 186.728 123.24C186.728 122.067 186.728 120.88 186.728 119.68C186.728 118.907 186.728 118.227 186.728 117.64C186.755 117.053 186.782 116.4 186.808 115.68C186.808 115.413 186.688 115.28 186.448 115.28H184.808C184.595 115.28 184.448 115.253 184.368 115.2C184.315 115.147 184.288 114.987 184.288 114.72V112.72C184.288 112.4 184.315 112.227 184.368 112.2C184.448 112.147 184.635 112.12 184.928 112.12H186.568C186.782 112.12 186.902 112.067 186.928 111.96C186.955 111.853 186.982 111.68 187.008 111.44L187.168 108.44C187.168 108.12 187.328 107.96 187.648 107.96H191.648C191.782 107.96 191.915 108.013 192.048 108.12C192.182 108.2 192.235 108.307 192.208 108.44L192.008 111.44C191.982 111.76 191.982 111.96 192.008 112.04C192.062 112.093 192.168 112.12 192.328 112.12H195.688C195.955 112.12 196.115 112.16 196.168 112.24C196.222 112.293 196.248 112.48 196.248 112.8V114.68C196.248 114.947 196.208 115.12 196.128 115.2C196.048 115.253 195.875 115.28 195.608 115.28H192.288C192.128 115.28 192.008 115.333 191.928 115.44C191.875 115.52 191.848 115.653 191.848 115.84C191.822 116.533 191.795 117.24 191.768 117.96C191.742 118.653 191.728 119.373 191.728 120.12C191.728 121.053 191.742 122 191.768 122.96C191.822 123.893 191.942 124.8 192.128 125.68C192.288 126.187 192.515 126.547 192.808 126.76C193.102 126.973 193.488 127.08 193.968 127.08C194.288 127.08 194.595 127.04 194.888 126.96C195.182 126.853 195.435 126.773 195.648 126.72C195.968 126.533 196.168 126.48 196.248 126.56C196.328 126.613 196.422 126.773 196.528 127.04L197.208 129.44C197.315 129.627 197.288 129.8 197.128 129.96C196.968 130.093 196.648 130.253 196.168 130.44C195.848 130.547 195.502 130.653 195.128 130.76C194.755 130.84 194.382 130.907 194.008 130.96C193.635 130.987 193.275 131 192.928 131Z" fill="white"/>
</svg>
