<svg width="200" height="200" viewBox="0 0 200 200" fill="none" xmlns="http://www.w3.org/2000/svg">
<rect width="200" height="200" fill="#CCC6C6"/>
<path d="M32.1358 87C31.6878 87 31.4638 86.808 31.4638 86.424V55.32C31.4638 54.904 31.6878 54.696 32.1358 54.696H36.9838C37.3038 54.696 37.5118 54.76 37.6078 54.888C37.7358 54.984 37.7998 55.192 37.7998 55.512V81.672C37.7998 81.864 37.8158 81.992 37.8478 82.056C37.8798 82.088 37.9918 82.104 38.1838 82.104H47.9758C48.4238 82.104 48.6798 82.152 48.7438 82.248C48.8398 82.344 48.8878 82.6 48.8878 83.016V86.088C48.8878 86.536 48.8398 86.808 48.7438 86.904C48.6478 86.968 48.3918 87 47.9758 87H32.1358ZM60.4306 87.336C58.7986 87.336 57.2626 87.16 55.8226 86.808C54.4146 86.424 53.2626 85.704 52.3666 84.648C51.5026 83.592 51.0706 82.056 51.0706 80.04C51.0706 78.376 51.3746 77.016 51.9826 75.96C52.6226 74.872 53.4226 74.04 54.3826 73.464C55.3746 72.888 56.3986 72.504 57.4546 72.312C58.5106 72.088 59.4546 71.976 60.2866 71.976C60.9586 71.976 61.5986 72.008 62.2066 72.072C62.8466 72.104 63.4386 72.168 63.9826 72.264C64.2706 72.36 64.4146 72.152 64.4146 71.64C64.4146 70.456 64.0466 69.624 63.3106 69.144C62.6066 68.664 61.6146 68.424 60.3346 68.424C59.1186 68.424 57.9506 68.648 56.8306 69.096C55.7426 69.544 54.8146 69.96 54.0466 70.344C53.6946 70.536 53.4546 70.6 53.3266 70.536C53.2306 70.472 53.1506 70.264 53.0866 69.912L52.6546 67.224C52.5906 66.808 52.5906 66.536 52.6546 66.408C52.7186 66.28 52.8946 66.12 53.1826 65.928C54.0146 65.384 55.0706 64.952 56.3506 64.632C57.6306 64.28 58.9906 64.104 60.4306 64.104C62.6066 64.104 64.3506 64.36 65.6626 64.872C66.9746 65.352 67.9506 66.008 68.5906 66.84C69.2626 67.672 69.6946 68.632 69.8866 69.72C70.1106 70.776 70.2226 71.88 70.2226 73.032C70.2546 74.376 70.2546 75.704 70.2226 77.016C70.2226 78.296 70.1906 79.576 70.1266 80.856C70.0626 82.136 69.9666 83.432 69.8386 84.744C69.7746 85.096 69.6786 85.368 69.5506 85.56C69.4226 85.72 69.1666 85.896 68.7826 86.088C68.3346 86.312 67.7426 86.504 67.0066 86.664C66.2706 86.792 65.4706 86.904 64.6066 87C63.7746 87.128 62.9906 87.208 62.2546 87.24C61.5186 87.304 60.9106 87.336 60.4306 87.336ZM60.8146 83.64C61.0706 83.64 61.3586 83.624 61.6786 83.592C61.9986 83.528 62.3186 83.448 62.6386 83.352C62.9586 83.256 63.2146 83.128 63.4066 82.968C63.6306 82.808 63.7586 82.6 63.7906 82.344C63.8866 81.576 63.9666 80.728 64.0306 79.8C64.0946 78.872 64.0946 77.976 64.0306 77.112C64.0306 76.696 63.8706 76.408 63.5506 76.248C63.2306 76.024 62.7666 75.896 62.1586 75.864C61.5826 75.8 61.1026 75.768 60.7186 75.768C60.4306 75.768 60.0626 75.832 59.6146 75.96C59.1986 76.056 58.7986 76.248 58.4146 76.536C58.0306 76.824 57.7106 77.256 57.4546 77.832C57.2306 78.408 57.1186 79.144 57.1186 80.04C57.1186 80.744 57.2626 81.368 57.5506 81.912C57.8386 82.456 58.2546 82.888 58.7986 83.208C59.3426 83.496 60.0146 83.64 60.8146 83.64ZM74.8655 87C74.4175 87 74.1935 86.792 74.1935 86.376C74.1935 83.048 74.1935 79.736 74.1935 76.44C74.1935 73.112 74.1935 69.784 74.1935 66.456C74.1935 66.136 74.3055 65.896 74.5295 65.736C74.7535 65.576 75.1855 65.384 75.8255 65.16C76.2415 65.032 76.8495 64.888 77.6495 64.728C78.4815 64.536 79.3775 64.36 80.3375 64.2C81.2975 64.04 82.1615 63.96 82.9295 63.96C85.5855 63.96 87.6175 64.472 89.0255 65.496C90.4655 66.488 91.4415 67.816 91.9535 69.48C92.4975 71.112 92.7695 72.92 92.7695 74.904C92.7695 76.088 92.7375 77.336 92.6735 78.648C92.6415 79.928 92.5775 81.192 92.4815 82.44C92.3855 83.688 92.2895 84.824 92.1935 85.848C92.1295 86.424 92.0335 86.76 91.9055 86.856C91.7775 86.952 91.4895 87 91.0415 87H87.1055C86.6575 87 86.3535 86.952 86.1935 86.856C86.0655 86.728 86.0175 86.472 86.0495 86.088C86.0495 85.96 86.0655 85.464 86.0975 84.6C86.1615 83.704 86.2255 82.648 86.2895 81.432C86.3535 80.216 86.4015 79.016 86.4335 77.832C86.4975 76.648 86.5295 75.688 86.5295 74.952C86.5295 73.288 86.3855 72.024 86.0975 71.16C85.8095 70.264 85.3935 69.656 84.8495 69.336C84.3055 69.016 83.6175 68.856 82.7855 68.856C82.4655 68.856 82.1615 68.872 81.8735 68.904C81.5855 68.936 81.3295 68.984 81.1055 69.048C80.8175 69.08 80.6095 69.208 80.4815 69.432C80.3535 69.656 80.2895 70.024 80.2895 70.536C80.2895 71.88 80.2895 73.432 80.2895 75.192C80.2895 76.952 80.2895 78.776 80.2895 80.664C80.2895 82.552 80.2895 84.456 80.2895 86.376C80.2895 86.792 80.1135 87 79.7615 87H74.8655ZM96.2135 76.008C96.2775 73.576 96.5975 71.592 97.1735 70.056C97.7815 68.52 98.5495 67.32 99.4775 66.456C100.438 65.592 101.494 65 102.646 64.68C103.798 64.36 104.966 64.2 106.15 64.2C106.598 64.2 107.11 64.248 107.686 64.344C108.262 64.44 108.71 64.52 109.03 64.584C109.254 64.648 109.43 64.664 109.558 64.632C109.718 64.6 109.798 64.456 109.798 64.2C109.798 63.624 109.782 63.016 109.75 62.376C109.75 61.736 109.718 61.096 109.654 60.456C109.622 59.784 109.574 59.128 109.51 58.488C109.446 57.816 109.382 57.192 109.318 56.616C109.286 56.008 109.238 55.464 109.174 54.984C109.11 54.44 109.126 54.12 109.222 54.024C109.35 53.928 109.558 53.88 109.846 53.88H114.454C114.678 53.88 114.854 53.896 114.982 53.928C115.142 53.96 115.238 54.088 115.27 54.312C115.398 55.624 115.51 57.16 115.606 58.92C115.702 60.648 115.782 62.52 115.846 64.536C115.91 66.52 115.942 68.52 115.942 70.536C115.974 72.552 115.958 74.488 115.894 76.344C115.862 78.2 115.782 79.848 115.654 81.288C115.558 82.728 115.414 83.832 115.222 84.6C115.126 84.984 114.982 85.272 114.79 85.464C114.63 85.656 114.198 85.88 113.494 86.136C112.886 86.392 111.91 86.664 110.566 86.952C109.222 87.208 107.75 87.336 106.15 87.336C104.902 87.304 103.734 87.16 102.646 86.904C101.59 86.616 100.662 86.168 99.8615 85.56C98.6455 84.696 97.7335 83.48 97.1255 81.912C96.5175 80.312 96.2135 78.344 96.2135 76.008ZM102.502 76.056C102.47 78.264 102.726 79.832 103.27 80.76C103.846 81.656 104.566 82.168 105.43 82.296C105.814 82.424 106.214 82.504 106.63 82.536C107.078 82.536 107.51 82.504 107.926 82.44C108.374 82.344 108.758 82.232 109.078 82.104C109.174 82.04 109.238 81.976 109.27 81.912C109.334 81.816 109.366 81.688 109.366 81.528C109.398 80.824 109.43 80.088 109.462 79.32C109.526 78.552 109.558 77.784 109.558 77.016C109.59 76.248 109.622 75.48 109.654 74.712C109.686 73.944 109.702 73.208 109.702 72.504C109.734 71.8 109.734 71.144 109.702 70.536C109.702 70.312 109.67 70.168 109.606 70.104C109.574 70.008 109.494 69.944 109.366 69.912C108.95 69.752 108.454 69.624 107.878 69.528C107.334 69.4 106.87 69.336 106.486 69.336C106.102 69.336 105.67 69.416 105.19 69.576C104.742 69.736 104.31 70.04 103.894 70.488C103.51 70.936 103.19 71.608 102.934 72.504C102.678 73.368 102.534 74.552 102.502 76.056ZM126.418 58.152C126.418 59.112 126.21 59.848 125.794 60.36C125.378 60.84 124.514 61.08 123.202 61.08C121.954 61.08 121.09 60.84 120.61 60.36C120.162 59.848 119.938 59.112 119.938 58.152C119.938 57.32 120.162 56.648 120.61 56.136C121.09 55.592 121.954 55.32 123.202 55.32C124.578 55.32 125.458 55.592 125.842 56.136C126.226 56.648 126.418 57.32 126.418 58.152ZM126.274 86.424C126.274 86.808 126.066 87 125.65 87H120.706C120.322 87 120.13 86.808 120.13 86.424V64.92C120.13 64.536 120.322 64.344 120.706 64.344H125.65C126.066 64.344 126.274 64.536 126.274 64.92V86.424ZM131.022 87C130.574 87 130.35 86.792 130.35 86.376C130.35 83.048 130.35 79.736 130.35 76.44C130.35 73.112 130.35 69.784 130.35 66.456C130.35 66.136 130.462 65.896 130.686 65.736C130.91 65.576 131.342 65.384 131.982 65.16C132.398 65.032 133.006 64.888 133.806 64.728C134.638 64.536 135.534 64.36 136.494 64.2C137.454 64.04 138.318 63.96 139.086 63.96C141.742 63.96 143.774 64.472 145.182 65.496C146.622 66.488 147.598 67.816 148.11 69.48C148.654 71.112 148.926 72.92 148.926 74.904C148.926 76.088 148.894 77.336 148.83 78.648C148.798 79.928 148.734 81.192 148.638 82.44C148.542 83.688 148.446 84.824 148.35 85.848C148.286 86.424 148.19 86.76 148.062 86.856C147.934 86.952 147.646 87 147.198 87H143.262C142.814 87 142.51 86.952 142.35 86.856C142.222 86.728 142.174 86.472 142.206 86.088C142.206 85.96 142.222 85.464 142.254 84.6C142.318 83.704 142.382 82.648 142.446 81.432C142.51 80.216 142.558 79.016 142.59 77.832C142.654 76.648 142.686 75.688 142.686 74.952C142.686 73.288 142.542 72.024 142.254 71.16C141.966 70.264 141.55 69.656 141.006 69.336C140.462 69.016 139.774 68.856 138.942 68.856C138.622 68.856 138.318 68.872 138.03 68.904C137.742 68.936 137.486 68.984 137.262 69.048C136.974 69.08 136.766 69.208 136.638 69.432C136.51 69.656 136.446 70.024 136.446 70.536C136.446 71.88 136.446 73.432 136.446 75.192C136.446 76.952 136.446 78.776 136.446 80.664C136.446 82.552 136.446 84.456 136.446 86.376C136.446 86.792 136.27 87 135.918 87H131.022ZM152.13 75.384C152.162 73.208 152.466 71.272 153.042 69.576C153.65 67.848 154.706 66.504 156.21 65.544C157.746 64.552 159.89 64.056 162.642 64.056C163.922 64.056 165.17 64.168 166.386 64.392C167.634 64.584 168.738 64.856 169.698 65.208C170.466 65.496 170.93 65.816 171.09 66.168C171.25 66.52 171.378 67.112 171.474 67.944C171.794 70.536 171.954 73.336 171.954 76.344C171.986 79.352 171.81 82.28 171.426 85.128C171.074 87.912 170.034 89.944 168.306 91.224C166.578 92.536 164.21 93.192 161.202 93.192C160.018 93.192 158.706 93.016 157.266 92.664C155.858 92.344 154.53 91.72 153.282 90.792C153.154 90.696 153.042 90.536 152.946 90.312C152.85 90.088 152.866 89.864 152.994 89.64C153.154 89.416 153.378 89.032 153.666 88.488C153.986 87.944 154.21 87.56 154.338 87.336C154.562 86.952 154.738 86.744 154.866 86.712C155.026 86.68 155.266 86.776 155.586 87C155.938 87.256 156.418 87.512 157.026 87.768C157.666 88.024 158.322 88.248 158.994 88.44C159.698 88.632 160.274 88.728 160.722 88.728C161.234 88.728 161.794 88.648 162.402 88.488C163.01 88.328 163.57 88.04 164.082 87.624C164.594 87.208 164.914 86.584 165.042 85.752C165.042 85.72 165.042 85.688 165.042 85.656C165.074 85.624 165.09 85.592 165.09 85.56C165.122 85.336 165.09 85.16 164.994 85.032C164.898 84.872 164.69 84.824 164.37 84.888C164.082 84.952 163.698 85.016 163.218 85.08C162.77 85.112 162.322 85.128 161.874 85.128C160.146 85.128 158.546 84.776 157.074 84.072C155.602 83.368 154.402 82.296 153.474 80.856C152.578 79.384 152.13 77.56 152.13 75.384ZM158.562 74.376C158.562 75.56 158.674 76.632 158.898 77.592C159.122 78.552 159.506 79.304 160.05 79.848C160.594 80.36 161.362 80.616 162.354 80.616C162.802 80.616 163.234 80.6 163.65 80.568C164.098 80.504 164.482 80.392 164.802 80.232C165.218 80.072 165.442 79.752 165.474 79.272C165.538 78.632 165.57 77.864 165.57 76.968C165.57 76.04 165.554 75.096 165.522 74.136C165.522 73.144 165.506 72.264 165.474 71.496C165.442 70.696 165.41 70.088 165.378 69.672C165.378 69.48 165.33 69.272 165.234 69.048C165.17 68.792 165.058 68.632 164.898 68.568C164.61 68.408 164.258 68.296 163.842 68.232C163.458 68.136 162.978 68.088 162.402 68.088C161.442 68.088 160.674 68.36 160.098 68.904C159.554 69.448 159.17 70.2 158.946 71.16C158.722 72.088 158.594 73.16 158.562 74.376ZM77.4093 119.16C77.4093 121.208 77.0253 123.096 76.2573 124.824C75.5213 126.552 74.4173 127.944 72.9453 129C71.4733 130.024 69.6173 130.536 67.3773 130.536H64.7853C64.6573 130.536 64.5613 130.584 64.4973 130.68C64.4333 130.744 64.4013 130.84 64.4013 130.968V140.424C64.4013 140.808 64.1773 141 63.7293 141H58.6893C58.2733 141 58.0653 140.808 58.0653 140.424V109.32C58.0653 108.904 58.2733 108.696 58.6893 108.696H66.8493C70.5933 108.696 73.2813 109.56 74.9133 111.288C76.5773 112.984 77.4093 115.608 77.4093 119.16ZM64.4013 125.496C64.4013 125.784 64.5293 125.928 64.7853 125.928H66.7533C68.1613 125.928 69.2653 125.336 70.0653 124.152C70.8653 122.968 71.2653 121.32 71.2653 119.208C71.2333 116.968 70.8173 115.4 70.0173 114.504C69.2173 113.576 68.0973 113.112 66.6573 113.112H64.7853C64.6253 113.112 64.5133 113.128 64.4493 113.16C64.4173 113.192 64.4013 113.32 64.4013 113.544V125.496ZM89.8916 141.336C88.2596 141.336 86.7236 141.16 85.2836 140.808C83.8756 140.424 82.7236 139.704 81.8276 138.648C80.9636 137.592 80.5316 136.056 80.5316 134.04C80.5316 132.376 80.8356 131.016 81.4436 129.96C82.0836 128.872 82.8836 128.04 83.8436 127.464C84.8356 126.888 85.8596 126.504 86.9156 126.312C87.9716 126.088 88.9156 125.976 89.7476 125.976C90.4196 125.976 91.0596 126.008 91.6676 126.072C92.3076 126.104 92.8996 126.168 93.4436 126.264C93.7316 126.36 93.8756 126.152 93.8756 125.64C93.8756 124.456 93.5076 123.624 92.7716 123.144C92.0676 122.664 91.0756 122.424 89.7956 122.424C88.5796 122.424 87.4116 122.648 86.2916 123.096C85.2036 123.544 84.2756 123.96 83.5076 124.344C83.1556 124.536 82.9156 124.6 82.7876 124.536C82.6916 124.472 82.6116 124.264 82.5476 123.912L82.1156 121.224C82.0516 120.808 82.0516 120.536 82.1156 120.408C82.1796 120.28 82.3556 120.12 82.6436 119.928C83.4756 119.384 84.5316 118.952 85.8116 118.632C87.0916 118.28 88.4516 118.104 89.8916 118.104C92.0676 118.104 93.8116 118.36 95.1236 118.872C96.4356 119.352 97.4116 120.008 98.0516 120.84C98.7236 121.672 99.1556 122.632 99.3476 123.72C99.5716 124.776 99.6836 125.88 99.6836 127.032C99.7156 128.376 99.7156 129.704 99.6836 131.016C99.6836 132.296 99.6516 133.576 99.5876 134.856C99.5236 136.136 99.4276 137.432 99.2996 138.744C99.2356 139.096 99.1396 139.368 99.0116 139.56C98.8836 139.72 98.6276 139.896 98.2436 140.088C97.7956 140.312 97.2036 140.504 96.4676 140.664C95.7316 140.792 94.9316 140.904 94.0676 141C93.2356 141.128 92.4516 141.208 91.7156 141.24C90.9796 141.304 90.3716 141.336 89.8916 141.336ZM90.2756 137.64C90.5316 137.64 90.8196 137.624 91.1396 137.592C91.4596 137.528 91.7796 137.448 92.0996 137.352C92.4196 137.256 92.6756 137.128 92.8676 136.968C93.0916 136.808 93.2196 136.6 93.2516 136.344C93.3476 135.576 93.4276 134.728 93.4916 133.8C93.5556 132.872 93.5556 131.976 93.4916 131.112C93.4916 130.696 93.3316 130.408 93.0116 130.248C92.6916 130.024 92.2276 129.896 91.6196 129.864C91.0436 129.8 90.5636 129.768 90.1796 129.768C89.8916 129.768 89.5236 129.832 89.0756 129.96C88.6596 130.056 88.2596 130.248 87.8756 130.536C87.4916 130.824 87.1716 131.256 86.9156 131.832C86.6916 132.408 86.5796 133.144 86.5796 134.04C86.5796 134.744 86.7236 135.368 87.0116 135.912C87.2996 136.456 87.7156 136.888 88.2596 137.208C88.8036 137.496 89.4756 137.64 90.2756 137.64ZM102.934 129.384C102.966 127.208 103.27 125.272 103.846 123.576C104.454 121.848 105.51 120.504 107.014 119.544C108.55 118.552 110.694 118.056 113.446 118.056C114.726 118.056 115.974 118.168 117.19 118.392C118.438 118.584 119.542 118.856 120.502 119.208C121.27 119.496 121.734 119.816 121.894 120.168C122.054 120.52 122.182 121.112 122.278 121.944C122.598 124.536 122.758 127.336 122.758 130.344C122.79 133.352 122.614 136.28 122.23 139.128C121.878 141.912 120.838 143.944 119.11 145.224C117.382 146.536 115.014 147.192 112.006 147.192C110.822 147.192 109.51 147.016 108.07 146.664C106.662 146.344 105.334 145.72 104.086 144.792C103.958 144.696 103.846 144.536 103.75 144.312C103.654 144.088 103.67 143.864 103.798 143.64C103.958 143.416 104.182 143.032 104.47 142.488C104.79 141.944 105.014 141.56 105.142 141.336C105.366 140.952 105.542 140.744 105.67 140.712C105.83 140.68 106.07 140.776 106.39 141C106.742 141.256 107.222 141.512 107.83 141.768C108.47 142.024 109.126 142.248 109.798 142.44C110.502 142.632 111.078 142.728 111.526 142.728C112.038 142.728 112.598 142.648 113.206 142.488C113.814 142.328 114.374 142.04 114.886 141.624C115.398 141.208 115.718 140.584 115.846 139.752C115.846 139.72 115.846 139.688 115.846 139.656C115.878 139.624 115.894 139.592 115.894 139.56C115.926 139.336 115.894 139.16 115.798 139.032C115.702 138.872 115.494 138.824 115.174 138.888C114.886 138.952 114.502 139.016 114.022 139.08C113.574 139.112 113.126 139.128 112.678 139.128C110.95 139.128 109.35 138.776 107.878 138.072C106.406 137.368 105.206 136.296 104.278 134.856C103.382 133.384 102.934 131.56 102.934 129.384ZM109.366 128.376C109.366 129.56 109.478 130.632 109.702 131.592C109.926 132.552 110.31 133.304 110.854 133.848C111.398 134.36 112.166 134.616 113.158 134.616C113.606 134.616 114.038 134.6 114.454 134.568C114.902 134.504 115.286 134.392 115.606 134.232C116.022 134.072 116.246 133.752 116.278 133.272C116.342 132.632 116.374 131.864 116.374 130.968C116.374 130.04 116.358 129.096 116.326 128.136C116.326 127.144 116.31 126.264 116.278 125.496C116.246 124.696 116.214 124.088 116.182 123.672C116.182 123.48 116.134 123.272 116.038 123.048C115.974 122.792 115.862 122.632 115.702 122.568C115.414 122.408 115.062 122.296 114.646 122.232C114.262 122.136 113.782 122.088 113.206 122.088C112.246 122.088 111.478 122.36 110.902 122.904C110.358 123.448 109.974 124.2 109.75 125.16C109.526 126.088 109.398 127.16 109.366 128.376ZM125.997 129.624C125.997 128.12 126.157 126.68 126.477 125.304C126.797 123.928 127.325 122.68 128.061 121.56C128.829 120.44 129.869 119.56 131.181 118.92C132.525 118.28 134.205 117.96 136.221 117.96C138.333 117.96 140.013 118.264 141.261 118.872C142.509 119.448 143.453 120.232 144.093 121.224C144.733 122.216 145.149 123.304 145.341 124.488C145.565 125.64 145.677 126.792 145.677 127.944C145.677 129.288 145.517 130.184 145.197 130.632C144.909 131.048 144.445 131.256 143.805 131.256H132.669C132.477 131.256 132.349 131.304 132.285 131.4C132.253 131.464 132.237 131.608 132.237 131.832C132.237 132.792 132.445 133.672 132.861 134.472C133.309 135.24 133.949 135.848 134.781 136.296C135.613 136.744 136.589 136.968 137.709 136.968C138.765 136.968 139.773 136.808 140.733 136.488C141.693 136.136 142.397 135.832 142.845 135.576C143.229 135.352 143.533 135.224 143.757 135.192C143.981 135.128 144.221 135.352 144.477 135.864L145.485 137.88C145.677 138.232 145.725 138.488 145.629 138.648C145.533 138.776 145.325 138.952 145.005 139.176C143.885 139.944 142.541 140.504 140.973 140.856C139.405 141.208 137.837 141.384 136.269 141.384C134.189 141.384 132.477 141.08 131.133 140.472C129.789 139.864 128.749 139.016 128.013 137.928C127.277 136.84 126.749 135.592 126.429 134.184C126.141 132.744 125.997 131.224 125.997 129.624ZM139.485 126.936C139.485 126.04 139.373 125.272 139.149 124.632C138.925 123.992 138.557 123.496 138.045 123.144C137.565 122.792 136.909 122.616 136.077 122.616C135.405 122.616 134.829 122.744 134.349 123C133.901 123.256 133.533 123.592 133.245 124.008C132.957 124.424 132.733 124.888 132.573 125.4C132.413 125.88 132.301 126.344 132.237 126.792C132.205 127.304 132.205 127.624 132.237 127.752C132.269 127.848 132.397 127.896 132.621 127.896H138.909C139.197 127.896 139.373 127.848 139.437 127.752C139.501 127.656 139.517 127.384 139.485 126.936Z" fill="white"/>
</svg>
