<svg width="200" height="200" viewBox="0 0 200 200" fill="none" xmlns="http://www.w3.org/2000/svg">
<rect width="200" height="200" fill="#C66969"/>
<path d="M61.2764 86C60.8284 86 60.6044 85.808 60.6044 85.424V54.32C60.6044 53.904 60.8284 53.696 61.2764 53.696H66.1244C66.4444 53.696 66.6524 53.76 66.7484 53.888C66.8764 53.984 66.9404 54.192 66.9404 54.512V80.672C66.9404 80.864 66.9564 80.992 66.9884 81.056C67.0204 81.088 67.1324 81.104 67.3244 81.104H77.1164C77.5644 81.104 77.8204 81.152 77.8844 81.248C77.9804 81.344 78.0284 81.6 78.0284 82.016V85.088C78.0284 85.536 77.9804 85.808 77.8844 85.904C77.7884 85.968 77.5324 86 77.1164 86H61.2764ZM90.5793 86.384C87.7953 86.384 85.6353 85.872 84.0993 84.848C82.5953 83.792 81.5393 82.384 80.9313 80.624C80.3553 78.832 80.0673 76.8 80.0673 74.528C80.0673 72.32 80.4033 70.352 81.0753 68.624C81.7473 66.864 82.8353 65.488 84.3393 64.496C85.8753 63.472 87.9553 62.96 90.5793 62.96C93.2353 62.96 95.3153 63.472 96.8193 64.496C98.3553 65.488 99.4433 66.864 100.083 68.624C100.755 70.352 101.091 72.32 101.091 74.528C101.091 76.768 100.803 78.784 100.227 80.576C99.6513 82.336 98.5953 83.744 97.0593 84.8C95.5553 85.856 93.3953 86.384 90.5793 86.384ZM90.5312 81.68C92.0993 81.68 93.2033 81.072 93.8433 79.856C94.4833 78.64 94.8033 76.928 94.8033 74.72C94.8033 72.512 94.4513 70.848 93.7473 69.728C93.0753 68.576 92.0033 68 90.5312 68C89.0913 68 88.0193 68.576 87.3153 69.728C86.6433 70.848 86.3073 72.512 86.3073 74.72C86.3073 76.96 86.6113 78.688 87.2193 79.904C87.8593 81.088 88.9633 81.68 90.5312 81.68ZM111.264 86C111.008 86 110.816 85.904 110.688 85.712C109.824 84.4 109.072 82.976 108.432 81.44C107.824 79.904 107.248 78.384 106.704 76.88C105.744 74.32 105.008 72.064 104.496 70.112C104.016 68.16 103.632 66.368 103.344 64.736C103.184 63.808 103.328 63.344 103.776 63.344H108.912C109.136 63.344 109.312 63.424 109.44 63.584C109.568 63.712 109.648 63.856 109.68 64.016C109.776 64.944 109.92 65.936 110.112 66.992C110.336 68.048 110.608 69.264 110.928 70.64C111.28 72.208 111.6 73.52 111.888 74.576C112.208 75.6 112.496 76.544 112.752 77.408C112.848 77.696 112.96 77.824 113.088 77.792C113.248 77.76 113.376 77.632 113.472 77.408C113.696 76.8 113.92 76.064 114.144 75.2C114.368 74.336 114.64 73.216 114.96 71.84C115.28 70.304 115.568 68.8 115.824 67.328C116.112 65.824 116.288 64.592 116.352 63.632C116.384 63.472 116.48 63.392 116.64 63.392H122.112C122.304 63.392 122.384 63.504 122.352 63.728C122.032 65.776 121.6 67.92 121.056 70.16C120.544 72.368 119.872 74.624 119.04 76.928C118.56 78.336 118 79.776 117.36 81.248C116.72 82.688 115.968 84.192 115.104 85.76C115.008 85.952 114.864 86.048 114.672 86.048L111.264 86ZM124.458 74.624C124.458 73.12 124.618 71.68 124.938 70.304C125.258 68.928 125.786 67.68 126.522 66.56C127.29 65.44 128.33 64.56 129.642 63.92C130.986 63.28 132.666 62.96 134.682 62.96C136.794 62.96 138.474 63.264 139.722 63.872C140.97 64.448 141.914 65.232 142.554 66.224C143.194 67.216 143.61 68.304 143.802 69.488C144.026 70.64 144.138 71.792 144.138 72.944C144.138 74.288 143.978 75.184 143.658 75.632C143.37 76.048 142.906 76.256 142.266 76.256H131.13C130.938 76.256 130.81 76.304 130.746 76.4C130.714 76.464 130.698 76.608 130.698 76.832C130.698 77.792 130.906 78.672 131.322 79.472C131.77 80.24 132.41 80.848 133.242 81.296C134.074 81.744 135.05 81.968 136.17 81.968C137.226 81.968 138.234 81.808 139.194 81.488C140.154 81.136 140.858 80.832 141.306 80.576C141.69 80.352 141.994 80.224 142.218 80.192C142.442 80.128 142.682 80.352 142.938 80.864L143.946 82.88C144.138 83.232 144.186 83.488 144.09 83.648C143.994 83.776 143.786 83.952 143.466 84.176C142.346 84.944 141.002 85.504 139.434 85.856C137.866 86.208 136.298 86.384 134.73 86.384C132.65 86.384 130.938 86.08 129.594 85.472C128.25 84.864 127.21 84.016 126.474 82.928C125.738 81.84 125.21 80.592 124.89 79.184C124.602 77.744 124.458 76.224 124.458 74.624ZM137.946 71.936C137.946 71.04 137.834 70.272 137.61 69.632C137.386 68.992 137.018 68.496 136.506 68.144C136.026 67.792 135.37 67.616 134.538 67.616C133.866 67.616 133.29 67.744 132.81 68C132.362 68.256 131.994 68.592 131.706 69.008C131.418 69.424 131.194 69.888 131.034 70.4C130.874 70.88 130.762 71.344 130.698 71.792C130.666 72.304 130.666 72.624 130.698 72.752C130.73 72.848 130.858 72.896 131.082 72.896H137.37C137.658 72.896 137.834 72.848 137.898 72.752C137.962 72.656 137.978 72.384 137.946 71.936ZM28.4459 138.32C28.4459 139.088 27.9979 139.584 27.1019 139.808C26.6539 139.968 26.0939 140.08 25.4219 140.144C24.7819 140.24 24.1579 140.304 23.5499 140.336C22.9739 140.368 22.5259 140.384 22.2059 140.384C18.3339 140.384 15.2299 138.992 12.8939 136.208C10.5579 133.424 9.38988 129.328 9.38988 123.92C9.38988 118.48 10.5099 114.368 12.7499 111.584C15.0219 108.768 18.1739 107.36 22.2059 107.36C22.5259 107.36 22.9739 107.392 23.5499 107.456C24.1579 107.488 24.7819 107.552 25.4219 107.648C26.0939 107.712 26.6539 107.824 27.1019 107.984C27.5499 108.08 27.8859 108.208 28.1099 108.368C28.3339 108.528 28.4459 108.752 28.4459 109.04V113.216C28.4459 114.08 27.9819 114.192 27.0539 113.552C26.4139 113.136 25.7099 112.832 24.9419 112.64C24.1739 112.416 23.4219 112.304 22.6859 112.304C21.3739 112.304 20.2699 112.592 19.3739 113.168C18.5099 113.712 17.8219 114.496 17.3099 115.52C16.7979 116.512 16.4299 117.664 16.2059 118.976C15.9819 120.288 15.8699 121.728 15.8699 123.296C15.8699 124.352 15.9179 125.44 16.0139 126.56C16.1419 127.68 16.3339 128.784 16.5899 129.872C16.8779 130.928 17.2619 131.888 17.7419 132.752C18.2539 133.616 18.9099 134.304 19.7099 134.816C20.5419 135.296 21.5339 135.536 22.6859 135.536C23.5179 135.536 24.3179 135.44 25.0859 135.248C25.8539 135.024 26.4619 134.784 26.9099 134.528C27.5179 134.144 27.9179 133.968 28.1099 134C28.3339 134.032 28.4459 134.288 28.4459 134.768V138.32ZM41.0088 140.336C39.3768 140.336 37.8408 140.16 36.4008 139.808C34.9928 139.424 33.8408 138.704 32.9448 137.648C32.0808 136.592 31.6488 135.056 31.6488 133.04C31.6488 131.376 31.9528 130.016 32.5608 128.96C33.2008 127.872 34.0008 127.04 34.9608 126.464C35.9528 125.888 36.9768 125.504 38.0328 125.312C39.0888 125.088 40.0328 124.976 40.8648 124.976C41.5368 124.976 42.1768 125.008 42.7848 125.072C43.4248 125.104 44.0168 125.168 44.5608 125.264C44.8488 125.36 44.9928 125.152 44.9928 124.64C44.9928 123.456 44.6248 122.624 43.8888 122.144C43.1848 121.664 42.1928 121.424 40.9128 121.424C39.6968 121.424 38.5288 121.648 37.4088 122.096C36.3208 122.544 35.3928 122.96 34.6248 123.344C34.2728 123.536 34.0328 123.6 33.9048 123.536C33.8088 123.472 33.7288 123.264 33.6648 122.912L33.2328 120.224C33.1688 119.808 33.1688 119.536 33.2328 119.408C33.2968 119.28 33.4728 119.12 33.7608 118.928C34.5928 118.384 35.6488 117.952 36.9288 117.632C38.2088 117.28 39.5688 117.104 41.0088 117.104C43.1848 117.104 44.9288 117.36 46.2408 117.872C47.5528 118.352 48.5288 119.008 49.1688 119.84C49.8408 120.672 50.2728 121.632 50.4648 122.72C50.6888 123.776 50.8008 124.88 50.8008 126.032C50.8328 127.376 50.8328 128.704 50.8008 130.016C50.8008 131.296 50.7688 132.576 50.7048 133.856C50.6408 135.136 50.5448 136.432 50.4168 137.744C50.3528 138.096 50.2568 138.368 50.1288 138.56C50.0008 138.72 49.7448 138.896 49.3608 139.088C48.9128 139.312 48.3208 139.504 47.5848 139.664C46.8488 139.792 46.0488 139.904 45.1848 140C44.3528 140.128 43.5688 140.208 42.8328 140.24C42.0968 140.304 41.4888 140.336 41.0088 140.336ZM41.3928 136.64C41.6488 136.64 41.9368 136.624 42.2568 136.592C42.5768 136.528 42.8968 136.448 43.2168 136.352C43.5368 136.256 43.7928 136.128 43.9848 135.968C44.2088 135.808 44.3368 135.6 44.3688 135.344C44.4648 134.576 44.5448 133.728 44.6088 132.8C44.6728 131.872 44.6728 130.976 44.6088 130.112C44.6088 129.696 44.4488 129.408 44.1288 129.248C43.8088 129.024 43.3448 128.896 42.7368 128.864C42.1608 128.8 41.6808 128.768 41.2968 128.768C41.0088 128.768 40.6408 128.832 40.1928 128.96C39.7768 129.056 39.3768 129.248 38.9928 129.536C38.6088 129.824 38.2888 130.256 38.0328 130.832C37.8088 131.408 37.6968 132.144 37.6968 133.04C37.6968 133.744 37.8408 134.368 38.1288 134.912C38.4168 135.456 38.8328 135.888 39.3768 136.208C39.9208 136.496 40.5928 136.64 41.3928 136.64ZM54.7716 139.424V106.592C54.7716 106.208 54.9796 106.016 55.3956 106.016H60.2436C60.6916 106.016 60.9156 106.208 60.9156 106.592V139.424C60.9156 139.808 60.6916 140 60.2436 140H55.3956C54.9796 140 54.7716 139.808 54.7716 139.424ZM74.8694 140.384C72.8214 140.384 71.1094 140.08 69.7334 139.472C68.3894 138.864 67.3494 138.016 66.6134 136.928C65.8774 135.84 65.3654 134.592 65.0774 133.184C64.7894 131.776 64.6454 130.256 64.6454 128.624C64.6454 127.12 64.7894 125.68 65.0774 124.304C65.3974 122.928 65.9254 121.68 66.6614 120.56C67.4294 119.44 68.4694 118.56 69.7814 117.92C71.1254 117.28 72.8054 116.96 74.8214 116.96C76.2294 116.96 77.4454 117.104 78.4694 117.392C79.5254 117.68 80.4534 118.16 81.2534 118.832C81.4774 119.056 81.6214 119.232 81.6854 119.36C81.7814 119.456 81.8294 119.632 81.8294 119.888V123.44C81.8294 123.728 81.7334 123.888 81.5414 123.92C81.3814 123.92 81.2214 123.856 81.0614 123.728C80.2294 122.992 79.3494 122.512 78.4214 122.288C77.5254 122.064 76.5974 121.952 75.6374 121.952C74.8054 121.952 74.0694 122.144 73.4294 122.528C72.8214 122.88 72.3254 123.376 71.9414 124.016C71.5574 124.656 71.2534 125.392 71.0294 126.224C70.8374 127.024 70.7414 127.84 70.7414 128.672C70.7414 130.144 70.9174 131.408 71.2694 132.464C71.6214 133.488 72.1334 134.288 72.8054 134.864C73.4774 135.408 74.3094 135.68 75.3014 135.68C76.0374 135.68 76.7574 135.584 77.4614 135.392C78.1974 135.2 78.9974 134.896 79.8614 134.48C80.4054 134.224 80.7894 134.352 81.0134 134.864L82.1654 137.552C82.2934 137.808 82.3254 138.016 82.2614 138.176C82.2294 138.304 82.1014 138.432 81.8774 138.56C81.0454 139.168 79.9894 139.632 78.7094 139.952C77.4294 140.24 76.1494 140.384 74.8694 140.384ZM94.6986 140.192C92.0746 140.192 90.0426 139.696 88.6026 138.704C87.1946 137.712 86.2186 136.4 85.6746 134.768C85.1306 133.136 84.8586 131.328 84.8586 129.344C84.8586 128.16 84.8746 126.928 84.9066 125.648C84.9706 124.368 85.0506 123.12 85.1466 121.904C85.2426 120.656 85.3546 119.52 85.4826 118.496C85.5466 117.92 85.6426 117.584 85.7706 117.488C85.8986 117.392 86.1866 117.344 86.6346 117.344H90.5226C90.9706 117.344 91.2906 117.36 91.4826 117.392C91.6746 117.392 91.7226 117.68 91.6266 118.256C91.6266 118.384 91.5946 118.848 91.5306 119.648C91.4986 120.448 91.4506 121.44 91.3866 122.624C91.3226 123.776 91.2746 124.976 91.2426 126.224C91.2106 127.44 91.1946 128.544 91.1946 129.536C91.1946 131.552 91.4666 133.04 92.0106 134C92.5866 134.928 93.5306 135.392 94.8426 135.392C95.0026 135.392 95.2266 135.392 95.5146 135.392C95.8026 135.36 96.0906 135.312 96.3786 135.248C96.6666 135.184 96.9066 135.088 97.0986 134.96C97.2906 134.832 97.3866 134.656 97.3866 134.432V118.16C97.3866 118 97.4026 117.824 97.4346 117.632C97.4666 117.44 97.5786 117.344 97.7706 117.344H102.763C102.891 117.344 103.035 117.376 103.195 117.44C103.355 117.504 103.435 117.68 103.435 117.968V137.6C103.435 137.984 103.323 138.256 103.099 138.416C102.875 138.576 102.411 138.784 101.707 139.04C101.355 139.168 100.763 139.328 99.9306 139.52C99.1306 139.68 98.2506 139.84 97.2906 140C96.3626 140.128 95.4986 140.192 94.6986 140.192ZM107.928 139.424V106.592C107.928 106.208 108.136 106.016 108.552 106.016H113.4C113.848 106.016 114.072 106.208 114.072 106.592V139.424C114.072 139.808 113.848 140 113.4 140H108.552C108.136 140 107.928 139.808 107.928 139.424ZM127.306 140.336C125.674 140.336 124.138 140.16 122.698 139.808C121.29 139.424 120.138 138.704 119.242 137.648C118.378 136.592 117.946 135.056 117.946 133.04C117.946 131.376 118.25 130.016 118.858 128.96C119.498 127.872 120.298 127.04 121.258 126.464C122.25 125.888 123.274 125.504 124.33 125.312C125.386 125.088 126.33 124.976 127.162 124.976C127.834 124.976 128.474 125.008 129.082 125.072C129.722 125.104 130.314 125.168 130.858 125.264C131.146 125.36 131.29 125.152 131.29 124.64C131.29 123.456 130.922 122.624 130.186 122.144C129.482 121.664 128.49 121.424 127.21 121.424C125.994 121.424 124.826 121.648 123.706 122.096C122.618 122.544 121.69 122.96 120.922 123.344C120.57 123.536 120.33 123.6 120.202 123.536C120.106 123.472 120.026 123.264 119.962 122.912L119.53 120.224C119.466 119.808 119.466 119.536 119.53 119.408C119.594 119.28 119.77 119.12 120.058 118.928C120.89 118.384 121.946 117.952 123.226 117.632C124.506 117.28 125.866 117.104 127.306 117.104C129.482 117.104 131.226 117.36 132.538 117.872C133.85 118.352 134.826 119.008 135.466 119.84C136.138 120.672 136.57 121.632 136.762 122.72C136.986 123.776 137.098 124.88 137.098 126.032C137.13 127.376 137.13 128.704 137.098 130.016C137.098 131.296 137.066 132.576 137.002 133.856C136.938 135.136 136.842 136.432 136.714 137.744C136.65 138.096 136.554 138.368 136.426 138.56C136.298 138.72 136.042 138.896 135.658 139.088C135.21 139.312 134.618 139.504 133.882 139.664C133.146 139.792 132.346 139.904 131.482 140C130.65 140.128 129.866 140.208 129.13 140.24C128.394 140.304 127.786 140.336 127.306 140.336ZM127.69 136.64C127.946 136.64 128.234 136.624 128.554 136.592C128.874 136.528 129.194 136.448 129.514 136.352C129.834 136.256 130.09 136.128 130.282 135.968C130.506 135.808 130.634 135.6 130.666 135.344C130.762 134.576 130.842 133.728 130.906 132.8C130.97 131.872 130.97 130.976 130.906 130.112C130.906 129.696 130.746 129.408 130.426 129.248C130.106 129.024 129.642 128.896 129.034 128.864C128.458 128.8 127.978 128.768 127.594 128.768C127.306 128.768 126.938 128.832 126.49 128.96C126.074 129.056 125.674 129.248 125.29 129.536C124.906 129.824 124.586 130.256 124.33 130.832C124.106 131.408 123.994 132.144 123.994 133.04C123.994 133.744 124.138 134.368 124.426 134.912C124.714 135.456 125.13 135.888 125.674 136.208C126.218 136.496 126.89 136.64 127.69 136.64ZM149.949 140C147.773 140 146.141 139.552 145.053 138.656C143.997 137.728 143.293 136.448 142.941 134.816C142.685 133.472 142.541 132.096 142.509 130.688C142.509 129.28 142.509 127.856 142.509 126.416C142.509 125.488 142.509 124.672 142.509 123.968C142.541 123.264 142.573 122.48 142.605 121.616C142.605 121.296 142.461 121.136 142.173 121.136H140.205C139.949 121.136 139.773 121.104 139.677 121.04C139.613 120.976 139.581 120.784 139.581 120.464V118.064C139.581 117.68 139.613 117.472 139.677 117.44C139.773 117.376 139.997 117.344 140.349 117.344H142.317C142.573 117.344 142.717 117.28 142.749 117.152C142.781 117.024 142.813 116.816 142.845 116.528L143.037 112.928C143.037 112.544 143.229 112.352 143.613 112.352H148.413C148.573 112.352 148.733 112.416 148.893 112.544C149.053 112.64 149.117 112.768 149.085 112.928L148.845 116.528C148.813 116.912 148.813 117.152 148.845 117.248C148.909 117.312 149.037 117.344 149.229 117.344H153.261C153.581 117.344 153.773 117.392 153.837 117.488C153.901 117.552 153.933 117.776 153.933 118.16V120.416C153.933 120.736 153.885 120.944 153.789 121.04C153.693 121.104 153.485 121.136 153.165 121.136H149.181C148.989 121.136 148.845 121.2 148.749 121.328C148.685 121.424 148.653 121.584 148.653 121.808C148.621 122.64 148.589 123.488 148.557 124.352C148.525 125.184 148.509 126.048 148.509 126.944C148.509 128.064 148.525 129.2 148.557 130.352C148.621 131.472 148.765 132.56 148.989 133.616C149.181 134.224 149.453 134.656 149.805 134.912C150.157 135.168 150.621 135.296 151.197 135.296C151.581 135.296 151.949 135.248 152.301 135.152C152.653 135.024 152.957 134.928 153.213 134.864C153.597 134.64 153.837 134.576 153.933 134.672C154.029 134.736 154.141 134.928 154.269 135.248L155.085 138.128C155.213 138.352 155.181 138.56 154.989 138.752C154.797 138.912 154.413 139.104 153.837 139.328C153.453 139.456 153.037 139.584 152.589 139.712C152.141 139.808 151.693 139.888 151.245 139.952C150.797 139.984 150.365 140 149.949 140ZM167.267 140.384C164.483 140.384 162.323 139.872 160.787 138.848C159.283 137.792 158.227 136.384 157.619 134.624C157.043 132.832 156.755 130.8 156.755 128.528C156.755 126.32 157.091 124.352 157.763 122.624C158.435 120.864 159.523 119.488 161.027 118.496C162.563 117.472 164.643 116.96 167.267 116.96C169.923 116.96 172.003 117.472 173.507 118.496C175.043 119.488 176.131 120.864 176.771 122.624C177.443 124.352 177.779 126.32 177.779 128.528C177.779 130.768 177.491 132.784 176.915 134.576C176.339 136.336 175.283 137.744 173.747 138.8C172.243 139.856 170.083 140.384 167.267 140.384ZM167.219 135.68C168.787 135.68 169.891 135.072 170.531 133.856C171.171 132.64 171.491 130.928 171.491 128.72C171.491 126.512 171.139 124.848 170.435 123.728C169.763 122.576 168.691 122 167.219 122C165.779 122 164.707 122.576 164.003 123.728C163.331 124.848 162.995 126.512 162.995 128.72C162.995 130.96 163.299 132.688 163.907 133.904C164.547 135.088 165.651 135.68 167.219 135.68ZM189.247 117.152C191.679 117.152 193.679 117.504 195.247 118.208C195.567 118.336 195.743 118.464 195.775 118.592C195.839 118.72 195.855 118.896 195.823 119.12L194.959 122.096C194.895 122.352 194.815 122.512 194.719 122.576C194.623 122.608 194.431 122.576 194.143 122.48C193.599 122.32 192.991 122.208 192.319 122.144C191.647 122.048 191.135 122 190.783 122C190.271 122 189.839 122.032 189.487 122.096C189.135 122.128 188.863 122.176 188.671 122.24C188.479 122.304 188.319 122.368 188.191 122.432C188.063 122.528 187.919 122.64 187.759 122.768C187.631 122.896 187.567 123.184 187.567 123.632V138.992C187.567 139.44 187.503 139.728 187.375 139.856C187.247 139.952 187.023 140 186.703 140H182.047C181.887 140 181.743 139.952 181.615 139.856C181.487 139.76 181.423 139.536 181.423 139.184V119.984C181.423 119.472 181.471 119.152 181.567 119.024C181.695 118.864 181.935 118.704 182.287 118.544C183.247 118.096 184.383 117.76 185.695 117.536C187.039 117.28 188.223 117.152 189.247 117.152Z" fill="white"/>
</svg>
