<svg width="200" height="200" viewBox="0 0 200 200" fill="none" xmlns="http://www.w3.org/2000/svg">
<rect width="200" height="200" fill="#D8A26E"/>
<path d="M74.9113 73.752C75.0073 73.88 75.1353 73.944 75.2953 73.944C75.4553 73.944 75.5353 73.848 75.5353 73.656C75.5673 72.664 75.5673 71.608 75.5353 70.488C75.5353 69.368 75.5193 68.2 75.4873 66.984C75.4873 65.736 75.4553 64.456 75.3913 63.144C75.3593 61.832 75.2793 60.536 75.1513 59.256C75.0553 57.944 74.9273 56.648 74.7673 55.368C74.7353 54.92 74.8473 54.696 75.1033 54.696H80.2393C80.4313 54.696 80.6073 54.76 80.7673 54.888C80.9593 54.984 81.0713 55.128 81.1033 55.32C81.3273 56.504 81.5033 57.944 81.6313 59.64C81.7913 61.304 81.8873 63.128 81.9193 65.112C81.9833 67.064 81.9993 69.064 81.9673 71.112C81.9353 73.128 81.8713 75.112 81.7753 77.064C81.7113 78.984 81.6153 80.76 81.4873 82.392C81.3913 83.992 81.2793 85.336 81.1512 86.424C81.1193 86.68 81.0073 86.84 80.8153 86.904C80.6553 86.968 80.4633 87 80.2393 87H76.9753C76.7513 87 76.4793 86.744 76.1593 86.232L63.7753 67.704C63.7433 67.576 63.6633 67.512 63.5353 67.512C63.4073 67.512 63.3433 67.592 63.3433 67.752C63.3433 69.48 63.3433 71.112 63.3433 72.648C63.3433 74.152 63.3433 75.576 63.3433 76.92C63.3753 78.232 63.4233 79.464 63.4873 80.616C63.5513 81.736 63.6153 82.792 63.6793 83.784C63.7433 84.744 63.8393 85.608 63.9673 86.376C63.9993 86.792 63.8873 87 63.6313 87H58.5913C58.3993 87 58.1913 86.968 57.9673 86.904C57.7753 86.84 57.6633 86.68 57.6313 86.424C57.5033 85.336 57.3913 83.992 57.2953 82.392C57.1993 80.76 57.1193 78.984 57.0553 77.064C56.9913 75.112 56.9433 73.112 56.9113 71.064C56.9113 69.016 56.9273 67.016 56.9593 65.064C57.0233 63.08 57.1193 61.256 57.2473 59.592C57.3753 57.896 57.5513 56.472 57.7753 55.32C57.8393 55.128 57.9513 54.984 58.1113 54.888C58.3033 54.76 58.4793 54.696 58.6393 54.696H61.7593C62.0473 54.696 62.2553 54.84 62.3833 55.128L74.9113 73.752ZM96.8761 87.384C94.0921 87.384 91.9321 86.872 90.3961 85.848C88.8921 84.792 87.8361 83.384 87.2281 81.624C86.6521 79.832 86.3641 77.8 86.3641 75.528C86.3641 73.32 86.7001 71.352 87.3721 69.624C88.0441 67.864 89.1321 66.488 90.6361 65.496C92.1721 64.472 94.2521 63.96 96.8761 63.96C99.5321 63.96 101.612 64.472 103.116 65.496C104.652 66.488 105.74 67.864 106.38 69.624C107.052 71.352 107.388 73.32 107.388 75.528C107.388 77.768 107.1 79.784 106.524 81.576C105.948 83.336 104.892 84.744 103.356 85.8C101.852 86.856 99.6921 87.384 96.8761 87.384ZM96.8281 82.68C98.3961 82.68 99.5001 82.072 100.14 80.856C100.78 79.64 101.1 77.928 101.1 75.72C101.1 73.512 100.748 71.848 100.044 70.728C99.3721 69.576 98.3001 69 96.8281 69C95.3881 69 94.3161 69.576 93.6121 70.728C92.9401 71.848 92.6041 73.512 92.6041 75.72C92.6041 77.96 92.9081 79.688 93.5161 80.904C94.1561 82.088 95.2601 82.68 96.8281 82.68ZM120.105 87C117.929 87 116.297 86.552 115.209 85.656C114.153 84.728 113.449 83.448 113.097 81.816C112.841 80.472 112.697 79.096 112.665 77.688C112.665 76.28 112.665 74.856 112.665 73.416C112.665 72.488 112.665 71.672 112.665 70.968C112.697 70.264 112.729 69.48 112.761 68.616C112.761 68.296 112.617 68.136 112.329 68.136H110.361C110.105 68.136 109.929 68.104 109.833 68.04C109.769 67.976 109.737 67.784 109.737 67.464V65.064C109.737 64.68 109.769 64.472 109.833 64.44C109.929 64.376 110.153 64.344 110.505 64.344H112.473C112.729 64.344 112.873 64.28 112.905 64.152C112.937 64.024 112.969 63.816 113.001 63.528L113.193 59.928C113.193 59.544 113.385 59.352 113.769 59.352H118.569C118.729 59.352 118.889 59.416 119.049 59.544C119.209 59.64 119.273 59.768 119.241 59.928L119.001 63.528C118.969 63.912 118.969 64.152 119.001 64.248C119.065 64.312 119.193 64.344 119.385 64.344H123.417C123.737 64.344 123.929 64.392 123.993 64.488C124.057 64.552 124.089 64.776 124.089 65.16V67.416C124.089 67.736 124.041 67.944 123.945 68.04C123.849 68.104 123.641 68.136 123.321 68.136H119.337C119.145 68.136 119.001 68.2 118.905 68.328C118.841 68.424 118.809 68.584 118.809 68.808C118.777 69.64 118.745 70.488 118.713 71.352C118.681 72.184 118.665 73.048 118.665 73.944C118.665 75.064 118.681 76.2 118.713 77.352C118.777 78.472 118.921 79.56 119.145 80.616C119.337 81.224 119.609 81.656 119.961 81.912C120.313 82.168 120.777 82.296 121.353 82.296C121.737 82.296 122.105 82.248 122.457 82.152C122.809 82.024 123.113 81.928 123.369 81.864C123.753 81.64 123.993 81.576 124.089 81.672C124.185 81.736 124.297 81.928 124.425 82.248L125.241 85.128C125.369 85.352 125.337 85.56 125.145 85.752C124.953 85.912 124.569 86.104 123.993 86.328C123.609 86.456 123.193 86.584 122.745 86.712C122.297 86.808 121.849 86.888 121.401 86.952C120.953 86.984 120.521 87 120.105 87ZM126.911 75.624C126.911 74.12 127.071 72.68 127.391 71.304C127.711 69.928 128.239 68.68 128.975 67.56C129.743 66.44 130.783 65.56 132.095 64.92C133.439 64.28 135.119 63.96 137.135 63.96C139.247 63.96 140.927 64.264 142.175 64.872C143.423 65.448 144.367 66.232 145.007 67.224C145.647 68.216 146.063 69.304 146.255 70.488C146.479 71.64 146.591 72.792 146.591 73.944C146.591 75.288 146.431 76.184 146.111 76.632C145.823 77.048 145.359 77.256 144.719 77.256H133.583C133.391 77.256 133.263 77.304 133.199 77.4C133.167 77.464 133.151 77.608 133.151 77.832C133.151 78.792 133.359 79.672 133.775 80.472C134.223 81.24 134.863 81.848 135.695 82.296C136.527 82.744 137.503 82.968 138.623 82.968C139.679 82.968 140.687 82.808 141.647 82.488C142.607 82.136 143.311 81.832 143.759 81.576C144.143 81.352 144.447 81.224 144.671 81.192C144.895 81.128 145.135 81.352 145.391 81.864L146.399 83.88C146.591 84.232 146.639 84.488 146.543 84.648C146.447 84.776 146.239 84.952 145.919 85.176C144.799 85.944 143.455 86.504 141.887 86.856C140.319 87.208 138.751 87.384 137.183 87.384C135.103 87.384 133.391 87.08 132.047 86.472C130.703 85.864 129.663 85.016 128.927 83.928C128.191 82.84 127.663 81.592 127.343 80.184C127.055 78.744 126.911 77.224 126.911 75.624ZM140.399 72.936C140.399 72.04 140.287 71.272 140.063 70.632C139.839 69.992 139.471 69.496 138.959 69.144C138.479 68.792 137.823 68.616 136.991 68.616C136.319 68.616 135.743 68.744 135.263 69C134.815 69.256 134.447 69.592 134.159 70.008C133.871 70.424 133.647 70.888 133.487 71.4C133.327 71.88 133.215 72.344 133.151 72.792C133.119 73.304 133.119 73.624 133.151 73.752C133.183 73.848 133.311 73.896 133.535 73.896H139.823C140.111 73.896 140.287 73.848 140.351 73.752C140.415 73.656 140.431 73.384 140.399 72.936ZM88.4953 119.16C88.4953 121.208 88.1113 123.096 87.3433 124.824C86.6073 126.552 85.5033 127.944 84.0313 129C82.5593 130.024 80.7033 130.536 78.4633 130.536H75.8713C75.7433 130.536 75.6473 130.584 75.5833 130.68C75.5193 130.744 75.4873 130.84 75.4873 130.968V140.424C75.4873 140.808 75.2633 141 74.8153 141H69.7753C69.3593 141 69.1513 140.808 69.1513 140.424V109.32C69.1513 108.904 69.3593 108.696 69.7753 108.696H77.9353C81.6793 108.696 84.3673 109.56 85.9993 111.288C87.6633 112.984 88.4953 115.608 88.4953 119.16ZM75.4873 125.496C75.4873 125.784 75.6153 125.928 75.8713 125.928H77.8393C79.2473 125.928 80.3513 125.336 81.1513 124.152C81.9513 122.968 82.3513 121.32 82.3513 119.208C82.3193 116.968 81.9033 115.4 81.1033 114.504C80.3033 113.576 79.1833 113.112 77.7433 113.112H75.8713C75.7113 113.112 75.5993 113.128 75.5353 113.16C75.5033 113.192 75.4873 113.32 75.4873 113.544V125.496ZM100.978 141.336C99.3455 141.336 97.8095 141.16 96.3695 140.808C94.9615 140.424 93.8095 139.704 92.9135 138.648C92.0495 137.592 91.6175 136.056 91.6175 134.04C91.6175 132.376 91.9215 131.016 92.5295 129.96C93.1695 128.872 93.9695 128.04 94.9295 127.464C95.9215 126.888 96.9455 126.504 98.0015 126.312C99.0575 126.088 100.002 125.976 100.834 125.976C101.506 125.976 102.146 126.008 102.754 126.072C103.394 126.104 103.986 126.168 104.53 126.264C104.818 126.36 104.962 126.152 104.962 125.64C104.962 124.456 104.594 123.624 103.858 123.144C103.154 122.664 102.162 122.424 100.882 122.424C99.6655 122.424 98.4975 122.648 97.3775 123.096C96.2895 123.544 95.3615 123.96 94.5935 124.344C94.2415 124.536 94.0015 124.6 93.8735 124.536C93.7775 124.472 93.6975 124.264 93.6335 123.912L93.2015 121.224C93.1375 120.808 93.1375 120.536 93.2015 120.408C93.2655 120.28 93.4415 120.12 93.7295 119.928C94.5615 119.384 95.6175 118.952 96.8975 118.632C98.1775 118.28 99.5375 118.104 100.978 118.104C103.154 118.104 104.898 118.36 106.21 118.872C107.522 119.352 108.498 120.008 109.138 120.84C109.81 121.672 110.242 122.632 110.434 123.72C110.658 124.776 110.77 125.88 110.77 127.032C110.802 128.376 110.802 129.704 110.77 131.016C110.77 132.296 110.738 133.576 110.674 134.856C110.61 136.136 110.514 137.432 110.386 138.744C110.322 139.096 110.226 139.368 110.098 139.56C109.97 139.72 109.714 139.896 109.33 140.088C108.882 140.312 108.29 140.504 107.554 140.664C106.818 140.792 106.018 140.904 105.154 141C104.322 141.128 103.538 141.208 102.802 141.24C102.066 141.304 101.458 141.336 100.978 141.336ZM101.362 137.64C101.618 137.64 101.906 137.624 102.226 137.592C102.546 137.528 102.866 137.448 103.186 137.352C103.506 137.256 103.762 137.128 103.954 136.968C104.178 136.808 104.306 136.6 104.338 136.344C104.434 135.576 104.514 134.728 104.578 133.8C104.642 132.872 104.642 131.976 104.578 131.112C104.578 130.696 104.418 130.408 104.098 130.248C103.778 130.024 103.314 129.896 102.706 129.864C102.13 129.8 101.65 129.768 101.266 129.768C100.978 129.768 100.61 129.832 100.162 129.96C99.7455 130.056 99.3455 130.248 98.9615 130.536C98.5775 130.824 98.2575 131.256 98.0015 131.832C97.7775 132.408 97.6655 133.144 97.6655 134.04C97.6655 134.744 97.8095 135.368 98.0975 135.912C98.3855 136.456 98.8015 136.888 99.3455 137.208C99.8895 137.496 100.562 137.64 101.362 137.64ZM114.26 130.008C114.324 127.576 114.644 125.592 115.22 124.056C115.828 122.52 116.596 121.32 117.524 120.456C118.484 119.592 119.54 119 120.692 118.68C121.844 118.36 123.012 118.2 124.196 118.2C124.644 118.2 125.156 118.248 125.732 118.344C126.308 118.44 126.756 118.52 127.076 118.584C127.3 118.648 127.476 118.664 127.604 118.632C127.764 118.6 127.844 118.456 127.844 118.2C127.844 117.624 127.828 117.016 127.796 116.376C127.796 115.736 127.764 115.096 127.7 114.456C127.668 113.784 127.62 113.128 127.556 112.488C127.492 111.816 127.428 111.192 127.364 110.616C127.332 110.008 127.284 109.464 127.22 108.984C127.156 108.44 127.172 108.12 127.268 108.024C127.396 107.928 127.604 107.88 127.892 107.88H132.5C132.724 107.88 132.9 107.896 133.028 107.928C133.188 107.96 133.284 108.088 133.316 108.312C133.444 109.624 133.556 111.16 133.652 112.92C133.748 114.648 133.828 116.52 133.892 118.536C133.956 120.52 133.988 122.52 133.988 124.536C134.02 126.552 134.004 128.488 133.94 130.344C133.908 132.2 133.828 133.848 133.7 135.288C133.604 136.728 133.46 137.832 133.268 138.6C133.172 138.984 133.028 139.272 132.836 139.464C132.676 139.656 132.244 139.88 131.54 140.136C130.932 140.392 129.956 140.664 128.612 140.952C127.268 141.208 125.796 141.336 124.196 141.336C122.948 141.304 121.78 141.16 120.692 140.904C119.636 140.616 118.708 140.168 117.908 139.56C116.692 138.696 115.78 137.48 115.172 135.912C114.564 134.312 114.26 132.344 114.26 130.008ZM120.548 130.056C120.516 132.264 120.772 133.832 121.316 134.76C121.892 135.656 122.612 136.168 123.476 136.296C123.86 136.424 124.26 136.504 124.676 136.536C125.124 136.536 125.556 136.504 125.972 136.44C126.42 136.344 126.804 136.232 127.124 136.104C127.22 136.04 127.284 135.976 127.316 135.912C127.38 135.816 127.412 135.688 127.412 135.528C127.444 134.824 127.476 134.088 127.508 133.32C127.572 132.552 127.604 131.784 127.604 131.016C127.636 130.248 127.668 129.48 127.7 128.712C127.732 127.944 127.748 127.208 127.748 126.504C127.78 125.8 127.78 125.144 127.748 124.536C127.748 124.312 127.716 124.168 127.652 124.104C127.62 124.008 127.54 123.944 127.412 123.912C126.996 123.752 126.5 123.624 125.924 123.528C125.38 123.4 124.916 123.336 124.532 123.336C124.148 123.336 123.716 123.416 123.236 123.576C122.788 123.736 122.356 124.04 121.94 124.488C121.556 124.936 121.236 125.608 120.98 126.504C120.724 127.368 120.58 128.552 120.548 130.056Z" fill="white"/>
</svg>
