<svg width="200" height="200" viewBox="0 0 200 200" fill="none" xmlns="http://www.w3.org/2000/svg">
<rect width="200" height="200" fill="#D8D86F"/>
<path d="M56.8458 64.52V61.24C56.8458 61.0533 56.8991 60.96 57.0058 60.96C57.1391 60.96 57.3524 61.0133 57.6458 61.12C58.1791 61.28 58.8058 61.44 59.5258 61.6C60.2458 61.7333 60.9524 61.84 61.6458 61.92C62.3391 62 62.8991 62.04 63.3258 62.04C64.7124 62.04 65.7658 61.6533 66.4858 60.88C67.2324 60.1067 67.6058 59.2133 67.6058 58.2C67.6058 57.16 67.2324 56.32 66.4858 55.68C65.7658 55.04 64.7924 54.5467 63.5658 54.2C62.8991 54.04 62.1391 53.8133 61.2858 53.52C60.4591 53.2267 59.6458 52.8133 58.8458 52.28C58.0724 51.7467 57.4324 51.0133 56.9258 50.08C56.4191 49.12 56.1658 47.9067 56.1658 46.44C56.1658 44.6267 56.5791 43.1733 57.4058 42.08C58.2591 40.9867 59.3524 40.1867 60.6858 39.68C62.0458 39.1467 63.4858 38.88 65.0058 38.88C65.5924 38.88 66.2324 38.9467 66.9258 39.08C67.6458 39.1867 68.3524 39.3333 69.0458 39.52C69.7391 39.7067 70.3524 39.92 70.8858 40.16C71.0991 40.2133 71.2324 40.2933 71.2858 40.4C71.3391 40.48 71.3658 40.6 71.3658 40.76V43.76C71.3658 44.48 70.9258 44.6 70.0458 44.12C69.4858 43.8 68.8058 43.52 68.0058 43.28C67.2324 43.0133 66.3658 42.88 65.4058 42.88C64.2324 42.88 63.2858 43.1867 62.5658 43.8C61.8458 44.4133 61.4858 45.1467 61.4858 46C61.4858 46.8267 61.7124 47.4933 62.1658 48C62.6191 48.5067 63.2058 48.9067 63.9258 49.2C64.6458 49.4933 65.3924 49.7333 66.1658 49.92C66.9391 50.1067 67.6458 50.32 68.2858 50.56C69.3524 50.9067 70.2324 51.3733 70.9258 51.96C71.6458 52.52 72.1924 53.2667 72.5658 54.2C72.9391 55.1333 73.1258 56.32 73.1258 57.76C73.1258 59.7067 72.6991 61.32 71.8458 62.6C71.0191 63.8533 69.8724 64.7867 68.4058 65.4C66.9391 66.0133 65.2724 66.32 63.4058 66.32C62.5791 66.32 61.6458 66.24 60.6058 66.08C59.5658 65.92 58.6191 65.6933 57.7658 65.4C57.4191 65.2933 57.1791 65.1867 57.0458 65.08C56.9124 64.9467 56.8458 64.76 56.8458 64.52ZM84.4189 66.32C82.0989 66.32 80.2989 65.8933 79.0189 65.04C77.7656 64.16 76.8856 62.9867 76.3789 61.52C75.8989 60.0267 75.6589 58.3333 75.6589 56.44C75.6589 54.6 75.9389 52.96 76.4989 51.52C77.0589 50.0533 77.9656 48.9067 79.2189 48.08C80.4989 47.2267 82.2322 46.8 84.4189 46.8C86.6322 46.8 88.3656 47.2267 89.6189 48.08C90.8989 48.9067 91.8056 50.0533 92.3389 51.52C92.8989 52.96 93.1789 54.6 93.1789 56.44C93.1789 58.3067 92.9389 59.9867 92.4589 61.48C91.9789 62.9467 91.0989 64.12 89.8189 65C88.5656 65.88 86.7656 66.32 84.4189 66.32ZM84.3789 62.4C85.6856 62.4 86.6056 61.8933 87.1389 60.88C87.6722 59.8667 87.9389 58.44 87.9389 56.6C87.9389 54.76 87.6456 53.3733 87.0589 52.44C86.4989 51.48 85.6056 51 84.3789 51C83.1789 51 82.2856 51.48 81.6989 52.44C81.1389 53.3733 80.8589 54.76 80.8589 56.6C80.8589 58.4667 81.1122 59.9067 81.6189 60.92C82.1522 61.9067 83.0722 62.4 84.3789 62.4ZM104.296 66.32C102.589 66.32 101.163 66.0667 100.016 65.56C98.8961 65.0533 98.0294 64.3467 97.4161 63.44C96.8028 62.5333 96.3761 61.4933 96.1361 60.32C95.8961 59.1467 95.7761 57.88 95.7761 56.52C95.7761 55.2667 95.8961 54.0667 96.1361 52.92C96.4028 51.7733 96.8428 50.7333 97.4561 49.8C98.0961 48.8667 98.9628 48.1333 100.056 47.6C101.176 47.0667 102.576 46.8 104.256 46.8C105.429 46.8 106.443 46.92 107.296 47.16C108.176 47.4 108.949 47.8 109.616 48.36C109.803 48.5467 109.923 48.6933 109.976 48.8C110.056 48.88 110.096 49.0267 110.096 49.24V52.2C110.096 52.44 110.016 52.5733 109.856 52.6C109.723 52.6 109.589 52.5467 109.456 52.44C108.763 51.8267 108.029 51.4267 107.256 51.24C106.509 51.0533 105.736 50.96 104.936 50.96C104.243 50.96 103.629 51.12 103.096 51.44C102.589 51.7333 102.176 52.1467 101.856 52.68C101.536 53.2133 101.283 53.8267 101.096 54.52C100.936 55.1867 100.856 55.8667 100.856 56.56C100.856 57.7867 101.003 58.84 101.296 59.72C101.589 60.5733 102.016 61.24 102.576 61.72C103.136 62.1733 103.829 62.4 104.656 62.4C105.269 62.4 105.869 62.32 106.456 62.16C107.069 62 107.736 61.7467 108.456 61.4C108.909 61.1867 109.229 61.2933 109.416 61.72L110.376 63.96C110.483 64.1733 110.509 64.3467 110.456 64.48C110.429 64.5867 110.323 64.6933 110.136 64.8C109.443 65.3067 108.563 65.6933 107.496 65.96C106.429 66.2 105.363 66.32 104.296 66.32ZM118.06 41.96C118.06 42.76 117.887 43.3733 117.54 43.8C117.194 44.2 116.474 44.4 115.38 44.4C114.34 44.4 113.62 44.2 113.22 43.8C112.847 43.3733 112.66 42.76 112.66 41.96C112.66 41.2667 112.847 40.7067 113.22 40.28C113.62 39.8267 114.34 39.6 115.38 39.6C116.527 39.6 117.26 39.8267 117.58 40.28C117.9 40.7067 118.06 41.2667 118.06 41.96ZM117.94 65.52C117.94 65.84 117.767 66 117.42 66H113.3C112.98 66 112.82 65.84 112.82 65.52V47.6C112.82 47.28 112.98 47.12 113.3 47.12H117.42C117.767 47.12 117.94 47.28 117.94 47.6V65.52ZM128.657 66.28C127.297 66.28 126.017 66.1333 124.817 65.84C123.644 65.52 122.684 64.92 121.937 64.04C121.217 63.16 120.857 61.88 120.857 60.2C120.857 58.8133 121.11 57.68 121.617 56.8C122.15 55.8933 122.817 55.2 123.617 54.72C124.444 54.24 125.297 53.92 126.177 53.76C127.057 53.5733 127.844 53.48 128.537 53.48C129.097 53.48 129.63 53.5067 130.137 53.56C130.67 53.5867 131.164 53.64 131.617 53.72C131.857 53.8 131.977 53.6267 131.977 53.2C131.977 52.2133 131.67 51.52 131.057 51.12C130.47 50.72 129.644 50.52 128.577 50.52C127.564 50.52 126.59 50.7067 125.657 51.08C124.75 51.4533 123.977 51.8 123.337 52.12C123.044 52.28 122.844 52.3333 122.737 52.28C122.657 52.2267 122.59 52.0533 122.537 51.76L122.177 49.52C122.124 49.1733 122.124 48.9467 122.177 48.84C122.23 48.7333 122.377 48.6 122.617 48.44C123.31 47.9867 124.19 47.6267 125.257 47.36C126.324 47.0667 127.457 46.92 128.657 46.92C130.47 46.92 131.924 47.1333 133.017 47.56C134.11 47.96 134.924 48.5067 135.457 49.2C136.017 49.8933 136.377 50.6933 136.537 51.6C136.724 52.48 136.817 53.4 136.817 54.36C136.844 55.48 136.844 56.5867 136.817 57.68C136.817 58.7467 136.79 59.8133 136.737 60.88C136.684 61.9467 136.604 63.0267 136.497 64.12C136.444 64.4133 136.364 64.64 136.257 64.8C136.15 64.9333 135.937 65.08 135.617 65.24C135.244 65.4267 134.75 65.5867 134.137 65.72C133.524 65.8267 132.857 65.92 132.137 66C131.444 66.1067 130.79 66.1733 130.177 66.2C129.564 66.2533 129.057 66.28 128.657 66.28ZM128.977 63.2C129.19 63.2 129.43 63.1867 129.697 63.16C129.964 63.1067 130.23 63.04 130.497 62.96C130.764 62.88 130.977 62.7733 131.137 62.64C131.324 62.5067 131.43 62.3333 131.457 62.12C131.537 61.48 131.604 60.7733 131.657 60C131.71 59.2267 131.71 58.48 131.657 57.76C131.657 57.4133 131.524 57.1733 131.257 57.04C130.99 56.8533 130.604 56.7467 130.097 56.72C129.617 56.6667 129.217 56.64 128.897 56.64C128.657 56.64 128.35 56.6933 127.977 56.8C127.63 56.88 127.297 57.04 126.977 57.28C126.657 57.52 126.39 57.88 126.177 58.36C125.99 58.84 125.897 59.4533 125.897 60.2C125.897 60.7867 126.017 61.3067 126.257 61.76C126.497 62.2133 126.844 62.5733 127.297 62.84C127.75 63.08 128.31 63.2 128.977 63.2ZM140.126 65.52V38.16C140.126 37.84 140.299 37.68 140.646 37.68H144.686C145.059 37.68 145.246 37.84 145.246 38.16V65.52C145.246 65.84 145.059 66 144.686 66H140.646C140.299 66 140.126 65.84 140.126 65.52ZM56.9892 111C56.5626 111 56.3492 110.773 56.3492 110.32C56.3492 108.4 56.3759 106.293 56.4292 104C56.5092 101.68 56.6159 99.3467 56.7492 97C56.9092 94.6267 57.0826 92.3733 57.2692 90.24C57.4559 88.08 57.6692 86.2 57.9092 84.6C57.9626 84.4133 58.0159 84.28 58.0692 84.2C58.1492 84.12 58.2826 84.08 58.4692 84.08H60.9892C61.2292 84.08 61.4026 84.1067 61.5092 84.16C61.6159 84.2133 61.7226 84.32 61.8292 84.48L67.8692 94.64C67.9492 94.7733 68.0426 94.84 68.1492 94.84C68.2826 94.84 68.3892 94.7733 68.4692 94.64L74.5492 84.52C74.6826 84.3067 74.7892 84.1867 74.8692 84.16C74.9759 84.1067 75.1492 84.08 75.3892 84.08H77.8692C78.1626 84.08 78.3359 84.2667 78.3892 84.64C78.6026 86.24 78.8026 88.1067 78.9892 90.24C79.2026 92.3733 79.3759 94.6267 79.5092 97C79.6692 99.3467 79.7892 101.667 79.8692 103.96C79.9759 106.253 80.0292 108.347 80.0292 110.24C80.0292 110.533 79.9759 110.733 79.8692 110.84C79.7892 110.947 79.5892 111 79.2692 111H75.3092C74.9626 111 74.7892 110.8 74.7892 110.4C74.7892 109.467 74.7759 108.493 74.7492 107.48C74.7226 106.467 74.6959 105.413 74.6692 104.32C74.6426 103.227 74.5892 102.147 74.5092 101.08C74.4559 99.9867 74.4026 98.92 74.3492 97.88C74.2959 96.8133 74.2292 95.8133 74.1492 94.88C74.1226 94.7467 74.0559 94.68 73.9492 94.68C73.8692 94.68 73.7892 94.7467 73.7092 94.88L69.3092 101.92C69.1759 102.08 69.0159 102.16 68.8292 102.16H67.4292C67.2159 102.16 67.0426 102.053 66.9092 101.84L62.6692 95.04C62.5626 94.8267 62.4559 94.7467 62.3492 94.8C62.2692 94.8533 62.2292 94.9333 62.2292 95.04C62.1226 96.2133 62.0292 97.36 61.9492 98.48C61.8692 99.6 61.8026 100.76 61.7492 101.96C61.6959 103.16 61.6559 104.467 61.6292 105.88C61.6292 107.293 61.6292 108.893 61.6292 110.68C61.6292 110.893 61.5226 111 61.3092 111H56.9892ZM83.6667 101.52C83.6667 100.267 83.8001 99.0667 84.0667 97.92C84.3334 96.7733 84.7734 95.7333 85.3867 94.8C86.0267 93.8667 86.8934 93.1333 87.9867 92.6C89.1067 92.0667 90.5067 91.8 92.1867 91.8C93.9467 91.8 95.3467 92.0533 96.3867 92.56C97.4267 93.04 98.2134 93.6933 98.7467 94.52C99.2801 95.3467 99.6267 96.2533 99.7867 97.24C99.9734 98.2 100.067 99.16 100.067 100.12C100.067 101.24 99.9334 101.987 99.6667 102.36C99.4267 102.707 99.0401 102.88 98.5067 102.88H89.2267C89.0667 102.88 88.9601 102.92 88.9067 103C88.8801 103.053 88.8667 103.173 88.8667 103.36C88.8667 104.16 89.0401 104.893 89.3867 105.56C89.7601 106.2 90.2934 106.707 90.9867 107.08C91.6801 107.453 92.4934 107.64 93.4267 107.64C94.3067 107.64 95.1467 107.507 95.9467 107.24C96.7467 106.947 97.3334 106.693 97.7067 106.48C98.0267 106.293 98.2801 106.187 98.4667 106.16C98.6534 106.107 98.8534 106.293 99.0667 106.72L99.9067 108.4C100.067 108.693 100.107 108.907 100.027 109.04C99.9467 109.147 99.7734 109.293 99.5067 109.48C98.5734 110.12 97.4534 110.587 96.1467 110.88C94.8401 111.173 93.5334 111.32 92.2267 111.32C90.4934 111.32 89.0667 111.067 87.9467 110.56C86.8267 110.053 85.9601 109.347 85.3467 108.44C84.7334 107.533 84.2934 106.493 84.0267 105.32C83.7867 104.12 83.6667 102.853 83.6667 101.52ZM94.9067 99.28C94.9067 98.5333 94.8134 97.8933 94.6267 97.36C94.4401 96.8267 94.1334 96.4133 93.7067 96.12C93.3067 95.8267 92.7601 95.68 92.0667 95.68C91.5067 95.68 91.0267 95.7867 90.6267 96C90.2534 96.2133 89.9467 96.4933 89.7067 96.84C89.4667 97.1867 89.2801 97.5733 89.1467 98C89.0134 98.4 88.9201 98.7867 88.8667 99.16C88.8401 99.5867 88.8401 99.8533 88.8667 99.96C88.8934 100.04 89.0001 100.08 89.1867 100.08H94.4267C94.6667 100.08 94.8134 100.04 94.8667 99.96C94.9201 99.88 94.9334 99.6533 94.9067 99.28ZM102.695 101.84C102.748 99.8133 103.015 98.16 103.495 96.88C104.002 95.6 104.642 94.6 105.415 93.88C106.215 93.16 107.095 92.6667 108.055 92.4C109.015 92.1333 109.988 92 110.975 92C111.348 92 111.775 92.04 112.255 92.12C112.735 92.2 113.108 92.2667 113.375 92.32C113.562 92.3733 113.708 92.3867 113.815 92.36C113.948 92.3333 114.015 92.2133 114.015 92C114.015 91.52 114.002 91.0133 113.975 90.48C113.975 89.9467 113.948 89.4133 113.895 88.88C113.868 88.32 113.828 87.7733 113.775 87.24C113.722 86.68 113.668 86.16 113.615 85.68C113.588 85.1733 113.548 84.72 113.495 84.32C113.442 83.8667 113.455 83.6 113.535 83.52C113.642 83.44 113.815 83.4 114.055 83.4H117.895C118.082 83.4 118.228 83.4133 118.335 83.44C118.468 83.4667 118.548 83.5733 118.575 83.76C118.682 84.8533 118.775 86.1333 118.855 87.6C118.935 89.04 119.002 90.6 119.055 92.28C119.108 93.9333 119.135 95.6 119.135 97.28C119.162 98.96 119.148 100.573 119.095 102.12C119.068 103.667 119.002 105.04 118.895 106.24C118.815 107.44 118.695 108.36 118.535 109C118.455 109.32 118.335 109.56 118.175 109.72C118.042 109.88 117.682 110.067 117.095 110.28C116.588 110.493 115.775 110.72 114.655 110.96C113.535 111.173 112.308 111.28 110.975 111.28C109.935 111.253 108.962 111.133 108.055 110.92C107.175 110.68 106.402 110.307 105.735 109.8C104.722 109.08 103.962 108.067 103.455 106.76C102.948 105.427 102.695 103.787 102.695 101.84ZM107.935 101.88C107.908 103.72 108.122 105.027 108.575 105.8C109.055 106.547 109.655 106.973 110.375 107.08C110.695 107.187 111.028 107.253 111.375 107.28C111.748 107.28 112.108 107.253 112.455 107.2C112.828 107.12 113.148 107.027 113.415 106.92C113.495 106.867 113.548 106.813 113.575 106.76C113.628 106.68 113.655 106.573 113.655 106.44C113.682 105.853 113.708 105.24 113.735 104.6C113.788 103.96 113.815 103.32 113.815 102.68C113.842 102.04 113.868 101.4 113.895 100.76C113.922 100.12 113.935 99.5067 113.935 98.92C113.962 98.3333 113.962 97.7867 113.935 97.28C113.935 97.0933 113.908 96.9733 113.855 96.92C113.828 96.84 113.762 96.7867 113.655 96.76C113.308 96.6267 112.895 96.52 112.415 96.44C111.962 96.3333 111.575 96.28 111.255 96.28C110.935 96.28 110.575 96.3467 110.175 96.48C109.802 96.6133 109.442 96.8667 109.095 97.24C108.775 97.6133 108.508 98.1733 108.295 98.92C108.082 99.64 107.962 100.627 107.935 101.88ZM127.865 86.96C127.865 87.76 127.692 88.3733 127.345 88.8C126.998 89.2 126.278 89.4 125.185 89.4C124.145 89.4 123.425 89.2 123.025 88.8C122.652 88.3733 122.465 87.76 122.465 86.96C122.465 86.2667 122.652 85.7067 123.025 85.28C123.425 84.8267 124.145 84.6 125.185 84.6C126.332 84.6 127.065 84.8267 127.385 85.28C127.705 85.7067 127.865 86.2667 127.865 86.96ZM127.745 110.52C127.745 110.84 127.572 111 127.225 111H123.105C122.785 111 122.625 110.84 122.625 110.52V92.6C122.625 92.28 122.785 92.12 123.105 92.12H127.225C127.572 92.12 127.745 92.28 127.745 92.6V110.52ZM138.462 111.28C137.102 111.28 135.822 111.133 134.622 110.84C133.448 110.52 132.488 109.92 131.742 109.04C131.022 108.16 130.662 106.88 130.662 105.2C130.662 103.813 130.915 102.68 131.422 101.8C131.955 100.893 132.622 100.2 133.422 99.72C134.248 99.24 135.102 98.92 135.982 98.76C136.862 98.5733 137.648 98.48 138.342 98.48C138.902 98.48 139.435 98.5067 139.942 98.56C140.475 98.5867 140.968 98.64 141.422 98.72C141.662 98.8 141.782 98.6267 141.782 98.2C141.782 97.2133 141.475 96.52 140.862 96.12C140.275 95.72 139.448 95.52 138.382 95.52C137.368 95.52 136.395 95.7067 135.462 96.08C134.555 96.4533 133.782 96.8 133.142 97.12C132.848 97.28 132.648 97.3333 132.542 97.28C132.462 97.2267 132.395 97.0533 132.342 96.76L131.982 94.52C131.928 94.1733 131.928 93.9467 131.982 93.84C132.035 93.7333 132.182 93.6 132.422 93.44C133.115 92.9867 133.995 92.6267 135.062 92.36C136.128 92.0667 137.262 91.92 138.462 91.92C140.275 91.92 141.728 92.1333 142.822 92.56C143.915 92.96 144.728 93.5067 145.262 94.2C145.822 94.8933 146.182 95.6933 146.342 96.6C146.528 97.48 146.622 98.4 146.622 99.36C146.648 100.48 146.648 101.587 146.622 102.68C146.622 103.747 146.595 104.813 146.542 105.88C146.488 106.947 146.408 108.027 146.302 109.12C146.248 109.413 146.168 109.64 146.062 109.8C145.955 109.933 145.742 110.08 145.422 110.24C145.048 110.427 144.555 110.587 143.942 110.72C143.328 110.827 142.662 110.92 141.942 111C141.248 111.107 140.595 111.173 139.982 111.2C139.368 111.253 138.862 111.28 138.462 111.28ZM138.782 108.2C138.995 108.2 139.235 108.187 139.502 108.16C139.768 108.107 140.035 108.04 140.302 107.96C140.568 107.88 140.782 107.773 140.942 107.64C141.128 107.507 141.235 107.333 141.262 107.12C141.342 106.48 141.408 105.773 141.462 105C141.515 104.227 141.515 103.48 141.462 102.76C141.462 102.413 141.328 102.173 141.062 102.04C140.795 101.853 140.408 101.747 139.902 101.72C139.422 101.667 139.022 101.64 138.702 101.64C138.462 101.64 138.155 101.693 137.782 101.8C137.435 101.88 137.102 102.04 136.782 102.28C136.462 102.52 136.195 102.88 135.982 103.36C135.795 103.84 135.702 104.453 135.702 105.2C135.702 105.787 135.822 106.307 136.062 106.76C136.302 107.213 136.648 107.573 137.102 107.84C137.555 108.08 138.115 108.2 138.782 108.2ZM37.4034 148.32C37.4034 150.187 37.0301 151.68 36.2834 152.8C35.5368 153.92 34.5368 154.733 33.2834 155.24C32.0301 155.747 30.6434 156 29.1234 156H20.6434C20.2968 156 20.1234 155.84 20.1234 155.52V129.6C20.1234 129.253 20.2968 129.08 20.6434 129.08H27.4034C28.7101 129.08 29.9368 129.147 31.0834 129.28C32.2301 129.387 33.2434 129.667 34.1234 130.12C35.0301 130.547 35.7234 131.227 36.2034 132.16C36.7101 133.067 36.9634 134.32 36.9634 135.92C36.9634 136.533 36.8568 137.24 36.6434 138.04C36.4568 138.813 36.1501 139.547 35.7234 140.24C35.2968 140.933 34.7501 141.44 34.0834 141.76C33.9234 141.813 33.8568 141.907 33.8834 142.04C33.9101 142.173 33.9768 142.267 34.0834 142.32C34.9901 142.747 35.7634 143.52 36.4034 144.64C37.0701 145.76 37.4034 146.987 37.4034 148.32ZM31.7634 148.24C31.7634 147.067 31.5901 146.2 31.2434 145.64C30.9234 145.053 30.4434 144.68 29.8034 144.52C29.1634 144.333 28.3901 144.24 27.4834 144.24H25.6834C25.4968 144.24 25.4034 144.307 25.4034 144.44V152.08C25.4034 152.16 25.4168 152.227 25.4434 152.28C25.4701 152.307 25.5634 152.32 25.7234 152.32H28.0834C28.4568 152.32 28.8568 152.28 29.2834 152.2C29.7101 152.12 30.1101 151.96 30.4834 151.72C30.8568 151.453 31.1634 151.053 31.4034 150.52C31.6434 149.96 31.7634 149.2 31.7634 148.24ZM31.4034 136.16C31.4034 135.147 31.2034 134.4 30.8034 133.92C30.4301 133.44 29.8701 133.133 29.1234 133C28.3768 132.84 27.4834 132.76 26.4434 132.76H25.6834C25.4968 132.76 25.4034 132.867 25.4034 133.08V139.84C25.4034 140.027 25.5101 140.12 25.7234 140.12H27.8834C28.6834 140.12 29.3368 139.987 29.8434 139.72C30.3768 139.453 30.7634 139.04 31.0034 138.48C31.2701 137.893 31.4034 137.12 31.4034 136.16ZM48.2859 156.28C46.9259 156.28 45.6459 156.133 44.4459 155.84C43.2726 155.52 42.3126 154.92 41.5659 154.04C40.8459 153.16 40.4859 151.88 40.4859 150.2C40.4859 148.813 40.7393 147.68 41.2459 146.8C41.7793 145.893 42.4459 145.2 43.2459 144.72C44.0726 144.24 44.9259 143.92 45.8059 143.76C46.6859 143.573 47.4726 143.48 48.1659 143.48C48.7259 143.48 49.2593 143.507 49.7659 143.56C50.2993 143.587 50.7926 143.64 51.2459 143.72C51.4859 143.8 51.6059 143.627 51.6059 143.2C51.6059 142.213 51.2993 141.52 50.6859 141.12C50.0993 140.72 49.2726 140.52 48.2059 140.52C47.1926 140.52 46.2193 140.707 45.2859 141.08C44.3793 141.453 43.6059 141.8 42.9659 142.12C42.6726 142.28 42.4726 142.333 42.3659 142.28C42.2859 142.227 42.2193 142.053 42.1659 141.76L41.8059 139.52C41.7526 139.173 41.7526 138.947 41.8059 138.84C41.8593 138.733 42.0059 138.6 42.2459 138.44C42.9393 137.987 43.8193 137.627 44.8859 137.36C45.9526 137.067 47.0859 136.92 48.2859 136.92C50.0993 136.92 51.5526 137.133 52.6459 137.56C53.7393 137.96 54.5526 138.507 55.0859 139.2C55.6459 139.893 56.0059 140.693 56.1659 141.6C56.3526 142.48 56.4459 143.4 56.4459 144.36C56.4726 145.48 56.4726 146.587 56.4459 147.68C56.4459 148.747 56.4193 149.813 56.3659 150.88C56.3126 151.947 56.2326 153.027 56.1259 154.12C56.0726 154.413 55.9926 154.64 55.8859 154.8C55.7793 154.933 55.5659 155.08 55.2459 155.24C54.8726 155.427 54.3793 155.587 53.7659 155.72C53.1526 155.827 52.4859 155.92 51.7659 156C51.0726 156.107 50.4193 156.173 49.8059 156.2C49.1926 156.253 48.6859 156.28 48.2859 156.28ZM48.6059 153.2C48.8193 153.2 49.0593 153.187 49.3259 153.16C49.5926 153.107 49.8593 153.04 50.1259 152.96C50.3926 152.88 50.6059 152.773 50.7659 152.64C50.9526 152.507 51.0593 152.333 51.0859 152.12C51.1659 151.48 51.2326 150.773 51.2859 150C51.3393 149.227 51.3393 148.48 51.2859 147.76C51.2859 147.413 51.1526 147.173 50.8859 147.04C50.6193 146.853 50.2326 146.747 49.7259 146.72C49.2459 146.667 48.8459 146.64 48.5259 146.64C48.2859 146.64 47.9793 146.693 47.6059 146.8C47.2593 146.88 46.9259 147.04 46.6059 147.28C46.2859 147.52 46.0193 147.88 45.8059 148.36C45.6193 148.84 45.5259 149.453 45.5259 150.2C45.5259 150.787 45.6459 151.307 45.8859 151.76C46.1259 152.213 46.4726 152.573 46.9259 152.84C47.3793 153.08 47.9393 153.2 48.6059 153.2ZM59.515 151.36C59.595 151.067 59.715 150.947 59.875 151C60.0617 151.027 60.235 151.093 60.395 151.2C60.8483 151.413 61.3683 151.613 61.955 151.8C62.5683 151.96 63.195 152.093 63.835 152.2C64.475 152.28 65.0483 152.32 65.555 152.32C66.0883 152.32 66.5683 152.267 66.995 152.16C67.4483 152.027 67.8083 151.827 68.075 151.56C68.3417 151.293 68.475 150.947 68.475 150.52C68.5017 149.933 68.235 149.493 67.675 149.2C67.1417 148.88 66.195 148.573 64.835 148.28C63.9817 148.093 63.1017 147.827 62.195 147.48C61.315 147.107 60.5817 146.56 59.995 145.84C59.4083 145.093 59.115 144.12 59.115 142.92C59.115 141.56 59.4617 140.453 60.155 139.6C60.8483 138.72 61.7417 138.053 62.835 137.6C63.955 137.147 65.1417 136.92 66.395 136.92C67.3817 136.92 68.4617 137.067 69.635 137.36C70.8083 137.653 71.7817 138.027 72.555 138.48C72.795 138.613 72.915 138.733 72.915 138.84C72.9417 138.947 72.9283 139.093 72.875 139.28L71.915 141.88C71.835 142.2 71.5817 142.28 71.155 142.12C70.5683 141.773 69.8483 141.453 68.995 141.16C68.1417 140.867 67.275 140.72 66.395 140.72C65.7817 140.72 65.235 140.88 64.755 141.2C64.3017 141.493 64.075 141.88 64.075 142.36C64.075 142.947 64.3417 143.373 64.875 143.64C65.4083 143.907 66.1817 144.147 67.195 144.36C67.9417 144.52 68.6617 144.707 69.355 144.92C70.0483 145.107 70.6883 145.4 71.275 145.8C71.8617 146.173 72.3283 146.693 72.675 147.36C73.0217 148 73.195 148.84 73.195 149.88C73.195 151.08 72.9683 152.093 72.515 152.92C72.0617 153.72 71.4483 154.36 70.675 154.84C69.9283 155.32 69.1017 155.667 68.195 155.88C67.315 156.093 66.435 156.2 65.555 156.2C65.075 156.2 64.4483 156.147 63.675 156.04C62.9017 155.933 62.115 155.76 61.315 155.52C60.515 155.28 59.835 154.96 59.275 154.56C59.1683 154.507 59.075 154.44 58.995 154.36C58.9417 154.253 58.9283 154.12 58.955 153.96L59.515 151.36ZM76.0013 155.52C76.0013 150.96 76.0013 146.4 76.0013 141.84C76.0013 137.28 76.0013 132.72 76.0013 128.16C76.0013 127.84 76.1879 127.68 76.5613 127.68C77.2546 127.68 77.9346 127.68 78.6013 127.68C79.2946 127.68 79.9746 127.68 80.6413 127.68C80.9879 127.68 81.1613 127.84 81.1613 128.16C81.1613 129.627 81.1613 131.093 81.1613 132.56C81.1613 134.027 81.1613 135.48 81.1613 136.92C81.1613 137.133 81.2146 137.267 81.3213 137.32C81.4279 137.347 81.5346 137.333 81.6413 137.28C81.8813 137.2 82.2813 137.107 82.8413 137C83.4279 136.893 83.9746 136.84 84.4813 136.84C85.7079 136.84 86.7479 137.027 87.6013 137.4C88.4813 137.747 89.1879 138.293 89.7213 139.04C90.2813 139.787 90.6946 140.747 90.9613 141.92C91.2546 143.093 91.4279 144.507 91.4813 146.16C91.5079 147.28 91.4946 148.427 91.4413 149.6C91.3879 150.747 91.3079 151.853 91.2013 152.92C91.0946 153.96 90.9746 154.853 90.8413 155.6C90.8146 155.76 90.7346 155.867 90.6013 155.92C90.4946 155.973 90.3479 156 90.1613 156C89.5213 156 88.8946 156 88.2813 156C87.6679 156 87.0546 156 86.4413 156C86.0146 156 85.7746 155.96 85.7213 155.88C85.6946 155.8 85.7213 155.52 85.8013 155.04C85.9346 153.973 86.0413 152.853 86.1213 151.68C86.2013 150.48 86.2546 149.293 86.2813 148.12C86.3079 146.973 86.2813 145.933 86.2013 145C86.1213 144.067 85.9613 143.28 85.7213 142.64C85.5079 141.973 85.1879 141.48 84.7613 141.16C84.3613 140.813 83.8279 140.64 83.1613 140.64C82.9479 140.64 82.7079 140.667 82.4413 140.72C82.1746 140.773 81.9213 140.84 81.6813 140.92C81.5213 140.947 81.3879 141.04 81.2813 141.2C81.2013 141.333 81.1613 141.52 81.1613 141.76V155.52C81.1613 155.84 80.9879 156 80.6413 156H76.5613C76.1879 156 76.0013 155.84 76.0013 155.52ZM102.471 156.24C101.111 156.24 99.8713 156.133 98.7513 155.92C97.6579 155.68 96.9113 155.48 96.5113 155.32C96.0846 155.187 95.7646 155.067 95.5513 154.96C95.3646 154.827 95.2313 154.68 95.1513 154.52C95.0713 154.333 95.0046 154.107 94.9513 153.84C94.8179 153.333 94.7113 152.573 94.6313 151.56C94.5779 150.547 94.5379 149.48 94.5113 148.36C94.4846 147.213 94.4579 146.2 94.4313 145.32C94.4313 142.04 94.5113 138.907 94.6713 135.92C94.8579 132.933 95.0979 130.32 95.3913 128.08C95.4179 127.893 95.4846 127.787 95.5913 127.76C95.7246 127.707 95.8979 127.68 96.1113 127.68H99.8713C100.271 127.68 100.471 127.747 100.471 127.88C100.498 127.987 100.485 128.24 100.431 128.64C100.378 129.093 100.311 129.613 100.231 130.2C100.151 130.76 100.085 131.347 100.031 131.96C99.9779 132.573 99.9246 133.187 99.8713 133.8C99.8179 134.413 99.7779 134.987 99.7513 135.52C99.7246 136.053 99.7113 136.533 99.7113 136.96C99.7113 137.173 99.7646 137.307 99.8713 137.36C100.005 137.387 100.151 137.387 100.311 137.36C100.578 137.28 100.951 137.2 101.431 137.12C101.938 137.013 102.391 136.96 102.791 136.96C103.751 136.96 104.698 137.107 105.631 137.4C106.591 137.667 107.458 138.16 108.231 138.88C109.005 139.6 109.631 140.613 110.111 141.92C110.591 143.2 110.831 144.853 110.831 146.88C110.831 150.107 110.085 152.48 108.591 154C107.125 155.493 105.085 156.24 102.471 156.24ZM102.431 152.32C103.045 152.32 103.591 152.16 104.071 151.84C104.551 151.493 104.925 150.92 105.191 150.12C105.485 149.32 105.631 148.24 105.631 146.88C105.631 145.653 105.525 144.667 105.311 143.92C105.125 143.173 104.858 142.613 104.511 142.24C104.191 141.84 103.845 141.573 103.471 141.44C103.125 141.307 102.778 141.24 102.431 141.24C102.218 141.24 101.951 141.267 101.631 141.32C101.338 141.373 101.045 141.44 100.751 141.52C100.485 141.6 100.245 141.667 100.031 141.72C99.9246 141.747 99.8446 141.8 99.7913 141.88C99.7646 141.933 99.7379 142.053 99.7113 142.24C99.7113 142.88 99.7113 143.56 99.7113 144.28C99.7113 145 99.7113 145.76 99.7113 146.56C99.7379 147.36 99.7646 148.173 99.7913 149C99.8179 149.8 99.8446 150.587 99.8713 151.36C99.8713 151.52 99.8846 151.64 99.9113 151.72C99.9646 151.8 100.031 151.867 100.111 151.92C100.378 152 100.711 152.093 101.111 152.2C101.538 152.28 101.978 152.32 102.431 152.32ZM122.524 156.32C120.204 156.32 118.404 155.893 117.124 155.04C115.871 154.16 114.991 152.987 114.484 151.52C114.004 150.027 113.764 148.333 113.764 146.44C113.764 144.6 114.044 142.96 114.604 141.52C115.164 140.053 116.071 138.907 117.324 138.08C118.604 137.227 120.338 136.8 122.524 136.8C124.738 136.8 126.471 137.227 127.724 138.08C129.004 138.907 129.911 140.053 130.444 141.52C131.004 142.96 131.284 144.6 131.284 146.44C131.284 148.307 131.044 149.987 130.564 151.48C130.084 152.947 129.204 154.12 127.924 155C126.671 155.88 124.871 156.32 122.524 156.32ZM122.484 152.4C123.791 152.4 124.711 151.893 125.244 150.88C125.778 149.867 126.044 148.44 126.044 146.6C126.044 144.76 125.751 143.373 125.164 142.44C124.604 141.48 123.711 141 122.484 141C121.284 141 120.391 141.48 119.804 142.44C119.244 143.373 118.964 144.76 118.964 146.6C118.964 148.467 119.218 149.907 119.724 150.92C120.258 151.907 121.178 152.4 122.484 152.4ZM141.802 156.28C140.442 156.28 139.162 156.133 137.962 155.84C136.788 155.52 135.828 154.92 135.082 154.04C134.362 153.16 134.002 151.88 134.002 150.2C134.002 148.813 134.255 147.68 134.762 146.8C135.295 145.893 135.962 145.2 136.762 144.72C137.588 144.24 138.442 143.92 139.322 143.76C140.202 143.573 140.988 143.48 141.682 143.48C142.242 143.48 142.775 143.507 143.282 143.56C143.815 143.587 144.308 143.64 144.762 143.72C145.002 143.8 145.122 143.627 145.122 143.2C145.122 142.213 144.815 141.52 144.202 141.12C143.615 140.72 142.788 140.52 141.722 140.52C140.708 140.52 139.735 140.707 138.802 141.08C137.895 141.453 137.122 141.8 136.482 142.12C136.188 142.28 135.988 142.333 135.882 142.28C135.802 142.227 135.735 142.053 135.682 141.76L135.322 139.52C135.268 139.173 135.268 138.947 135.322 138.84C135.375 138.733 135.522 138.6 135.762 138.44C136.455 137.987 137.335 137.627 138.402 137.36C139.468 137.067 140.602 136.92 141.802 136.92C143.615 136.92 145.068 137.133 146.162 137.56C147.255 137.96 148.068 138.507 148.602 139.2C149.162 139.893 149.522 140.693 149.682 141.6C149.868 142.48 149.962 143.4 149.962 144.36C149.988 145.48 149.988 146.587 149.962 147.68C149.962 148.747 149.935 149.813 149.882 150.88C149.828 151.947 149.748 153.027 149.642 154.12C149.588 154.413 149.508 154.64 149.402 154.8C149.295 154.933 149.082 155.08 148.762 155.24C148.388 155.427 147.895 155.587 147.282 155.72C146.668 155.827 146.002 155.92 145.282 156C144.588 156.107 143.935 156.173 143.322 156.2C142.708 156.253 142.202 156.28 141.802 156.28ZM142.122 153.2C142.335 153.2 142.575 153.187 142.842 153.16C143.108 153.107 143.375 153.04 143.642 152.96C143.908 152.88 144.122 152.773 144.282 152.64C144.468 152.507 144.575 152.333 144.602 152.12C144.682 151.48 144.748 150.773 144.802 150C144.855 149.227 144.855 148.48 144.802 147.76C144.802 147.413 144.668 147.173 144.402 147.04C144.135 146.853 143.748 146.747 143.242 146.72C142.762 146.667 142.362 146.64 142.042 146.64C141.802 146.64 141.495 146.693 141.122 146.8C140.775 146.88 140.442 147.04 140.122 147.28C139.802 147.52 139.535 147.88 139.322 148.36C139.135 148.84 139.042 149.453 139.042 150.2C139.042 150.787 139.162 151.307 139.402 151.76C139.642 152.213 139.988 152.573 140.442 152.84C140.895 153.08 141.455 153.2 142.122 153.2ZM159.631 136.96C161.657 136.96 163.324 137.253 164.631 137.84C164.897 137.947 165.044 138.053 165.071 138.16C165.124 138.267 165.137 138.413 165.111 138.6L164.391 141.08C164.337 141.293 164.271 141.427 164.191 141.48C164.111 141.507 163.951 141.48 163.711 141.4C163.257 141.267 162.751 141.173 162.191 141.12C161.631 141.04 161.204 141 160.911 141C160.484 141 160.124 141.027 159.831 141.08C159.537 141.107 159.311 141.147 159.151 141.2C158.991 141.253 158.857 141.307 158.751 141.36C158.644 141.44 158.524 141.533 158.391 141.64C158.284 141.747 158.231 141.987 158.231 142.36V155.16C158.231 155.533 158.177 155.773 158.071 155.88C157.964 155.96 157.777 156 157.511 156H153.631C153.497 156 153.377 155.96 153.271 155.88C153.164 155.8 153.111 155.613 153.111 155.32V139.32C153.111 138.893 153.151 138.627 153.231 138.52C153.337 138.387 153.537 138.253 153.831 138.12C154.631 137.747 155.577 137.467 156.671 137.28C157.791 137.067 158.777 136.96 159.631 136.96ZM166.386 146.84C166.44 144.813 166.706 143.16 167.186 141.88C167.693 140.6 168.333 139.6 169.106 138.88C169.906 138.16 170.786 137.667 171.746 137.4C172.706 137.133 173.68 137 174.666 137C175.04 137 175.466 137.04 175.946 137.12C176.426 137.2 176.8 137.267 177.066 137.32C177.253 137.373 177.4 137.387 177.506 137.36C177.64 137.333 177.706 137.213 177.706 137C177.706 136.52 177.693 136.013 177.666 135.48C177.666 134.947 177.64 134.413 177.586 133.88C177.56 133.32 177.52 132.773 177.466 132.24C177.413 131.68 177.36 131.16 177.306 130.68C177.28 130.173 177.24 129.72 177.186 129.32C177.133 128.867 177.146 128.6 177.226 128.52C177.333 128.44 177.506 128.4 177.746 128.4H181.586C181.773 128.4 181.92 128.413 182.026 128.44C182.16 128.467 182.24 128.573 182.266 128.76C182.373 129.853 182.466 131.133 182.546 132.6C182.626 134.04 182.693 135.6 182.746 137.28C182.8 138.933 182.826 140.6 182.826 142.28C182.853 143.96 182.84 145.573 182.786 147.12C182.76 148.667 182.693 150.04 182.586 151.24C182.506 152.44 182.386 153.36 182.226 154C182.146 154.32 182.026 154.56 181.866 154.72C181.733 154.88 181.373 155.067 180.786 155.28C180.28 155.493 179.466 155.72 178.346 155.96C177.226 156.173 176 156.28 174.666 156.28C173.626 156.253 172.653 156.133 171.746 155.92C170.866 155.68 170.093 155.307 169.426 154.8C168.413 154.08 167.653 153.067 167.146 151.76C166.64 150.427 166.386 148.787 166.386 146.84ZM171.626 146.88C171.6 148.72 171.813 150.027 172.266 150.8C172.746 151.547 173.346 151.973 174.066 152.08C174.386 152.187 174.72 152.253 175.066 152.28C175.44 152.28 175.8 152.253 176.146 152.2C176.52 152.12 176.84 152.027 177.106 151.92C177.186 151.867 177.24 151.813 177.266 151.76C177.32 151.68 177.346 151.573 177.346 151.44C177.373 150.853 177.4 150.24 177.426 149.6C177.48 148.96 177.506 148.32 177.506 147.68C177.533 147.04 177.56 146.4 177.586 145.76C177.613 145.12 177.626 144.507 177.626 143.92C177.653 143.333 177.653 142.787 177.626 142.28C177.626 142.093 177.6 141.973 177.546 141.92C177.52 141.84 177.453 141.787 177.346 141.76C177 141.627 176.586 141.52 176.106 141.44C175.653 141.333 175.266 141.28 174.946 141.28C174.626 141.28 174.266 141.347 173.866 141.48C173.493 141.613 173.133 141.867 172.786 142.24C172.466 142.613 172.2 143.173 171.986 143.92C171.773 144.64 171.653 145.627 171.626 146.88Z" fill="white"/>
</svg>
